<?xml version="1.0" encoding="utf-8"?>
<!-- Generator: Adobe Illustrator 19.0.0, SVG Export Plug-In . SVG Version: 6.00 Build 0)  -->
<svg version="1.1" id="Layer_1" xmlns="http://www.w3.org/2000/svg" xmlns:xlink="http://www.w3.org/1999/xlink" x="0px" y="0px"
	 viewBox="-527 340.5 1050 207" style="enable-background:new -527 340.5 1050 207;" xml:space="preserve">
<style type="text/css">
	.st0{fill:none;stroke:#AEB2B7;stroke-width:0.75;stroke-miterlimit:10;}
	.st1{fill:#AEB2B7;}
	.st2{fill:none;stroke:#00AEEF;stroke-width:0.75;stroke-miterlimit:10;}
	.st3{fill:#00AEEF;stroke:#FFFFFF;stroke-width:0.3;stroke-miterlimit:10;}
	.st4{fill:#00AEEF;stroke:#FFFFFF;stroke-width:1.3;stroke-miterlimit:10;}
	.st5{fill:#00AEEF;stroke:#FFFFFF;stroke-width:0.25;stroke-miterlimit:10;}
	.st6{fill:#00AEEF;}
	.st7{font-family:'ProximaNova-Regular';}
	.st8{font-size:17.1609px;}
	.st9{fill:none;stroke:#00AEEF;stroke-miterlimit:10;}
</style>
<g id="XMLID_52_">
	<circle id="XMLID_159_" class="st0" cx="441.9" cy="423.3" r="58.2"/>
	<g id="XMLID_64_">
		<g id="XMLID_220_">
			<path id="XMLID_224_" class="st1" d="M475,409.1L475,409.1c0-0.2-0.2-0.4-0.4-0.6l0,0l0,0L443,390.2c-0.2-0.2-0.6-0.2-1,0
				l-31.6,18.1l0,0l0,0l-0.2,0.2l0,0l0,0c0,0,0,0.2-0.2,0.2l0,0l0,0v27.2c0,0.4,0.2,0.6,0.4,0.8l31.6,18.1c0.2,0,0.2,0.2,0.4,0.2
				l0,0l0,0l0,0h0.2c0,0,0.2,0,0.2-0.2l31.6-18.1c0.2-0.2,0.4-0.4,0.4-0.8L475,409.1C475,409.3,475,409.1,475,409.1z M442.6,392
				l29.8,17.2l-10.8,6.2l-29.8-17.2L442.6,392z M461.4,431.8l-6.5,3.7v-14.1l6.5-3.7V431.8z M442.6,426.5l-29.8-17.2l10.3-5.9
				l29.6,17.4L442.6,426.5z M430.6,398.9l29.8,17.2l-6.5,3.7l-29.6-17.4L430.6,398.9z M411.9,410.9l29.8,17.2v25l-29.8-17.2V410.9z
				 M443.4,453.1v-25l10.1-5.7v14.4c0,0.2,0.2,0.4,0.4,0.6c0,0,0.2,0,0.4,0s0.2,0,0.4,0l7.7-4.5c0.2-0.2,0.4-0.4,0.4-0.6V417
				l10.7-6.1v25L443.4,453.1z"/>
			<path id="XMLID_223_" class="st1" d="M456.5,430.2c0.4,0,0.6-0.2,0.6-0.6v-7.3c0-0.4-0.2-0.6-0.6-0.6s-0.6,0.2-0.6,0.6v7.3
				C455.9,429.8,456.1,430.2,456.5,430.2z"/>
			<path id="XMLID_222_" class="st1" d="M456.5,433.2c0.4,0,0.6-0.2,0.6-0.6v-0.4c0-0.4-0.2-0.6-0.6-0.6s-0.6,0.2-0.6,0.6v0.4
				C455.9,432.8,456.1,433.2,456.5,433.2z"/>
			<path id="XMLID_221_" class="st1" d="M430,403.2l22.9,13.2c0,0,0.2,0,0.4,0s0.4-0.2,0.6-0.4c0.2-0.2,0-0.6-0.2-0.8L430.8,402
				c-0.2-0.2-0.6,0-0.8,0.2C429.6,402.6,429.6,403,430,403.2z"/>
		</g>
	</g>
</g>
<g id="XMLID_39_">
	<circle id="XMLID_132_" class="st0" cx="221.4" cy="423.9" r="58.2"/>
	<g id="XMLID_40_">
		<path id="XMLID_48_" class="st1" d="M221.6,430h0.2c0.2,0,0.2,0,0.4-0.2c6.7-0.8,11.8-6.1,12.8-12.8c0.2-0.2,0.2-0.4,0-0.6
			c0-0.4,0-0.8,0-1.2c0-8.1-6.7-14.8-14.8-14.8c-0.4,0-0.8,0-1.2,0c-0.2,0-0.4,0-0.6,0c-6.7,0.8-11.8,6.1-12.8,12.8
			c-0.2,0.2-0.2,0.4,0,0.6c0,0.4,0,0.8,0,1.2c0,8.1,6.7,14.8,14.8,14.8C220.8,430,221.2,430,221.6,430z M219.2,428.7l14.4-14.4
			c0,0.4,0,0.8,0,1.2s0,0.8,0,1.2l-12,12c-0.4,0-0.8,0-1.2,0S219.6,428.7,219.2,428.7z M212.7,426.3L212.7,426.3l18.5-18.5l0,0
			c0.4,0.4,0.6,1,1,1.4l-17.9,17.9C213.7,426.9,213.3,426.5,212.7,426.3z M232.8,410.7c0.2,0.6,0.4,1.2,0.6,1.8c0,0-0.2,0-0.2,0.2
			l-15.4,15.4l-0.2,0.2c-0.6-0.2-1.2-0.4-1.8-0.6L232.8,410.7z M224.1,428.1l8.9-8.9C231.8,423.5,228.5,426.9,224.1,428.1z
			 M209.5,422.9c-0.4-0.4-0.6-1-1-1.4l17.9-17.9c0.6,0.2,1,0.6,1.4,1l0,0L209.5,422.9L209.5,422.9z M207.4,418.2c0,0,0.2,0,0.2-0.2
			l15.4-15.4l0.2-0.2c0.6,0.2,1.2,0.4,1.8,0.6l-17.2,17.2C207.8,419.4,207.6,418.8,207.4,418.2z M221.6,402.2l-14.4,14.4
			c0-0.4,0-0.8,0-1.2c0-0.4,0-0.8,0-1.2l12-12c0.4,0,0.8,0,1.2,0C220.8,402,221.2,402,221.6,402.2z M216.6,402.6l-8.9,8.9
			C208.9,407.4,212.3,404,216.6,402.6z M210.3,424.1C210.5,424.1,210.5,424.1,210.3,424.1l18.5-18.5c0,0,0-0.2,0.2-0.2
			c0.4,0.4,0.8,0.8,1.2,1.2c0,0-0.2,0-0.2,0.2l-18.3,18.3c0,0,0,0.2-0.2,0.2C211.1,424.9,210.7,424.5,210.3,424.1z"/>
		<path id="XMLID_41_" class="st1" d="M230.4,433h3.2c0.4,0,0.6-0.2,0.8-0.6l1-4.9l4.5-2c0.4-0.2,0.6-0.6,0.4-0.8l-1.2-4.7l3.2-3.7
			c0.2-0.2,0.2-0.6,0-1l-3.2-3.7l1.2-4.7c0-0.4,0-0.8-0.4-0.8l-4.5-2l-1-4.9c0-0.4-0.4-0.6-0.8-0.6h-4.9l-3-3.9
			c-0.2-0.2-0.6-0.4-1-0.2l-4.3,2.2l-4.3-2.2c-0.4-0.2-0.8,0-1,0.2l-3,3.9h-4.9c-0.4,0-0.6,0.2-0.8,0.6l-1,4.9l-4.5,2
			c-0.4,0.2-0.6,0.6-0.4,0.8l1.2,4.7l-3.2,3.7c-0.2,0.2-0.2,0.6,0,1l3.2,3.7l-1.2,4.7c0,0.4,0,0.8,0.4,0.8l4.5,2l1,4.9
			c0,0.4,0.4,0.6,0.8,0.6h3.2l-11.8,19.5c-0.2,0.2-0.2,0.6,0,0.8c0.2,0.2,0.4,0.4,0.8,0.4l7.5-1.4l2,6.7c0,0.2,0.4,0.4,0.6,0.6l0,0
			c0.2,0,0.6-0.2,0.6-0.4l10.5-18.1l10.5,18.1c0.2,0.2,0.4,0.4,0.6,0.4l0,0c0.2,0,0.6-0.2,0.6-0.6l2-6.7l7.5,1.4
			c0.2,0,0.6,0,0.8-0.4c0.2-0.2,0.2-0.6,0-0.8L230.4,433z M206.8,426.9c0-0.2-0.2-0.4-0.4-0.6l-4.3-2l1.2-4.5c0-0.2,0-0.4-0.2-0.6
			l-3-3.6l3-3.6c0.2-0.2,0.2-0.4,0.2-0.6L202,407l4.3-2c0.2,0,0.4-0.2,0.4-0.6l1-4.5h4.7c0.2,0,0.4-0.2,0.6-0.2l3-3.7l4.1,2.2
			c0.2,0.2,0.4,0.2,0.6,0l4.1-2.2l3,3.7c0.2,0.2,0.4,0.2,0.6,0.2h4.7l1,4.5c0,0.2,0.2,0.4,0.4,0.6l4.3,2l-1.2,4.5
			c0,0.2,0,0.4,0.2,0.6l3,3.6l-3,3.6c-0.2,0.2-0.2,0.4-0.2,0.6l1.2,4.5l-4.3,2c-0.2,0-0.4,0.2-0.4,0.6l-1,4.5h-4.7
			c-0.2,0-0.4,0.2-0.6,0.2l-3,3.7l-4.1-2.2c-0.2-0.2-0.4-0.2-0.6,0l-4.1,2.2l-3-3.7c-0.2-0.2-0.4-0.2-0.6-0.2l0,0h-4.7L206.8,426.9z
			 M209.5,457.1l-1.8-5.7c-0.2-0.4-0.4-0.6-0.8-0.6l-6.5,1.2l11.5-19l0,0l3,3.9c0.2,0.2,0.6,0.4,1,0.2l1.6-0.8l2,3.4L209.5,457.1z
			 M233.8,450.8c-0.4,0-0.8,0.2-0.8,0.6l-1.8,5.7l-12.4-21.5l1.6-0.8l4.3,2.2c0.2,0,0.2,0,0.4,0s0.4-0.2,0.6-0.2l3-3.9l0,0
			l11.4,18.9L233.8,450.8z"/>
	</g>
</g>
<g id="XMLID_99_">
	<circle id="XMLID_62_" class="st2" cx="-439.9" cy="423.7" r="58.2"/>
	<g id="XMLID_54_">
		<path id="XMLID_55_" class="st3" d="M-422.3,453.1h9.7c0.2,0,0.2,0,0.4,0s0.4,0.2,0.6,0.4s0.2,0.2,0.2,0.4c0.2,0.4,0.2,0.8,0,1.2
			l-0.2,0.2l-0.2,0.2c-0.2,0-0.4,0.2-0.4,0.2h-0.2c-19.1,0-38.3,0-57.4,0h-0.2c-0.2,0-0.4,0-0.4-0.2c-0.2,0-0.2-0.2-0.4-0.4
			l-0.2-0.2c-0.2-0.4-0.2-0.8,0-1.2l0.2-0.2c0.2-0.2,0.4-0.2,0.6-0.4c0.2,0,0.2,0,0.4,0h9.7v-56.8v-0.2c0-0.2,0-0.2,0-0.4
			c0.2-0.4,0.4-0.6,0.8-0.8c0.2,0,0.2,0,0.4,0h35.3c0.2,0,0.2,0,0.4,0c0.4,0.2,0.8,0.4,0.8,0.8c0,0.2,0,0.2,0,0.4v0.2v56.8H-422.3z
			 M-429.2,453.1h4.1v-55.6h-32.7c0,18.5,0,37.1,0,55.6h4.1c0-1,0-2,0-3c0-0.2,0-0.4,0.2-0.6c0-0.2,0.2-0.2,0.4-0.4
			c0.2-0.2,0.2-0.2,0.4-0.2c0.4-0.2,1,0,1.4,0.2l0.2,0.2c0.2,0.2,0.2,0.4,0.2,0.6c0,1,0,2,0,3h19.1c0-1,0-2,0-3c0-0.2,0-0.4,0.2-0.6
			c0-0.2,0.2-0.2,0.2-0.2c0.4-0.4,0.8-0.4,1.4-0.2c0.2,0,0.2,0.2,0.4,0.2c0.2,0.2,0.2,0.2,0.4,0.4c0,0.2,0.2,0.4,0.2,0.6
			C-429.2,451.1-429.2,452.1-429.2,453.1z M-441.2,448.4c-0.6,0-1.2,0-1.8-0.2c-1.2-0.2-2.2-0.4-3.4-1c-1.2-0.6-2.4-1.4-3.4-2.4
			s-1.8-2-2.4-3.4c-0.6-1-0.8-2-1-3.2c-0.4-1.6-0.4-3.4,0-4.9c0.2-1.2,0.6-2.2,1.2-3.2c0.6-1.2,1.4-2.2,2.4-3.2s2.4-1.8,3.6-2.4
			c1.4-0.6,3-1,4.5-1c1.6,0,3.2,0.2,4.5,0.8c1.4,0.6,2.6,1.4,3.7,2.4c1,1,1.8,2,2.4,3.2c0.6,1,1,2.2,1.2,3.4c0.4,1.6,0.4,3.4,0,5.1
			c-0.2,1-0.6,2-1,3c-0.6,1.2-1.4,2.4-2.4,3.2c-1,1-2.2,1.8-3.4,2.4c-1,0.6-2.2,0.8-3.4,1c-0.6,0-1.2,0.2-1.8,0.2
			C-441.2,448.4-441.2,448.4-441.2,448.4z M-441.2,445.8c0.4,0,1,0,1.4,0c1-0.2,1.8-0.4,2.6-0.8c1-0.4,2-1,2.8-1.8
			c0.8-0.8,1.4-1.6,2-2.6c0.4-0.8,0.6-1.6,0.8-2.4c0.2-1.4,0.2-2.8,0-3.9c-0.2-0.8-0.4-1.6-0.8-2.4c-0.4-1-1.2-1.8-2-2.6
			s-1.8-1.4-3-2c-1.2-0.4-2.4-0.8-3.6-0.8c-1.2,0-2.6,0.2-3.6,0.6c-1,0.4-2,1-3,1.8c-0.8,0.8-1.4,1.6-2,2.6c-0.4,0.8-0.8,1.8-1,2.6
			c-0.2,1.2-0.2,2.6,0,3.9c0.2,0.8,0.4,1.6,0.8,2.2c0.4,1,1.2,2,1.8,2.6c0.8,0.8,1.6,1.4,2.6,2c0.8,0.4,1.8,0.6,2.6,0.8
			c0.4,0,0.8,0.2,1.4,0.2C-441.4,445.8-441.4,445.8-441.2,445.8z M-430.6,421.6c-0.2,0-0.2,0-0.4,0c-0.4-0.2-0.6-0.4-0.8-0.8
			c0-0.2,0-0.2,0-0.4c0-2.6,0-5.1,0-7.7c0-0.2,0-0.4,0.2-0.6c0-0.2,0.2-0.2,0.2-0.4c0.2-0.2,0.6-0.4,1-0.4c0.2,0,0.2,0,0.4,0
			c0.2,0,0.2,0.2,0.4,0.2c0.2,0.2,0.2,0.2,0.4,0.4c0,0.2,0.2,0.4,0.2,0.6c0,2.6,0,5.1,0,7.7c0,0.2,0,0.2,0,0.4
			c-0.2,0.4-0.4,0.6-0.8,0.8S-430.2,421.6-430.6,421.6C-430.4,421.6-430.4,421.6-430.6,421.6z M-452.3,421.6c-0.2,0-0.2,0-0.4,0
			c-0.4-0.2-0.6-0.4-0.8-0.8v-0.2v-0.2v-17.2V403v-0.2c0.2-0.4,0.4-0.6,0.8-0.8c0.2,0,0.2,0,0.4,0h6.3h0.2c0.2,0,0.4,0.2,0.6,0.4
			c0.2,0.2,0.2,0.2,0.2,0.4c0,0.2,0,0.2,0,0.4c0,0.2,0,0.2,0,0.4c0,0.4-0.4,0.8-0.8,1c-0.2,0-0.2,0-0.4,0.2h-0.2h-4.9v15.8l0,0
			c0,0.2,0,0.2,0,0.4c-0.2,0.4-0.4,0.6-0.8,0.8h-0.2C-452.1,421.6-452.1,421.6-452.3,421.6C-452.1,421.6-452.1,421.6-452.3,421.6z"
			/>
	</g>
</g>
<g id="XMLID_98_">
	<circle id="XMLID_65_" class="st2" cx="-219.6" cy="423.4" r="58.2"/>
	<g id="XMLID_63_">
		<path id="XMLID_4_" class="st4" d="M-222.9,458.3v-8.1c-4.7,0-9.5-1.6-12.2-3.4l1.8-5.5c3,1.8,7.1,3.4,11.4,3.4
			c5.7,0,9.7-3.4,9.7-7.9c0-4.3-3.2-7.1-9.1-9.7c-8.1-3.2-13.2-7.1-13.2-13.8c0-6.5,4.7-11.6,12-12.8v-8.1h4.9v7.9
			c4.7,0.2,8.1,1.6,10.5,3l-2.2,5.1c-1.6-1-4.9-3-10.3-3c-6.3,0-8.7,3.6-8.7,7.1c0,4.1,3,6.3,9.9,9.1c8.3,3.4,12.4,7.5,12.4,14.6
			c0,6.5-4.3,12.2-12.4,13.6v8.3L-222.9,458.3L-222.9,458.3z"/>
	</g>
</g>
<g id="XMLID_96_">
	<circle id="XMLID_73_" class="st2" cx="0.8" cy="423.3" r="58.2"/>
	<path id="XMLID_66_" class="st5" d="M-4.9,416.9c1,0,2-0.2,3-0.8c1.4-0.8,2.4-2,2.8-3.6c0.4-1.6,0.2-3.2-0.6-4.5
		c-1.6-2.8-5.3-3.7-8.1-2.2c-2.8,1.6-3.7,5.3-2.2,8.1C-8.8,415.8-6.9,416.9-4.9,416.9z M-6.7,407.9c0.6-0.4,1.2-0.4,1.8-0.4
		c1.4,0,2.6,0.8,3.2,1.8c0.4,0.8,0.6,1.8,0.4,2.8c-0.2,1-0.8,1.8-1.8,2.2c-1.8,1-4.1,0.4-4.9-1.4C-9,411-8.4,408.9-6.7,407.9z
		 M25.9,439.6l-5.5-9.7c-0.6-1-0.6-2-0.2-3.2l0.4-0.8c3-6.9,2.4-14.6-1.4-21.1c-4.1-7.3-12-11.8-20.7-11.8l0,0c-0.4,0-0.8,0.2-1,0.6
		s-0.2,0.8,0,1.2l2.2,3.9h-10.8c-0.4,0-0.8,0.2-1,0.6l-5.5,9.5l-2.2-3.9c-0.2-0.4-0.6-0.6-1-0.6l0,0c-0.4,0-0.8,0.2-1,0.6
		c-4.3,7.3-4.3,16.6-0.2,23.9c3.7,6.5,10.1,10.7,17.6,11.6l1,0.2c1.2,0.2,2,0.8,2.6,1.8l5.7,9.7c0.2,0.4,0.6,0.6,1,0.6h0.2
		c7.5-2,14.2-5.9,19.7-11.6C26.1,440.6,26.1,440,25.9,439.6z M2.2,423.5c-2.2,1.2-4.3,1.8-6.1,1.8c-2,0-3.7-0.6-5.1-2H1.5
		c0.4,0,0.8-0.2,1-0.6l5.3-9.1C8.9,417.7,6,421.3,2.2,423.5z M-10.6,401H1l5.7,10.1L1,421.2h-11.6l-5.7-10.1L-10.6,401z M6.2,450.3
		l-5.1-8.9c-1-1.6-2.6-2.6-4.1-2.8l-0.8-0.2c-6.7-0.8-12.6-4.7-16-10.7c-3.6-6.1-3.7-13.6-0.8-19.9l2.2,3.7l0,0l6.5,11.2
		c0,0,0,0,0,0.2c2,3,4.7,4.7,8.3,4.7c2.4,0,4.9-0.8,7.3-2.2c6.3-3.6,8.5-9.5,5.7-14.8v-0.2l-0.2-0.2l0,0L6,404.7l-3.2-5.3l0,0
		l-2.2-3.7c6.9,0.6,13.4,4.5,17,10.7c3.4,5.9,3.7,12.8,1.2,19.1l-0.4,0.8c-0.8,1.6-0.6,3.6,0.4,5.1l5.1,8.9
		C18.6,444.9,12.7,448.3,6.2,450.3z"/>
</g>
<g id="XMLID_111_">
	<text id="XMLID_47_" transform="matrix(1 0 0 1 -489.1249 515.5488)" class="st6 st7 st8">Deposit Paid</text>
</g>
<g id="XMLID_112_">
	<g>
		<text id="XMLID_10_" transform="matrix(1 0 0 1 -268.9489 515.5488)" class="st6 st7 st8">Balance Paid</text>
	</g>
</g>
<g id="XMLID_113_">
	<g>
		<text id="XMLID_11_" transform="matrix(1 0 0 1 -28.757 515.5488)" class="st6 st7 st8">Building</text>
	</g>
</g>
<g id="XMLID_114_">
	<text id="XMLID_86_" transform="matrix(1 0 0 1 151.3869 515.5488)" class="st1 st7 st8">Quality Assurance</text>
</g>
<text id="XMLID_115_" transform="matrix(1 0 0 1 412.5956 515.5488)" class="st1 st7 st8">Shipping</text>
<line id="XMLID_35_" class="st9" x1="-381.7" y1="423.7" x2="-277.8" y2="423.7"/>
<line id="XMLID_36_" class="st9" x1="-161.4" y1="423.7" x2="-57.3" y2="423.7"/>
<line id="XMLID_38_" class="st0" x1="59" y1="423.7" x2="163.2" y2="423.7"/>
<line id="XMLID_37_" class="st0" x1="280" y1="423.7" x2="384" y2="423.7"/>
</svg>
