<?xml version="1.0" encoding="utf-8"?>
<!-- Generator: Adobe Illustrator 19.0.0, SVG Export Plug-In . SVG Version: 6.00 Build 0)  -->
<svg version="1.1" id="Layer_1" xmlns="http://www.w3.org/2000/svg" xmlns:xlink="http://www.w3.org/1999/xlink" x="0px" y="0px"
	 viewBox="-296 388.7 17.4 17.3" style="enable-background:new -296 388.7 17.4 17.3;" xml:space="preserve">
<style type="text/css">
	.st0{fill:#D4DCDF;}
</style>
<g>
	<g>
		<path class="st0" d="M-288.7,400.8h-4.5c-0.2,0-0.4-0.1-0.5-0.3c-0.1-0.2-0.2-0.4-0.2-0.6l0.5-3.2c0.1-0.4,0.4-0.6,0.7-0.6h3.5
			c0.4,0,0.6,0.3,0.7,0.6l0.5,3.2c0,0.2,0,0.4-0.2,0.6C-288.3,400.7-288.5,400.8-288.7,400.8z M-292.6,396.7c-0.2,0-0.3,0.1-0.3,0.3
			l-0.5,3.2c0,0.1,0,0.2,0.1,0.3c0.1,0.1,0.2,0.1,0.3,0.1h4.5c0.1,0,0.2,0,0.3-0.1c0.1-0.1,0.1-0.2,0.1-0.3l-0.5-3.2
			c0-0.2-0.2-0.3-0.3-0.3H-292.6z"/>
	</g>
	<g>
		<path class="st0" d="M-290.9,399.9c-0.7,0-1.3-0.6-1.3-1.3s0.6-1.3,1.3-1.3s1.3,0.6,1.3,1.3S-290.2,399.9-290.9,399.9z
			 M-290.9,397.6c-0.5,0-1,0.4-1,1c0,0.5,0.4,1,1,1c0.5,0,1-0.4,1-1C-290,398-290.4,397.6-290.9,397.6z"/>
	</g>
	<g>
		<rect x="-290" y="395.9" class="st0" width="0.4" height="0.6"/>
	</g>
	<g>
		<rect x="-292.3" y="395.9" class="st0" width="0.4" height="0.6"/>
	</g>
	<g>
		<path class="st0" d="M-286.5,396.1h-2.2l-0.1-0.1c-0.1-0.2-0.1-0.6-0.1-0.7v-0.2c0-0.1-0.1-0.2-0.3-0.2h-3.6
			c-0.2,0-0.3,0.1-0.3,0.2v0.2c0,0.1,0,0.5-0.1,0.7l-0.1,0.1h-2.2l-0.1-0.1c-0.1-0.1-0.1-0.3-0.1-0.4v-0.1c0-0.5,0-1,0.4-1.4
			c0.4-0.4,1.1-0.5,2.4-0.5h3.7c1.3,0,2,0.2,2.4,0.5c0.4,0.4,0.4,0.8,0.4,1.4v0.1C-286.3,395.7-286.4,395.8-286.5,396.1
			L-286.5,396.1z M-288.4,395.7h1.7c0,0,0-0.1,0-0.1v-0.1c0-0.5,0-0.9-0.2-1.1c-0.3-0.3-1-0.4-2.1-0.4h-3.7c-1.1,0-1.8,0.1-2.1,0.4
			c-0.2,0.2-0.2,0.6-0.2,1.1v0.1c0,0.1,0,0.1,0,0.1h1.7c0-0.1,0-0.3,0-0.4v-0.2c0-0.3,0.3-0.6,0.7-0.6h3.6c0.4,0,0.7,0.3,0.7,0.6
			v0.2C-288.5,395.4-288.4,395.6-288.4,395.7z"/>
	</g>
</g>
</svg>
