<?xml version="1.0" encoding="utf-8"?>
<!-- Generator: Adobe Illustrator 19.0.0, SVG Export Plug-In . SVG Version: 6.00 Build 0)  -->
<svg version="1.1" id="Layer_1" xmlns="http://www.w3.org/2000/svg" xmlns:xlink="http://www.w3.org/1999/xlink" x="0px" y="0px"
	 viewBox="-296 388.7 17.4 17.3" style="enable-background:new -296 388.7 17.4 17.3;" xml:space="preserve">
<style type="text/css">
	.st0{fill:none;stroke:#D5DDDF;stroke-width:0.5;stroke-miterlimit:10;}
	.st1{fill:none;stroke:#D5DDDF;stroke-width:0.5;stroke-linecap:square;stroke-miterlimit:10;}
	.st2{fill:#FFFFFF;}
	.st3{fill:none;stroke:#D5DDDF;stroke-width:0.25;stroke-miterlimit:10;}
	.st4{font-family:'MyriadPro-Regular';}
	.st5{font-size:1.9277px;}
</style>
<path class="st0" d="M-293.6,398.7l-1.8,1c-0.2,0.1-0.3,0.3-0.3,0.5v0.9h6.2v-0.9c0-0.2-0.1-0.4-0.3-0.5l-1.8-1"/>
<path class="st1" d="M-292.5,399L-292.5,399c-1,0-1.9-0.8-1.9-1.9v-0.9c0-1,0.8-1.9,1.9-1.9l0,0c1,0,1.9,0.8,1.9,1.9v0.9
	C-290.7,398.1-291.5,399-292.5,399z"/>
<g>
	<circle class="st1" cx="-289.7" cy="400.5" r="1.3"/>
	<circle class="st2" cx="-289.7" cy="400.5" r="1.2"/>
	<text transform="matrix(1 0 0 1 -290.3096 401.0389)" class="st3 st4 st5">+</text>
</g>
</svg>
