<?xml version="1.0" encoding="utf-8"?>
<!-- Generator: Adobe Illustrator 19.0.0, SVG Export Plug-In . SVG Version: 6.00 Build 0)  -->
<svg version="1.1" id="Layer_1" xmlns="http://www.w3.org/2000/svg" xmlns:xlink="http://www.w3.org/1999/xlink" x="0px" y="0px"
	 viewBox="-293 385 24 24" style="enable-background:new -293 385 24 24;" xml:space="preserve">
<style type="text/css">
	.st0{fill:#D4DCDF;}
</style>
<path class="st0" d="M-283.3,398.7h-1.6v-3.5h1.6c0.3,0,0.6-0.3,0.6-0.6s-0.3-0.5-0.6-0.5h-1.6v-1.7c0-0.3-0.3-0.5-0.5-0.5
	c-0.3,0-0.6,0.3-0.6,0.5v1.7h-3.5v-1.7c0-0.3-0.3-0.5-0.6-0.5c-0.3,0-0.5,0.3-0.5,0.5v1.7h-1.7c-0.3,0-0.5,0.3-0.5,0.5
	c0,0.3,0.3,0.6,0.5,0.6h1.7v3.5h-1.7c-0.3,0-0.5,0.3-0.5,0.6c0,0.3,0.3,0.5,0.5,0.5h1.7v1.6c0,0.3,0.3,0.6,0.5,0.6
	c0.3,0,0.6-0.3,0.6-0.6v-1.6h3.5v1.6c0,0.3,0.3,0.6,0.6,0.6s0.5-0.3,0.5-0.6v-1.6h1.6c0.3,0,0.6-0.3,0.6-0.5
	C-282.7,399-283,398.7-283.3,398.7z M-289.6,398.7v-3.5h3.5v3.5C-286.2,398.7-289.6,398.7-289.6,398.7z"/>
</svg>
