<?xml version="1.0" encoding="utf-8"?>
<!-- Generator: Adobe Illustrator 19.0.0, SVG Export Plug-In . SVG Version: 6.00 Build 0)  -->
<svg version="1.1" id="Layer_1" xmlns="http://www.w3.org/2000/svg" xmlns:xlink="http://www.w3.org/1999/xlink" x="0px" y="0px"
	 viewBox="0 0 2337.1 4661.6" style="enable-background:new 0 0 2337.1 4661.6;" xml:space="preserve">
<style type="text/css">
	.st0{fill:#027FA0;}
	.st1{fill:#05A2C6;}
	.st2{fill:#00AEEF;}
	.st3{fill:none;}
	.st4{font-family:'Zian';}
	.st5{font-size:57.199px;}
	.st6{fill:#A8A8A9;}
	.st7{font-family:'OpenSans-Semibold';}
	.st8{font-size:24.7021px;}
	.st9{opacity:0.39;}
	.st10{fill:#99B7A6;}
	.st11{fill:none;stroke:#05A2C6;stroke-width:68;stroke-miterlimit:10;}
	.st12{fill:none;stroke:#00AEEF;stroke-width:68;stroke-miterlimit:10;}
	.st13{fill:none;stroke:#027FA0;stroke-width:68;stroke-miterlimit:10;}
	.st14{fill:#00AEEF;stroke:#00AEEF;stroke-miterlimit:10;}
	.st15{fill:#05A2C6;stroke:#05A2C6;stroke-miterlimit:10;}
</style>
<path id="XMLID_422_" class="st0" d="M1454.9,455.1l2.2,2.2l86-86h263v-6.2h-266.4v1l-0.1-0.1l-83.9,83.9
	c-60.8-49.3-134-79.3-212-86.9v4.7c79.6,7.9,152.3,39.5,211,87.6L1454.9,455.1z"/>
<path id="XMLID_423_" class="st0" d="M954.2,1066.5l-2.2-2.2l-86,86H603v6.2h266.4v-1l0.1,0.1l83.9-83.9
	c60.8,49.3,134,79.3,212,86.9v-4.7c-79.6-7.9-152.3-39.5-211-87.6L954.2,1066.5z"/>
<path id="XMLID_424_" class="st1" d="M1720.7,724.7v-6.2H1602c-8.1-77.9-38.7-150.8-88.5-211.3l-3.4,3.4
	c48.1,58.7,79.7,131.4,87.6,211h0.1v3.1H1720.7z"/>
<path id="XMLID_425_" class="st2" d="M1162.3,363.4c-77.9,8.1-150.8,38.7-211.3,88.5l3.4,3.4c58.7-48.1,131.4-79.7,211-87.6v-0.1
	h3.1v-123h-6.2V363.4z"/>
<path id="XMLID_426_" class="st1" d="M893.6,509.7c-49.3,60.8-79.3,134-86.9,212h4.7c7.9-79.6,39.5-152.3,87.6-211l-0.2-0.2l2.2-2.2
	l-86.9-86.9l-1.1,1.1v-2H546.6v6.2h264L893.6,509.7z"/>
<path id="XMLID_427_" class="st1" d="M689.7,799.9v6.2h118.7c8.1,77.9,36.6,148.3,86.4,208.8l4.3-3.9
	c-48.1-58.7-78.5-128.4-86.3-208h-0.1v-3.1H689.7z"/>
<path id="XMLID_428_" class="st1" d="M1598.5,1095l-83-83c49.3-60.8,79.3-134,86.9-212h-4.7c-7.9,79.6-39.5,152.3-87.6,211l0.2,0.2
	l-2.2,2.2l86.9,86.9l0.1-0.1v1h266.4v-6.2H1598.5z"/>
<path id="XMLID_429_" class="st2" d="M1244.1,1156.2c77.9-8.1,150.8-38.7,211.3-88.5l-3.4-3.4c-58.7,48.1-131.4,79.7-211,87.6v0.1
	h-3.1v123h6.2V1156.2z"/>
<rect id="XMLID_431_" x="1543.8" y="290.9" class="st3" width="365.1" height="57.1"/>
<path id="XMLID_432_" class="st1" d="M941.9,542.3l-40.9-34c-85.7,82.7-89.6,213.3-89.6,213.3l53.6,5.2
	C871.7,657,899.5,593.3,941.9,542.3z"/>
<path id="XMLID_433_" class="st1" d="M865.2,794.5l-53.8,5.5c8.2,130,87.6,211,87.6,211l42.2-34.8
	C899.5,925.8,872.2,863.1,865.2,794.5z"/>
<path id="XMLID_434_" class="st0" d="M987,1022l-34.9,42.3c108.1,91.9,213.3,89.6,213.3,89.6l5.4-55.5
	C1101.3,1091.7,1037.9,1064.2,987,1022z"/>
<path id="XMLID_435_" class="st2" d="M1233.3,1098.7l4.6,53.2c0,0,134-5.7,214.1-87.6l-33.2-40.8
	C1367.3,1065.5,1303.3,1092.7,1233.3,1098.7z"/>
<path id="XMLID_436_" class="st1" d="M1542.4,794.3c-7,69.4-34.9,132.6-77.2,183.3l42.8,35.7c0,0,87.1-90.8,89.6-213.3L1542.4,794.3
	z"/>
<path id="XMLID_437_" class="st1" d="M1542.8,729.6l54.9-4.9c0,0-0.7-119-87.6-214.1l-42.2,34.3
	C1509.6,596.3,1536.7,659.9,1542.8,729.6z"/>
<path id="XMLID_438_" class="st0" d="M1422.3,498.8l34.7-41.5c0,0-70.4-77.7-213.3-89.6l-5.4,53.3
	C1308,428.1,1371.5,456.1,1422.3,498.8z"/>
<path id="XMLID_439_" class="st2" d="M1173.2,420.7l-4.8-53c0,0-118.6-0.2-214.1,87.6l33.7,41.1
	C1039.4,454.3,1103.3,426.9,1173.2,420.7z"/>
<text id="XMLID_440_" transform="matrix(1 0 0 1 1107.8237 743.7639)"><tspan x="0" y="0" class="st2 st4 st5">BUILD </tspan><tspan x="-79.5" y="68.6" class="st2 st4 st5">CHECKLIST</tspan></text>
<rect id="XMLID_442_" x="1031.8" y="134.3" class="st3" width="365.1" height="143.1"/>
<text id="XMLID_441_" transform="matrix(1 0 0 1 1031.7749 153.0838)"><tspan x="0" y="0" class="st6 st7 st8">Is the Fan Cap fully fastened </tspan><tspan x="0" y="29.6" class="st6 st7 st8">to the motor.</tspan></text>
<g id="Layer_2_4_" class="st9">
	<path id="XMLID_444_" class="st10" d="M948.9,166.7c0,0,23.5-34,41.1-37.4l1,1.2c0,0-14,12.7-24.3,26.4
		c-10.8,14.3-15.9,29.8-18.9,29.6c-4.1-0.3-9-27.2-16.8-24c-1.6-0.4,2.8-6.9,9.1-5.5C943.9,158,948.9,166.7,948.9,166.7z"/>
</g>
<rect id="XMLID_445_" x="1654.4" y="298" class="st3" width="394.1" height="143.1"/>
<text id="XMLID_443_" transform="matrix(1 0 0 1 1654.3823 316.8043)"><tspan x="0" y="0" class="st6 st7 st8">Is the Belt cover fully fastened to </tspan><tspan x="0" y="29.6" class="st6 st7 st8">the motor mount?</tspan></text>
<g id="Layer_2_1_" class="st9">
	<path id="XMLID_447_" class="st10" d="M1592.1,331.7c0,0,23.5-34,41.1-37.4l1,1.2c0,0-14,12.7-24.3,26.4
		c-10.8,14.3-15.9,29.8-18.9,29.6c-4.1-0.3-9-27.2-16.8-24c-1.6-0.4,2.8-6.9,9.1-5.5C1587.2,323,1592.1,331.7,1592.1,331.7z"/>
</g>
<rect id="XMLID_448_" x="1726.3" y="647.4" class="st3" width="365.1" height="143.1"/>
<text id="XMLID_446_" transform="matrix(1 0 0 1 1726.298 666.218)"><tspan x="0" y="0" class="st6 st7 st8">Test the boards power button </tspan><tspan x="0" y="29.6" class="st6 st7 st8">for proper pressing tension.</tspan></text>
<g id="Layer_2_2_" class="st9">
	<path id="XMLID_450_" class="st10" d="M1664.1,681.1c0,0,23.5-34,41.1-37.4l1,1.2c0,0-14,12.7-24.3,26.4
		c-10.8,14.3-15.9,29.8-18.9,29.6c-4.1-0.3-9-27.2-16.8-24c-1.6-0.4,2.8-6.9,9.1-5.5C1659.1,672.4,1664.1,681.1,1664.1,681.1z"/>
</g>
<rect id="XMLID_451_" x="1698.3" y="1018.3" class="st3" width="418.2" height="143.1"/>
<text id="XMLID_449_" transform="matrix(1 0 0 1 1698.3468 1037.0789)"><tspan x="0" y="0" class="st6 st7 st8">Ensure remote includes all screws, </tspan><tspan x="0" y="29.6" class="st6 st7 st8">the warning sticker, and lanyard. </tspan></text>
<g id="Layer_2_3_" class="st9">
	<path id="XMLID_453_" class="st10" d="M1636.1,1051.9c0,0,23.5-34,41.1-37.4l1,1.2c0,0-14,12.7-24.3,26.4
		c-10.8,14.3-15.9,29.8-18.9,29.7c-4.1-0.3-9-27.2-16.8-24c-1.6-0.4,2.8-6.9,9.1-5.5C1631.2,1043.3,1636.1,1051.9,1636.1,1051.9z"/>
</g>
<rect id="XMLID_454_" x="1043.7" y="1309.4" class="st3" width="365.1" height="143.1"/>
<text id="XMLID_452_" transform="matrix(1 0 0 1 1043.6964 1328.2224)"><tspan x="0" y="0" class="st6 st7 st8">Check the Remote LED for cor</tspan><tspan x="354.3" y="0" class="st6 st7 st8">-</tspan><tspan x="0" y="29.6" class="st6 st7 st8">rect illumination. </tspan></text>
<g id="Layer_2_5_" class="st9">
	<path id="XMLID_456_" class="st10" d="M971.9,1344.3c0,0,23.5-34,41.1-37.4l1,1.2c0,0-14,12.7-24.3,26.4
		c-10.8,14.3-15.9,29.8-18.9,29.7c-4.1-0.3-9-27.2-16.8-24c-1.6-0.4,2.8-6.9,9.1-5.5C966.9,1335.7,971.9,1344.3,971.9,1344.3z"/>
</g>
<rect id="XMLID_457_" x="422.9" y="352.5" class="st3" width="365.1" height="143.1"/>
<text id="XMLID_455_" transform="matrix(1 0 0 1 439.5947 371.2762)"><tspan x="0" y="0" class="st6 st7 st8">Is the Marbel Board preset to </tspan><tspan x="181.1" y="29.6" class="st6 st7 st8">starter mode?</tspan></text>
<g id="Layer_2_6_" class="st9">
	<path id="XMLID_459_" class="st10" d="M392.9,386.1c0,0,23.5-34,41.1-37.4l1,1.2c0,0-14,12.7-24.3,26.4
		c-10.8,14.3-15.9,29.8-18.9,29.6c-4.1-0.3-9-27.2-16.8-24c-1.6-0.4,2.8-6.9,9.1-5.5C388,377.5,392.9,386.1,392.9,386.1z"/>
</g>
<rect id="XMLID_460_" x="398" y="725.8" class="st3" width="365.1" height="143.1"/>
<text id="XMLID_458_" transform="matrix(1 0 0 1 464.8223 744.605)"><tspan x="0" y="0" class="st6 st7 st8">Check that the Remote is </tspan><tspan x="-59.2" y="29.6" class="st6 st7 st8">paired with the Marbel Board.   </tspan></text>
<g id="Layer_2_7_" class="st9">
	<path id="XMLID_462_" class="st10" d="M342.8,757c0,0,23.5-34,41.1-37.4l1,1.2c0,0-14,12.7-24.3,26.4
		c-10.8,14.3-15.9,29.8-18.9,29.7c-4.1-0.3-9-27.2-16.8-24c-1.6-0.4,2.8-6.9,9.1-5.5C337.8,748.3,342.8,757,342.8,757z"/>
</g>
<rect id="XMLID_463_" x="466.2" y="1079" class="st3" width="381.4" height="143.1"/>
<text id="XMLID_461_" transform="matrix(1 0 0 1 520.7697 1097.7549)"><tspan x="0" y="0" class="st6 st7 st8">Tighten both front and rear </tspan><tspan x="-50.9" y="29.6" class="st6 st7 st8">trucks for appropriate stiffness.</tspan></text>
<g id="Layer_2_8_" class="st9">
	<path id="XMLID_465_" class="st10" d="M415.4,1112.6c0,0,23.5-34,41.1-37.4l1,1.2c0,0-14,12.7-24.3,26.4
		c-10.8,14.3-15.9,29.8-18.9,29.7c-4.1-0.3-9-27.2-16.8-24c-1.6-0.4,2.8-6.9,9.1-5.5C410.4,1104,415.4,1112.6,415.4,1112.6z"/>
</g>
<path id="XMLID_464_" class="st0" d="M1437.6,3474.1l2.2,2.2l86-86h263v-6.2h-266.4v1l-0.1-0.1l-83.9,83.9
	c-60.8-49.3-134-79.3-212-86.9v4.7c79.6,7.9,152.3,39.5,211,87.6L1437.6,3474.1z"/>
<path id="XMLID_466_" class="st0" d="M937,4085.4l-2.2-2.2l-86,86h-263v6.2h266.4v-1l0.1,0.1l83.9-83.9c60.8,49.3,134,79.3,212,86.9
	v-4.7c-79.6-7.9-152.3-39.5-211-87.6L937,4085.4z"/>
<path id="XMLID_467_" class="st1" d="M1703.4,3743.7v-6.2h-118.7c-8.1-77.9-38.7-150.8-88.5-211.3l-3.4,3.4
	c48.1,58.7,79.7,131.4,87.6,211h0.1v3.1H1703.4z"/>
<path id="XMLID_468_" class="st2" d="M1145.1,3382.3c-77.9,8.1-150.8,38.7-211.3,88.5l3.4,3.4c58.7-48.1,131.4-79.7,211-87.6v-0.1
	h3.1v-123h-6.2V3382.3z"/>
<path id="XMLID_469_" class="st1" d="M876.4,3528.6c-49.3,60.8-79.3,134-86.9,212h4.7c7.9-79.6,39.5-152.3,87.6-211l-0.2-0.2
	l2.2-2.2l-86.9-86.9l-1.1,1.1v-2H529.4v6.2h264L876.4,3528.6z"/>
<path id="XMLID_470_" class="st1" d="M673.7,3818.3v6.2h118.7c8.1,77.9,36.1,147.7,86,208.2l3.5-2.8
	c-48.1-58.7-77.2-128.9-85.1-208.5h-0.1v-3.1H673.7z"/>
<path id="XMLID_471_" class="st1" d="M1581.2,4113.9l-83-83c49.3-60.8,79.3-134,86.9-212h-4.7c-7.9,79.6-39.5,152.3-87.6,211
	l0.2,0.2l-2.2,2.2l86.9,86.9l0.1-0.1v1h266.4v-6.2H1581.2z"/>
<path id="XMLID_472_" class="st2" d="M1226.9,4175.2c77.9-8.1,150.8-38.7,211.3-88.5l-3.4-3.4c-58.7,48.1-131.4,79.7-211,87.6v0.1
	h-3.1v123h6.2V4175.2z"/>
<rect id="XMLID_474_" x="1526.5" y="3309.8" class="st3" width="365.1" height="57.1"/>
<path id="XMLID_475_" class="st1" d="M924.7,3561.2l-40.9-34c-85.7,82.7-89.6,213.3-89.6,213.3l53.6,5.2
	C854.5,3675.9,882.3,3612.3,924.7,3561.2z"/>
<path id="XMLID_476_" class="st1" d="M848,3813.4l-53.8,5.5c8.2,130,87.6,211,87.6,211l42.2-34.8
	C882.3,3944.7,854.9,3882.1,848,3813.4z"/>
<path id="XMLID_477_" class="st0" d="M969.8,4041l-34.9,42.3c108.1,91.9,213.3,89.6,213.3,89.6l5.4-55.5
	C1084.1,4110.7,1020.7,4083.1,969.8,4041z"/>
<path id="XMLID_478_" class="st2" d="M1216,4117.7l4.6,53.2c0,0,134-5.7,214.1-87.6l-33.2-40.8
	C1350.1,4084.5,1286.1,4111.7,1216,4117.7z"/>
<path id="XMLID_479_" class="st1" d="M1525.2,3813.3c-7,69.4-34.9,132.6-77.2,183.3l42.8,35.7c0,0,87.1-90.8,89.6-213.3
	L1525.2,3813.3z"/>
<path id="XMLID_480_" class="st1" d="M1525.6,3748.5l54.9-4.9c0,0-0.7-119-87.6-214.1l-42.2,34.3
	C1492.4,3615.2,1519.5,3678.9,1525.6,3748.5z"/>
<path id="XMLID_481_" class="st0" d="M1405.1,3517.7l34.7-41.5c0,0-70.4-77.7-213.3-89.6l-5.4,53.3
	C1290.8,3447,1354.2,3475.1,1405.1,3517.7z"/>
<path id="XMLID_482_" class="st2" d="M1156,3439.6l-4.8-53c0,0-118.6-0.2-214.1,87.6l33.7,41.1
	C1022.2,3473.2,1086.1,3445.9,1156,3439.6z"/>
<text id="XMLID_483_" transform="matrix(1 0 0 1 1032.7592 3762.6948)"><tspan x="0" y="0" class="st2 st4 st5">Cosmetic</tspan><tspan x="-21.6" y="68.6" class="st2 st4 st5">CHECKLIST</tspan></text>
<rect id="XMLID_485_" x="1027" y="3170.7" class="st3" width="365.1" height="143.1"/>
<text id="XMLID_484_" transform="matrix(1 0 0 1 1027.0265 3189.4766)"><tspan x="0" y="0" class="st6 st7 st8">Ensure Deck is free of debris </tspan><tspan x="0" y="29.6" class="st6 st7 st8">from the test ride.</tspan></text>
<g id="Layer_2_16_" class="st9">
	<path id="XMLID_487_" class="st10" d="M951.6,3203.1c0,0,23.5-34,41.1-37.4l1,1.2c0,0-14,12.7-24.3,26.4
		c-10.8,14.3-15.9,29.8-18.9,29.6c-4.1-0.3-9-27.2-16.8-24c-1.6-0.4,2.8-6.9,9.1-5.5C946.7,3194.4,951.6,3203.1,951.6,3203.1z"/>
</g>
<rect id="XMLID_488_" x="1637.2" y="3317" class="st3" width="386.7" height="143.1"/>
<text id="XMLID_486_" transform="matrix(1 0 0 1 1637.1586 3335.7314)"><tspan x="0" y="0" class="st6 st7 st8">Make sure all wheels are clea</tspan><tspan x="348.4" y="0" class="st6 st7 st8">-</tspan><tspan x="0" y="29.6" class="st6 st7 st8">ned off and properly tightened</tspan></text>
<g id="Layer_2_15_" class="st9">
	<path id="XMLID_490_" class="st10" d="M1564.9,3350.6c0,0,23.5-34,41.1-37.4l1,1.2c0,0-14,12.7-24.3,26.4
		c-10.8,14.3-15.9,29.8-18.9,29.6c-4.1-0.3-9-27.2-16.8-24c-1.6-0.4,2.8-6.9,9.1-5.5C1560,3341.9,1564.9,3350.6,1564.9,3350.6z"/>
</g>
<rect id="XMLID_491_" x="1709.1" y="3666.4" class="st3" width="404.4" height="143.1"/>
<text id="XMLID_489_" transform="matrix(1 0 0 1 1709.0732 3685.1479)"><tspan x="0" y="0" class="st6 st7 st8">Check to make sure the grip tape </tspan><tspan x="0" y="29.6" class="st6 st7 st8">is applied evenly and secure.</tspan></text>
<g id="Layer_2_14_" class="st9">
	<path id="XMLID_493_" class="st10" d="M1641.8,3700c0,0,23.5-34,41.1-37.4l1,1.2c0,0-14,12.7-24.3,26.4
		c-10.8,14.3-15.9,29.8-18.9,29.6c-4.1-0.3-9-27.2-16.8-24c-1.6-0.4,2.8-6.9,9.1-5.5C1636.9,3691.4,1641.8,3700,1641.8,3700z"/>
</g>
<rect id="XMLID_494_" x="1681.1" y="4047.2" class="st3" width="469.9" height="143.1"/>
<text id="XMLID_492_" transform="matrix(1 0 0 1 1681.1221 4065.9875)"><tspan x="0" y="0" class="st6 st7 st8">Install nose bumper LED cover screen </tspan><tspan x="0" y="29.6" class="st6 st7 st8">and make sure it is fully adhered.</tspan></text>
<g id="Layer_2_13_" class="st9">
	<path id="XMLID_496_" class="st10" d="M1618.9,4080.9c0,0,23.5-34,41.1-37.4l1,1.2c0,0-14,12.7-24.3,26.4
		c-10.8,14.3-15.9,29.8-18.9,29.6c-4.1-0.3-9-27.2-16.8-24c-1.6-0.4,2.8-6.9,9.1-5.5C1613.9,4072.2,1618.9,4080.9,1618.9,4080.9z"/>
</g>
<rect id="XMLID_497_" x="1004" y="4328.4" class="st3" width="365.1" height="143.1"/>
<text id="XMLID_495_" transform="matrix(1 0 0 1 1004.0174 4347.1499)"><tspan x="0" y="0" class="st6 st7 st8">Clean off all debris from the </tspan><tspan x="0" y="29.6" class="st6 st7 st8">nose bumper. </tspan></text>
<g id="Layer_2_12_" class="st9">
	<path id="XMLID_499_" class="st10" d="M942.2,4368.3c10.6-15.3,12.9-32,41.1-37.4l1,1.2c0,0-14,12.7-24.3,26.4
		c-10.8,14.3-15.9,29.8-18.9,29.6c-4.1-0.3-9-27.2-16.8-24c-1.6-0.4,2.8-6.9,9.1-5.5C937.2,4359.6,942.2,4368.3,942.2,4368.3z"/>
</g>
<rect id="XMLID_500_" x="242.7" y="3364.3" class="st3" width="365.1" height="57.1"/>
<rect id="XMLID_502_" x="377.9" y="3371.4" class="st3" width="417.8" height="143.1"/>
<text id="XMLID_501_" transform="matrix(1 0 0 1 414.8476 3390.2056)"><tspan x="0" y="0" class="st6 st7 st8">Apply all warning stickers to the </tspan><tspan x="-35.1" y="29.6" class="st6 st7 st8">Marbel Board and Accessories box.</tspan></text>
<g id="Layer_2_11_" class="st9">
	<path id="XMLID_504_" class="st10" d="M313.3,3405.1c0,0,23.5-34,41.1-37.4l1,1.2c0,0-14,12.7-24.3,26.4
		c-10.8,14.3-15.9,29.8-18.9,29.7c-4.1-0.3-9-27.2-16.8-24c-1.6-0.4,2.8-6.9,9.1-5.5C308.4,3396.4,313.3,3405.1,313.3,3405.1z"/>
</g>
<rect id="XMLID_505_" x="217.7" y="3732.6" class="st3" width="365.1" height="57.1"/>
<rect id="XMLID_507_" x="300.5" y="3754.8" class="st3" width="427.2" height="143.1"/>
<text id="XMLID_506_" transform="matrix(1 0 0 1 307.0324 3773.5403)"><tspan x="0" y="0" class="st6 st7 st8">Ensure all bearings and spacers are </tspan><tspan x="37.2" y="29.6" class="st6 st7 st8">properly installed and tightened </tspan></text>
<g id="Layer_2_10_" class="st9">
	<path id="XMLID_509_" class="st10" d="M233.1,3783.4c0,0,23.5-34,41.1-37.4l1,1.2c0,0-14,12.7-24.3,26.4
		c-10.8,14.3-15.9,29.8-18.9,29.7c-4.1-0.3-9-27.2-16.8-24c-1.6-0.4,2.8-6.9,9.1-5.5C228.1,3774.8,233.1,3783.4,233.1,3783.4z"/>
</g>
<rect id="XMLID_510_" x="308.4" y="4085.8" class="st3" width="365.1" height="57.1"/>
<rect id="XMLID_512_" x="449" y="4100.4" class="st3" width="365.1" height="143.1"/>
<text id="XMLID_511_" transform="matrix(1 0 0 1 481.506 4119.1772)"><tspan x="0" y="0" class="st6 st7 st8">Clean off all debris from the </tspan><tspan x="186.5" y="29.6" class="st6 st7 st8">tail bumper. </tspan></text>
<g id="Layer_2_9_" class="st9">
	<path id="XMLID_514_" class="st10" d="M400.6,4134c0,0,23.5-34,41.1-37.4l1,1.2c0,0-14,12.7-24.3,26.4
		c-10.8,14.3-15.9,29.8-18.9,29.6c-4.1-0.3-9-27.2-16.8-24c-1.6-0.4,2.8-6.9,9.1-5.5C395.7,4125.4,400.6,4134,400.6,4134z"/>
</g>
<rect id="XMLID_515_" x="1528.7" y="1868" class="st3" width="365.1" height="57.1"/>
<line id="XMLID_516_" class="st1" x1="1495" y1="2087.8" x2="1452.8" y2="2122.1"/>
<text id="XMLID_517_" transform="matrix(1 0 0 1 1027.7925 2320.9011)"><tspan x="0" y="0" class="st2 st4 st5">Test ride</tspan><tspan x="-14.6" y="68.6" class="st2 st4 st5">CHECKLIST</tspan></text>
<rect id="XMLID_519_" x="1029.2" y="1726.4" class="st3" width="365.1" height="143.1"/>
<text id="XMLID_518_" transform="matrix(1 0 0 1 1029.1545 1745.1885)"><tspan x="0" y="0" class="st6 st7 st8">Does the drive gear and belt </tspan><tspan x="0" y="29.6" class="st6 st7 st8">have proper tension? </tspan></text>
<g id="Layer_2_24_" class="st9">
	<path id="XMLID_521_" class="st10" d="M951.2,1758.8c0,0,23.5-34,41.1-37.4l1,1.2c0,0-14,12.7-24.3,26.4
		c-10.8,14.3-15.9,29.8-18.9,29.7c-4.1-0.3-9-27.2-16.8-24c-1.6-0.4,2.8-6.9,9.1-5.5C946.3,1750.2,951.2,1758.8,951.2,1758.8z"/>
</g>
<rect id="XMLID_522_" x="1741.4" y="2187.3" class="st3" width="365.1" height="143.1"/>
<text id="XMLID_520_" transform="matrix(1 0 0 1 1741.3937 2206.0933)"><tspan x="0" y="0" class="st6 st7 st8">Are the safety brake features </tspan><tspan x="0" y="29.6" class="st6 st7 st8">operating correctly? </tspan></text>
<g id="Layer_2_22_" class="st9">
	<path id="XMLID_524_" class="st10" d="M1679.2,2221c0,0,23.5-34,41.1-37.4l1,1.2c0,0-14,12.7-24.3,26.4
		c-10.8,14.3-15.9,29.8-18.9,29.7c-4.1-0.3-9-27.2-16.8-24c-1.6-0.4,2.8-6.9,9.1-5.5C1674.2,2212.3,1679.2,2221,1679.2,2221z"/>
</g>
<rect id="XMLID_525_" x="1618.1" y="2638.5" class="st3" width="475.2" height="143.1"/>
<text id="XMLID_523_" transform="matrix(1 0 0 1 1618.105 2657.2441)"><tspan x="0" y="0" class="st6 st7 st8">Did the remote vibrate when connected </tspan><tspan x="0" y="29.6" class="st6 st7 st8">(and disconnected) with the board? </tspan></text>
<g id="Layer_2_21_" class="st9">
	<path id="XMLID_527_" class="st10" d="M1550.9,2672.1c0,0,23.5-34,41.1-37.4l1,1.2c0,0-14,12.7-24.3,26.4
		c-10.8,14.3-15.9,29.8-18.9,29.7c-4.1-0.3-9-27.2-16.8-24c-1.6-0.4,2.8-6.9,9.1-5.5C1545.9,2663.5,1550.9,2672.1,1550.9,2672.1z"/>
</g>
<g id="XMLID_526_">
	<g id="XMLID_528_">
		<rect id="XMLID_617_" x="433" y="2607.4" class="st3" width="365.1" height="143.1"/>
		<text id="XMLID_616_" transform="matrix(1 0 0 1 504.1842 2626.125)"><tspan x="0" y="0" class="st6 st7 st8">Can you reach top speed </tspan><tspan x="7.3" y="29.6" class="st6 st7 st8">when fully accelerating?</tspan></text>
	</g>
	<g id="Layer_2_20_" class="st9">
		<path id="XMLID_531_" class="st10" d="M424.7,2642.2c0,0,23.5-34,41.1-37.4l1,1.2c0,0-14,12.7-24.3,26.4
			c-10.8,14.3-15.9,29.8-18.9,29.6c-4.1-0.3-9-27.2-16.8-24c-1.6-0.4,2.8-6.9,9.1-5.5C419.8,2633.6,424.7,2642.2,424.7,2642.2z"/>
	</g>
</g>
<rect id="XMLID_532_" x="244.8" y="1922.5" class="st3" width="365.1" height="57.1"/>
<rect id="XMLID_534_" x="349.8" y="1957.1" class="st3" width="442.6" height="143.1"/>
<text id="XMLID_533_" transform="matrix(1 0 0 1 382.2705 1975.8571)"><tspan x="0" y="0" class="st6 st7 st8">How does the board handle  vibra</tspan><tspan x="402.2" y="0" class="st6 st7 st8">-</tspan><tspan x="70.1" y="29.6" class="st6 st7 st8">tions from alternate terrain?  </tspan></text>
<g id="Layer_2_19_" class="st9">
	<path id="XMLID_536_" class="st10" d="M293,1990.7c0,0,23.5-34,41.1-37.4l1,1.2c0,0-14,12.7-24.3,26.4
		c-10.8,14.3-15.9,29.8-18.9,29.7c-4.1-0.3-9-27.2-16.8-24c-1.6-0.4,2.8-6.9,9.1-5.5C288,1982.1,293,1990.7,293,1990.7z"/>
</g>
<rect id="XMLID_537_" x="219.9" y="2290.8" class="st3" width="365.1" height="57.1"/>
<g id="XMLID_538_">
	<path id="XMLID_539_" class="st11" d="M969.1,2044.2c51.2-41,113.4-68.8,181.5-78.1"/>
	<path id="XMLID_540_" class="st12" d="M900.8,2555.2c-45.1-61.6-71.7-137.6-71.7-219.8c0-96.2,36.4-183.8,96.2-250"/>
	<path id="XMLID_541_" class="st11" d="M1366.1,2670.1c-49.5,24.3-105.3,38-164.2,38c-94.4,0-180.6-35.1-246.3-93"/>
	<path id="XMLID_542_" class="st12" d="M1573.2,2369.1c-10.4,116-73.9,216.6-166,277.5"/>
	<path id="XMLID_543_" class="st13" d="M1201.9,1962.6c185.8,0,339.9,136,368.1,313.8"/>
</g>
<path id="XMLID_544_" class="st1" d="M1138.6,1930c-77.5,11-134.8,32.2-193.4,84.2l2.9,3.7c59.2-46.5,116.6-69.4,193.7-83.7l0-0.1
	l4.1-1.4l-5.6-121.6l-6.2,0.2L1138.6,1930z"/>
<g id="XMLID_545_">
	<rect id="XMLID_546_" x="597.9" y="2027.1" class="st14" width="264.8" height="5"/>
	
		<rect id="XMLID_547_" x="845.1" y="2066.7" transform="matrix(0.736 0.6769 -0.6769 0.736 1639.4973 -66.211)" class="st14" width="119.2" height="5"/>
</g>
<g id="XMLID_548_">
	<rect id="XMLID_549_" x="1455.1" y="2712.7" class="st2" width="264.8" height="5"/>
	
		<rect id="XMLID_550_" x="1364.7" y="2664.5" transform="matrix(-0.5608 -0.8279 0.8279 -0.5608 14.9202 5341.9038)" class="st2" width="119.2" height="5"/>
</g>
<g id="XMLID_551_">
	<rect id="XMLID_552_" x="1651.3" y="2257.3" class="st0" width="264.8" height="5"/>
</g>
<rect id="XMLID_553_" x="1536.2" y="2267" transform="matrix(0.9867 -0.1625 0.1625 0.9867 -347.6629 289.5646)" class="st0" width="119.2" height="5"/>
<g id="XMLID_554_">
	
		<rect id="XMLID_555_" x="880.7" y="2633.9" transform="matrix(0.6623 -0.7492 0.7492 0.6623 -1657.7316 1594.7948)" class="st15" width="119.2" height="5"/>
</g>
<rect id="XMLID_556_" x="637.8" y="2680.2" class="st15" width="264.8" height="5"/>
<g id="XMLID_557_">
	<g id="XMLID_634_">
		<path id="XMLID_640_" class="st2" d="M1112.3,4572.5h-0.9c-0.2,0-0.8,0-1.6-1.2c-0.1-0.1-0.3-0.5-0.3-1.5V4554v-1.9l-1.4,1.4
			l-1.6,1.6c-4.1,4.2-5.2,5.2-5.5,5.4c-0.4,0.3-0.8,0.4-1.2,0.4c-1,0-2.2-0.8-3.6-2.3c-3.9-3.9-5-4.8-5.1-4.9l-1.3-1v1.6v16
			c0,1-0.3,1.7-1.9,2.2h-0.8c-0.2,0-0.9,0-1.6-1.3c-0.1-0.3-0.2-0.5-0.2-0.7v-24.4c0-0.3,0-1.1,1.5-1.8c0.3-0.1,0.5-0.1,0.5-0.1h0.6
			c0.2,0,1.1,0.2,2.7,2.1l0.3,0.3l0.2,0.3h0.1c0.7,0.7,2.6,2.6,7.2,7.2l0.6,0.7l0.6,0.6l0.6-0.6l0.6-0.7c7.2-7.3,9.2-9.2,9.7-9.7
			c0.5-0.2,0.8-0.3,0.9-0.3h0.6c0.7,0,1.3,0.4,1.8,1.3c0.1,0.3,0.1,0.5,0.1,0.5l0,24.7c0,0.2,0,0.8-1.3,1.6
			C1112.5,4572.5,1112.4,4572.5,1112.3,4572.5L1112.3,4572.5z"/>
		<path id="XMLID_639_" class="st2" d="M1146.5,4572.5h-0.6c-1.1,0-1.9-1.6-2.4-3l0,0l0,0c-7.8-15.4-8.7-17.2-8.7-17.2l-0.8-1.4
			l-0.7,1.5l-0.8,1.7c-6.9,13.8-8.7,17.3-9,17.9c-0.5,0.5-1,0.7-1.4,0.7h-0.6c-0.6,0-1.2-0.4-1.7-1.3c-0.1-0.4-0.1-0.6-0.1-0.6v-0.4
			c0-0.1,0.2-0.9,2.1-4.4l10.5-20.8c0.6-0.7,1.1-0.8,1.5-0.8h0.7c1.1,0,1.9,1.6,2.4,2.9l0,0l0,0c6.6,13.1,10.7,21.1,11.5,22.8v0.8
			c0,0.2,0,0.9-1.4,1.6C1146.6,4572.5,1146.5,4572.5,1146.5,4572.5L1146.5,4572.5z"/>
		<path id="XMLID_638_" class="st2" d="M1249.8,4572.5h-25c-0.2,0-1,0-1.7-1.4c-0.1-0.3-0.1-0.4-0.1-0.5v-24.4c0-0.4,0-1.2,1.6-1.9
			c0.2-0.1,0.3-0.1,0.4-0.1h24.7c0.7,0,1.3,0.4,1.8,1.3c0.1,0.4,0.1,0.5,0.1,0.5l0,0.9c0,0.2,0,0.9-1.3,1.6
			c-0.3,0.1-0.6,0.2-0.8,0.2h-21.1h-0.8v0.8v5.9v0.8h0.8h16.5c1.6,0,2.2,0.7,2.5,1.3c0.2,0.3,0.2,0.5,0.2,0.6v0.6
			c0,0.4,0,1.2-1.6,1.9c-0.2,0-0.3,0.1-0.4,0.1h-17.2h-0.8v0.8v5.9v0.8h0.8h20.7c1.5,0,2.2,0.5,2.6,1.8v1c0,0.2,0,0.8-1.3,1.6
			C1249.9,4572.5,1249.8,4572.5,1249.8,4572.5L1249.8,4572.5z"/>
		<path id="XMLID_637_" class="st2" d="M1284,4572.5h-25c-0.3,0-1,0-1.7-1.4c-0.1-0.3-0.1-0.4-0.1-0.5v-24.4c0-0.4,0-1.2,1.6-1.9
			c0.2-0.1,0.3-0.1,0.4-0.1h0.6c0.2,0,1,0,1.8,1.3c0.1,0.2,0.2,0.5,0.2,0.9v20.7v0.8h0.8h20.7c1.5,0,2.2,0.5,2.6,1.8v1
			c0,0.2,0,0.8-1.3,1.6C1284.2,4572.5,1284,4572.5,1284,4572.5L1284,4572.5z"/>
		<path id="XMLID_636_" class="st2" d="M1180.2,4572.5h-0.9c0,0-0.8,0-2.9-2.3l0,0l0,0c-0.5-0.4-3.9-3.5-9.9-9.1l-0.3-0.2l-0.2-0.2
			h-0.3h-6.3h-0.8v0.8v9c0,0.7-0.2,1.5-1.7,2.1c-0.1,0-0.1,0-0.1,0h-0.9c-0.2,0-1,0-1.7-1.4c-0.1-0.3-0.1-0.4-0.1-0.5v-13.7h5h14.1
			c2.4,0,4.4-2.1,4.4-4.6c0-2.5-2-4.6-4.4-4.6H1159h-5v-1.5c0-0.4,0-1.2,1.6-1.9c0.2,0,0.3-0.1,0.4-0.1h18.9c2.2,0,4.2,1,6.1,3.1
			c1.1,1.6,1.7,3.1,1.7,4.4v1.3c0,2.1-1,4-3.1,5.8c-1.7,1.1-2.7,1.4-3.1,1.5l0,0l0,0l-0.7,0.2l-1,0.1l-1.7,0.2l1.2,1.2l1.4,1.3l0,0
			l0,0c2.9,2.6,5.2,4.7,6.2,5.7c0.3,0.5,0.4,0.9,0.4,1.2c0,0.7-0.2,1.4-1.5,2.1C1180.3,4572.4,1180.2,4572.5,1180.2,4572.5
			L1180.2,4572.5z"/>
		<path id="XMLID_635_" class="st2" d="M1209,4572.5h-18.9c-0.1,0-0.2,0-0.4-0.1c-1.6-0.7-1.6-1.5-1.6-1.8v-2.2h5h14.1
			c1.1,0,2.1-0.4,2.9-1.1c1-0.8,1.5-1.9,1.5-3.1c0-1.4-0.7-2.6-1.9-3.4c-0.7-0.5-1.6-0.8-2.5-0.8h-14.1l-4.9,0l0-3.9l4.9,0h12.3
			c0.9,0,1.8-0.2,2.5-0.7c1.2-0.7,1.9-1.9,1.9-3.2c0-1.1-0.6-2.2-1.5-3c-0.8-0.6-1.8-1-2.9-1h-12.3h-5v-2.1c0-0.4,0-1.2,1.6-1.8
			c0.2,0,0.2-0.1,0.3-0.1h17.1c2.2,0,4.2,1,6.1,3c1.1,1.6,1.7,3,1.7,4.3v1.3c0,1.5-0.5,2.8-1.6,4.2l-0.6,0.7l0.8,0.5l0.2,0.1
			c2.1,1.8,3.1,3.7,3.1,5.7v1.3c0,1.3-0.6,2.7-1.7,4.3C1213.2,4571.5,1211.2,4572.5,1209,4572.5L1209,4572.5z"/>
	</g>
</g>
</svg>
