<?xml version="1.0" encoding="utf-8"?>
<!-- Generator: Adobe Illustrator 19.0.0, SVG Export Plug-In . SVG Version: 6.00 Build 0)  -->
<svg version="1.1" id="Layer_1" xmlns="http://www.w3.org/2000/svg" xmlns:xlink="http://www.w3.org/1999/xlink" x="0px" y="0px"
	 viewBox="6 524.4 1931.1 1452.6" style="enable-background:new 6 524.4 1931.1 1452.6;" xml:space="preserve">
<style type="text/css">
	.st0{fill:#027FA0;}
	.st1{fill:#05A2C6;}
	.st2{fill:#00AEEF;}
	.st3{fill:none;}
	.st4{enable-background:new    ;}
	.st5{fill:#A8A8A9;}
	.st6{opacity:0.39;}
	.st7{fill:#99B7A6;}
	.st8{font-family:'OpenSans-Semibold';}
	.st9{font-size:24.7021px;}
	.st10{fill:none;stroke:#05A2C6;stroke-width:68;stroke-miterlimit:10;}
	.st11{fill:none;stroke:#00AEEF;stroke-width:68;stroke-miterlimit:10;}
	.st12{fill:none;stroke:#027FA0;stroke-width:68;stroke-miterlimit:10;}
	.st13{fill:#00AEEF;stroke:#00AEEF;stroke-miterlimit:10;}
	.st14{fill:#05A2C6;stroke:#05A2C6;stroke-miterlimit:10;}
</style>
<path id="XMLID_422_" class="st0" d="M1241-2162.3l2.2,2.2l86-86h263v-6.2h-266.4v1l-0.1-0.1l-83.9,83.9
	c-60.8-49.3-134-79.3-212-86.9v4.7c79.6,7.9,152.3,39.5,211,87.6L1241-2162.3z"/>
<path id="XMLID_423_" class="st0" d="M740.4-1550.9l-2.2-2.2l-86,86h-263v6.2h266.4v-1l0.1,0.1l83.9-83.9
	c60.8,49.3,134,79.3,212,86.9v-4.7c-79.6-7.9-152.3-39.5-211-87.6L740.4-1550.9z"/>
<path id="XMLID_424_" class="st1" d="M1506.8-1892.7v-6.2h-118.7c-8.1-77.9-38.7-150.8-88.5-211.3l-3.4,3.4
	c48.1,58.7,79.7,131.4,87.6,211h0.1v3.1H1506.8z"/>
<path id="XMLID_425_" class="st2" d="M948.4-2254.1c-77.9,8.1-150.8,38.7-211.3,88.5l3.4,3.4c58.7-48.1,131.4-79.7,211-87.6v-0.1
	h3.1v-123h-6.2V-2254.1z"/>
<path id="XMLID_426_" class="st1" d="M679.8-2107.8c-49.3,60.8-79.3,134-86.9,212h4.7c7.9-79.6,39.5-152.3,87.6-211l-0.2-0.2
	l2.2-2.2l-86.9-86.9l-1.1,1.1v-2H332.7v6.2h264L679.8-2107.8z"/>
<path id="XMLID_427_" class="st1" d="M475.8-1817.6v6.2h118.7c8.1,77.9,36.6,148.3,86.4,208.8l4.3-3.9
	c-48.1-58.7-78.5-128.4-86.3-208h-0.1v-3.1H475.8z"/>
<path id="XMLID_428_" class="st1" d="M1384.6-1522.5l-83-83c49.3-60.8,79.3-134,86.9-212h-4.7c-7.9,79.6-39.5,152.3-87.6,211
	l0.2,0.2l-2.2,2.2l86.9,86.9l0.1-0.1v1h266.4v-6.2L1384.6-1522.5L1384.6-1522.5z"/>
<path id="XMLID_429_" class="st2" d="M1030.2-1461.2c77.9-8.1,150.8-38.7,211.3-88.5l-3.4-3.4c-58.7,48.1-131.4,79.7-211,87.6v0.1
	h-3.1v123h6.2V-1461.2z"/>
<rect id="XMLID_431_" x="1329.9" y="-2326.6" class="st3" width="365.1" height="57.1"/>
<path id="XMLID_432_" class="st1" d="M728-2075.2l-40.9-34c-85.7,82.7-89.6,213.3-89.6,213.3l53.6,5.2
	C657.8-1960.4,685.6-2024.1,728-2075.2z"/>
<path id="XMLID_433_" class="st1" d="M651.3-1823l-53.8,5.5c8.2,130,87.6,211,87.6,211l42.2-34.8
	C685.7-1691.7,658.3-1754.3,651.3-1823z"/>
<path id="XMLID_434_" class="st0" d="M773.1-1595.4l-34.9,42.3c108.1,91.9,213.3,89.6,213.3,89.6l5.4-55.5
	C887.4-1525.7,824-1553.3,773.1-1595.4z"/>
<path id="XMLID_435_" class="st2" d="M1019.4-1518.7l4.6,53.2c0,0,134-5.7,214.1-87.6l-33.2-40.8
	C1153.4-1551.9,1089.4-1524.7,1019.4-1518.7z"/>
<path id="XMLID_436_" class="st1" d="M1328.5-1823.1c-7,69.4-34.9,132.6-77.2,183.3l42.8,35.7c0,0,87.1-90.8,89.6-213.3
	L1328.5-1823.1z"/>
<path id="XMLID_437_" class="st1" d="M1328.9-1887.8l54.9-4.9c0,0-0.7-119-87.6-214.1l-42.2,34.3
	C1295.7-2021.2,1322.8-1957.5,1328.9-1887.8z"/>
<path id="XMLID_438_" class="st0" d="M1208.4-2118.7l34.7-41.5c0,0-70.4-77.7-213.3-89.6l-5.4,53.3
	C1094.1-2189.4,1157.6-2161.3,1208.4-2118.7z"/>
<path id="XMLID_439_" class="st2" d="M959.4-2196.8l-4.8-53c0,0-118.6-0.2-214.1,87.6l33.7,41.1
	C825.5-2163.2,889.4-2190.5,959.4-2196.8z"/>
<text transform="matrix(1 0 0 1 893.9503 -1873.6908)" class="st2" style="font-family:'Zian'; font-size:57.199px;">BUILD </text>
<text transform="matrix(1 0 0 1 814.4503 -1805.0912)" class="st2" style="font-family:'Zian'; font-size:57.199px;">CHECKLIST</text>
<rect id="XMLID_442_" x="817.9" y="-2483.1" class="st3" width="365.1" height="143.1"/>
<text transform="matrix(1 0 0 1 817.9014 -2464.3711)" class="st5 st8 st9">Is the Fan Cap fully fastened </text>
<text transform="matrix(1 0 0 1 817.9014 -2434.771)" class="st5 st8 st9">to the motor.</text>
<g id="Layer_2_4_" class="st6">
	<path id="XMLID_444_" class="st7" d="M735-2450.8c0,0,23.5-34,41.1-37.4l1,1.2c0,0-14,12.7-24.3,26.4
		c-10.8,14.3-15.9,29.8-18.9,29.7c-4.1-0.3-9-27.2-16.8-24c-1.6-0.4,2.8-6.9,9.1-5.5C730.1-2459.4,735-2450.8,735-2450.8z"/>
</g>
<rect id="XMLID_445_" x="1440.5" y="-2319.4" class="st3" width="394.1" height="143.1"/>
<text transform="matrix(1 0 0 1 1440.5088 -2300.6509)" class="st5 st8 st9">Is the Belt cover fully fastened to </text>
<text transform="matrix(1 0 0 1 1440.5088 -2271.0508)" class="st5 st8 st9">the motor mount?</text>
<g id="Layer_2_1_" class="st6">
	<path id="XMLID_447_" class="st7" d="M1378.3-2285.8c0,0,23.5-34,41.1-37.4l1,1.2c0,0-14,12.7-24.3,26.4
		c-10.8,14.3-15.9,29.8-18.9,29.6c-4.1-0.3-9-27.2-16.8-24c-1.6-0.4,2.8-6.9,9.1-5.5C1373.3-2294.4,1378.3-2285.8,1378.3-2285.8z"/>
</g>
<rect id="XMLID_448_" x="1512.4" y="-1970" class="st3" width="365.1" height="143.1"/>
<text transform="matrix(1 0 0 1 1512.4244 -1951.2367)" class="st5 st8 st9">Test the boards power button </text>
<text transform="matrix(1 0 0 1 1512.4244 -1921.6366)" class="st5 st8 st9">for proper pressing tension.</text>
<g id="Layer_2_2_" class="st6">
	<path id="XMLID_450_" class="st7" d="M1450.2-1936.4c0,0,23.5-34,41.1-37.4l1,1.2c0,0-14,12.7-24.3,26.4
		c-10.8,14.3-15.9,29.8-18.9,29.6c-4.1-0.3-9-27.2-16.8-24c-1.6-0.4,2.8-6.9,9.1-5.5C1445.2-1945,1450.2-1936.4,1450.2-1936.4z"/>
</g>
<rect id="XMLID_451_" x="1484.5" y="-1599.1" class="st3" width="418.2" height="143.1"/>
<text transform="matrix(1 0 0 1 1484.4733 -1580.3763)" class="st5 st8 st9">Ensure remote includes all screws, </text>
<text transform="matrix(1 0 0 1 1484.4733 -1550.7762)" class="st5 st8 st9">the warning sticker, and lanyard. </text>
<g id="Layer_2_3_" class="st6">
	<path id="XMLID_453_" class="st7" d="M1422.2-1565.5c0,0,23.5-34,41.1-37.4l1,1.2c0,0-14,12.7-24.3,26.4
		c-10.8,14.3-15.9,29.8-18.9,29.6c-4.1-0.3-9-27.2-16.8-24c-1.6-0.4,2.8-6.9,9.1-5.5C1417.3-1574.2,1422.2-1565.5,1422.2-1565.5z"/>
</g>
<rect id="XMLID_454_" x="829.8" y="-1308" class="st3" width="365.1" height="143.1"/>
<text transform="matrix(1 0 0 1 829.8229 -1289.2323)" class="st5 st8 st9">Check the Remote LED for cor</text>
<text transform="matrix(1 0 0 1 1184.1228 -1289.2323)" class="st5 st8 st9">-</text>
<text transform="matrix(1 0 0 1 829.8229 -1259.6322)" class="st5 st8 st9">rect illumination. </text>
<g id="Layer_2_5_" class="st6">
	<path id="XMLID_456_" class="st7" d="M758-1273.1c0,0,23.5-34,41.1-37.4l1,1.2c0,0-14,12.7-24.3,26.4
		c-10.8,14.3-15.9,29.8-18.9,29.7c-4.1-0.3-9-27.2-16.8-24c-1.6-0.4,2.8-6.9,9.1-5.5C753.1-1281.8,758-1273.1,758-1273.1z"/>
</g>
<rect id="XMLID_457_" x="209" y="-2265" class="st3" width="365.1" height="143.1"/>
<text transform="matrix(1 0 0 1 225.7212 -2246.1787)" class="st5 st8 st9">Is the Marbel Board preset to </text>
<text transform="matrix(1 0 0 1 406.8212 -2216.5786)" class="st5 st8 st9">starter mode?</text>
<g id="Layer_2_6_" class="st6">
	<path id="XMLID_459_" class="st7" d="M179-2231.3c0,0,23.5-34,41.1-37.4l1,1.2c0,0-14,12.7-24.3,26.4
		c-10.8,14.3-15.9,29.8-18.9,29.7c-4.1-0.3-9-27.2-16.8-24c-1.6-0.4,2.8-6.9,9.1-5.5C174.1-2240,179-2231.3,179-2231.3z"/>
</g>
<rect id="XMLID_460_" x="184.1" y="-1891.6" class="st3" width="365.1" height="143.1"/>
<text transform="matrix(1 0 0 1 250.9487 -1872.85)" class="st5 st8 st9">Check that the Remote is </text>
<text transform="matrix(1 0 0 1 191.7487 -1843.2499)" class="st5 st8 st9">paired with the Marbel Board.   </text>
<g id="Layer_2_7_" class="st6">
	<path id="XMLID_462_" class="st7" d="M128.9-1860.5c0,0,23.5-34,41.1-37.4l1,1.2c0,0-14,12.7-24.3,26.4
		c-10.8,14.3-15.9,29.8-18.9,29.7c-4.1-0.3-9-27.2-16.8-24c-1.6-0.4,2.8-6.9,9.1-5.5C123.9-1869.1,128.9-1860.5,128.9-1860.5z"/>
</g>
<rect id="XMLID_463_" x="252.3" y="-1538.5" class="st3" width="381.4" height="143.1"/>
<text transform="matrix(1 0 0 1 306.8962 -1519.7001)" class="st5 st8 st9">Tighten both front and rear </text>
<text transform="matrix(1 0 0 1 255.9962 -1490.1)" class="st5 st8 st9">trucks for appropriate stiffness.</text>
<g id="Layer_2_8_" class="st6">
	<path id="XMLID_465_" class="st7" d="M201.5-1504.8c0,0,23.5-34,41.1-37.4l1,1.2c0,0-14,12.7-24.3,26.4
		c-10.8,14.3-15.9,29.8-18.9,29.6c-4.1-0.3-9-27.2-16.8-24c-1.6-0.4,2.8-6.9,9.1-5.5C196.6-1513.5,201.5-1504.8,201.5-1504.8z"/>
</g>
<path id="XMLID_464_" class="st0" d="M1223.8,856.6l2.2,2.2l86-86h263v-6.2h-266.4v1l-0.1-0.1l-83.9,83.9
	c-60.8-49.3-134-79.3-212-86.9v4.7c79.6,7.9,152.3,39.5,211,87.6L1223.8,856.6z"/>
<path id="XMLID_466_" class="st0" d="M723.1,1468l-2.2-2.2l-86,86h-263v6.2h266.4v-1l0.1,0.1l83.9-83.9c60.8,49.3,134,79.3,212,86.9
	v-4.7c-79.6-7.9-152.3-39.5-211-87.6L723.1,1468z"/>
<path id="XMLID_467_" class="st1" d="M1489.6,1126.2v-6.2h-118.7c-8.1-77.9-38.7-150.8-88.5-211.3l-3.4,3.4
	c48.1,58.7,79.7,131.4,87.6,211h0.1v3.1H1489.6L1489.6,1126.2z"/>
<path id="XMLID_468_" class="st2" d="M931.2,764.9c-77.9,8.1-150.8,38.7-211.3,88.5l3.4,3.4c58.7-48.1,131.4-79.7,211-87.6v-0.1h3.1
	v-123h-6.2V764.9z"/>
<path id="XMLID_469_" class="st1" d="M662.5,911.1c-49.3,60.8-79.3,134-86.9,212h4.7c7.9-79.6,39.5-152.3,87.6-211l-0.2-0.2l2.2-2.2
	L583,822.9l-1.1,1.1v-2H315.5v6.2h264L662.5,911.1z"/>
<path id="XMLID_470_" class="st1" d="M459.8,1200.9v6.2h118.7c8.1,77.9,36.1,147.7,86,208.2l3.5-2.8
	c-48.1-58.7-77.2-128.9-85.1-208.5h-0.1v-3.1L459.8,1200.9L459.8,1200.9z"/>
<path id="XMLID_471_" class="st1" d="M1367.4,1496.5l-83-83c49.3-60.8,79.3-134,86.9-212h-4.7c-7.9,79.6-39.5,152.3-87.6,211
	l0.2,0.2l-2.2,2.2l86.9,86.9l0.1-0.1v1h266.4v-6.2H1367.4L1367.4,1496.5z"/>
<path id="XMLID_472_" class="st2" d="M1013,1557.7c77.9-8.1,150.8-38.7,211.3-88.5l-3.4-3.4c-58.7,48.1-131.4,79.7-211,87.6v0.1
	h-3.1v123h6.2L1013,1557.7L1013,1557.7z"/>
<rect id="XMLID_474_" x="1312.7" y="692.3" class="st3" width="365.1" height="57.1"/>
<path id="XMLID_475_" class="st1" d="M710.8,943.7l-40.9-34c-85.7,82.7-89.6,213.3-89.6,213.3l53.6,5.2
	C640.6,1058.5,668.4,994.8,710.8,943.7z"/>
<path id="XMLID_476_" class="st1" d="M634.1,1195.9l-53.8,5.5c8.2,130,87.6,211,87.6,211l42.2-34.8
	C668.4,1327.2,641.1,1264.6,634.1,1195.9z"/>
<path id="XMLID_477_" class="st0" d="M755.9,1423.5l-34.9,42.3c108.1,91.9,213.3,89.6,213.3,89.6l5.4-55.5
	C870.2,1493.2,806.8,1465.6,755.9,1423.5z"/>
<path id="XMLID_478_" class="st2" d="M1002.2,1500.2l4.6,53.2c0,0,134-5.7,214.1-87.6l-33.2-40.8
	C1136.2,1467,1072.2,1494.2,1002.2,1500.2z"/>
<path id="XMLID_479_" class="st1" d="M1311.3,1195.8c-7,69.4-34.9,132.6-77.2,183.3l42.8,35.7c0,0,87.1-90.8,89.6-213.3
	L1311.3,1195.8z"/>
<path id="XMLID_480_" class="st1" d="M1311.7,1131.1l54.9-4.9c0,0-0.7-119-87.6-214.1l-42.2,34.3
	C1278.5,997.7,1305.6,1061.4,1311.7,1131.1z"/>
<path id="XMLID_481_" class="st0" d="M1191.2,900.2l34.7-41.5c0,0-70.4-77.7-213.3-89.6l-5.4,53.3
	C1076.9,829.5,1140.4,857.6,1191.2,900.2z"/>
<path id="XMLID_482_" class="st2" d="M942.1,822.2l-4.8-53c0,0-118.6-0.2-214.1,87.6l33.7,41.1C808.3,855.8,872.2,828.4,942.1,822.2
	z"/>
<g class="st4">
	<path class="st2" d="M838.8,1105.2h16c1.7,0,3.1,1,4.2,3c0.2,0.6,0.3,1.1,0.3,1.4v1.1c0,1.6-1,2.9-3,4c-0.7,0.3-1.3,0.4-1.8,0.4
		h-13.5c-5.3,0-9.2,2.2-11.5,6.7c-0.4,1.2-0.6,2.4-0.6,3.5c0,3.6,2.1,6.5,6.2,8.7c1.8,0.8,3.6,1.2,5.3,1.2H854
		c2.6,0,4.4,1.2,5.3,3.7l0.1,0.8v1.1c0,1.5-1,2.9-2.9,3.9c-0.5,0.3-1,0.4-1.5,0.4h-16.7c-4.4,0-8.7-1.8-12.9-5.3
		c-2.4-2.4-3.9-4.4-4.4-5.8c-1.4-2.8-2.2-5.6-2.2-8.2v-1.5c0-4.8,2-9.3,6-13.5C829.1,1107.1,833.8,1105.2,838.8,1105.2z"/>
	<path class="st2" d="M876.1,1105.2h12.5c4.6,0,8.6,1.6,11.9,4.8c1.4,1.8,2.2,3.4,2.2,4.8v20.8c0,2-1.3,4.2-3.9,6.4
		c-3.2,2.2-6.7,3.2-10.4,3.2h-11.7c-4.5,0-8.4-1.4-11.6-4.2c-1.9-1.9-2.9-3.9-2.9-5.8v-20.1c0-3.3,2.3-6.1,6.8-8.4
		C871.6,1105.7,874,1105.2,876.1,1105.2z M871.9,1115.1v20.2H893v-20.2H871.9z"/>
	<path class="st2" d="M919.4,1105.2h22c2,0,3.6,1.1,4.5,3.3c0.1,0.3,0.1,0.5,0.1,0.7v1.5c0,1.6-1,2.9-3,4c-0.8,0.3-1.4,0.4-1.9,0.4
		h-25.5v5h15.2c6.2,0,10.8,1.9,13.8,5.8c0.9,1.5,1.4,2.7,1.4,3.7v6c0,2.3-1.6,4.6-4.7,6.9c-3,1.8-5.9,2.7-8.8,2.7h-22.6
		c-1.5,0-2.9-0.9-4-2.6c-0.3-0.6-0.4-1.1-0.4-1.5v-1.1c0-2,1.2-3.5,3.6-4.5c0.5-0.2,1.2-0.3,1.8-0.3h25.1v-5h-16.1
		c-4.5,0-8.3-1.4-11.5-4.2c-1.9-1.9-2.9-3.9-2.9-5.8v-5.1c0-3.3,2.3-6.1,6.8-8.4C914.9,1105.7,917.2,1105.2,919.4,1105.2z"/>
	<path class="st2" d="M953.4,1105.2h0.7c1.5,0,3.2,1.2,5.1,3.5c0.1,0,3.3,3.3,9.8,9.8c8.3-8.4,12.5-12.6,12.6-12.6
		c0.9-0.4,1.7-0.6,2.3-0.6h0.7c1.7,0,3.1,1,4.2,3c0.2,0.6,0.3,1.1,0.3,1.4v31.3c0,1.5-1,2.9-2.9,3.9c-0.5,0.3-1,0.4-1.5,0.4h-1.1
		c-1.5,0-2.7-0.8-3.8-2.5c-0.5-0.7-0.7-1.7-0.7-3.1v-17.2c-4.7,4.7-7.1,7.1-7.2,7.1c-0.9,0.6-1.9,0.9-3,0.9c-1.8,0-3.6-1.2-5.6-3.5
		c-3-3.1-4.6-4.6-4.6-4.6v17.9c0,2.4-1.3,4.1-3.9,4.9c-0.1,0.1-0.3,0.1-0.6,0.1h-1.1c-1.6,0-2.9-0.9-4-2.8c-0.3-0.7-0.5-1.3-0.5-1.9
		v-30.8c0-1.9,1.2-3.4,3.5-4.4C952.8,1105.2,953.2,1105.2,953.4,1105.2z"/>
	<path class="st2" d="M996.7,1105.2h31.3c1.7,0,3.1,1,4.2,3c0.2,0.6,0.3,1.1,0.3,1.4v1.1c0,1.6-1,2.9-3,4c-0.7,0.3-1.3,0.4-1.8,0.4
		h-25.6v5.1h19.8c2.5,0,4.2,1,5.1,3c0.3,0.6,0.4,1.1,0.4,1.6v0.7c0,2-1.2,3.5-3.6,4.5c-0.4,0.1-0.8,0.2-1.1,0.2h-20.6v5.1h25
		c2.9,0,4.7,1.4,5.4,4.3v1.3c0,1.5-1,2.9-2.9,3.9c-0.5,0.3-1,0.4-1.5,0.4h-31.6c-1.7,0-3.1-1-4.2-3.1c-0.2-0.5-0.3-1-0.3-1.4v-30.9
		c0-2,1.2-3.5,3.6-4.5C996,1105.2,996.4,1105.2,996.7,1105.2z"/>
	<path class="st2" d="M1040,1105.2h31.3c1.7,0,3.1,1,4.2,3c0.2,0.6,0.3,1.1,0.3,1.4v1.1c0,1.6-1,2.9-3,4c-0.7,0.3-1.3,0.4-1.8,0.4
		h-10.4v25.4c0,2.1-1.2,3.6-3.7,4.6l-0.8,0.1h-1.1c-1.6,0-3-1-4.1-3c-0.3-0.7-0.4-1.3-0.4-1.8v-25.3h-10.1c-2.4,0-4-1.2-4.9-3.5
		c-0.1-0.5-0.2-0.8-0.2-1v-0.7c0-2,1.2-3.5,3.6-4.5C1039.3,1105.2,1039.7,1105.2,1040,1105.2z"/>
	<path class="st2" d="M1083.5,1105.2h0.8c1.7,0,3.1,1,4.3,2.8c0.3,0.6,0.5,1.4,0.5,2.2v30.2c0,2.2-1.3,3.8-3.9,4.7
		c-0.3,0.1-0.5,0.1-0.7,0.1h-1.1c-1.8,0-3.2-1-4.3-3.1c-0.2-0.5-0.3-1-0.3-1.4v-30.9c0-2,1.2-3.5,3.7-4.5
		C1082.7,1105.2,1083.1,1105.2,1083.5,1105.2z"/>
	<path class="st2" d="M1111.7,1105.2h16c1.7,0,3.1,1,4.2,3c0.2,0.6,0.3,1.1,0.3,1.4v1.1c0,1.6-1,2.9-3,4c-0.7,0.3-1.3,0.4-1.8,0.4
		h-13.5c-5.3,0-9.2,2.2-11.5,6.7c-0.4,1.2-0.6,2.4-0.6,3.5c0,3.6,2.1,6.5,6.2,8.7c1.8,0.8,3.6,1.2,5.3,1.2h13.6
		c2.6,0,4.4,1.2,5.2,3.7l0.1,0.8v1.1c0,1.5-1,2.9-2.9,3.9c-0.5,0.3-1,0.4-1.5,0.4h-16.7c-4.4,0-8.7-1.8-12.9-5.3
		c-2.4-2.4-3.9-4.4-4.4-5.8c-1.4-2.8-2.2-5.6-2.2-8.2v-1.5c0-4.8,2-9.3,6-13.5C1102,1107.1,1106.7,1105.2,1111.7,1105.2z"/>
</g>
<g class="st4">
	<path class="st2" d="M817.2,1173.8h16c1.7,0,3.1,1,4.2,3c0.2,0.6,0.3,1.1,0.3,1.4v1.1c0,1.6-1,2.9-3,4c-0.7,0.3-1.3,0.4-1.8,0.4
		h-13.5c-5.3,0-9.2,2.2-11.5,6.7c-0.4,1.2-0.6,2.4-0.6,3.5c0,3.6,2.1,6.5,6.2,8.7c1.8,0.8,3.6,1.2,5.3,1.2h13.6
		c2.6,0,4.4,1.2,5.3,3.7l0.1,0.8v1.1c0,1.5-1,2.9-2.9,3.9c-0.5,0.3-1,0.4-1.5,0.4h-16.7c-4.4,0-8.7-1.8-12.9-5.3
		c-2.4-2.4-3.9-4.4-4.4-5.8c-1.4-2.8-2.2-5.6-2.2-8.2v-1.5c0-4.8,2-9.3,6-13.5C807.5,1175.7,812.2,1173.8,817.2,1173.8z"/>
	<path class="st2" d="M845.3,1173.8h0.7c1.7,0,3,1,4.2,2.8c0.3,0.6,0.5,1.4,0.5,2.2v10H871v-9.7c0-2.7,1.3-4.4,3.9-5.3
		c0.4-0.1,0.7-0.1,0.9-0.1h0.7c1.7,0,3.1,1,4.2,3c0.2,0.6,0.3,1.1,0.3,1.4v31.3c0,1.5-1,2.9-2.9,3.9c-0.5,0.3-1,0.4-1.5,0.4h-1.1
		c-1.8,0-3.2-1.1-4.2-3.2c-0.2-0.7-0.3-1.4-0.3-2.1v-9.7h-20.4v10.2c0,2.2-1.3,3.8-3.8,4.7c-0.3,0.1-0.5,0.1-0.7,0.1H845
		c-1.7,0-3.1-1-4.2-3.1c-0.2-0.5-0.3-1-0.3-1.4v-30.9c0-2,1.2-3.5,3.6-4.5C844.6,1173.8,844.9,1173.8,845.3,1173.8z"/>
	<path class="st2" d="M888.6,1173.8h31.3c1.7,0,3.1,1,4.2,3c0.2,0.6,0.3,1.1,0.3,1.4v1.1c0,1.6-1,2.9-3,4c-0.7,0.3-1.3,0.4-1.8,0.4
		h-25.6v5.1h19.8c2.5,0,4.2,1,5.1,3c0.3,0.6,0.4,1.1,0.4,1.6v0.7c0,2-1.2,3.5-3.6,4.5c-0.4,0.1-0.8,0.2-1.1,0.2h-20.6v5.1h25
		c2.9,0,4.7,1.4,5.4,4.3v1.3c0,1.5-1,2.9-2.9,3.9c-0.5,0.3-1,0.4-1.5,0.4h-31.6c-1.7,0-3.1-1-4.2-3.1c-0.2-0.5-0.3-1-0.3-1.4v-30.9
		c0-2,1.2-3.5,3.6-4.5C887.9,1173.8,888.2,1173.8,888.6,1173.8z"/>
	<path class="st2" d="M947.1,1173.8h16c1.7,0,3.1,1,4.2,3c0.2,0.6,0.3,1.1,0.3,1.4v1.1c0,1.6-1,2.9-3,4c-0.7,0.3-1.3,0.4-1.8,0.4
		h-13.5c-5.3,0-9.2,2.2-11.5,6.7c-0.4,1.2-0.6,2.4-0.6,3.5c0,3.6,2.1,6.5,6.2,8.7c1.8,0.8,3.6,1.2,5.3,1.2h13.6
		c2.6,0,4.4,1.2,5.3,3.7l0.1,0.8v1.1c0,1.5-1,2.9-2.9,3.9c-0.5,0.3-1,0.4-1.5,0.4h-16.7c-4.4,0-8.7-1.8-12.9-5.3
		c-2.4-2.4-3.9-4.4-4.4-5.8c-1.4-2.8-2.2-5.6-2.2-8.2v-1.5c0-4.8,2-9.3,6-13.5C937.4,1175.7,942.1,1173.8,947.1,1173.8z"/>
	<path class="st2" d="M975.3,1173.8h0.3c2,0,3.6,1.1,4.6,3.4c0.2,0.6,0.3,1.1,0.3,1.6v7.5c14.7-7.7,22.7-11.8,24.1-12.3
		c0.4-0.1,0.8-0.2,1.1-0.2h0.6c2.1,0,3.7,1.2,4.6,3.7c0.1,0.3,0.1,0.5,0.1,0.7v1.1c0,1.8-1.2,3.2-3.6,4.3
		c-13,6.8-19.6,10.2-19.7,10.2v0.1c13.6,7,20.8,10.7,21.5,11.2c1.2,1.2,1.8,2.3,1.8,3.3v1.1c0,1.7-1,3.1-3.1,4.1
		c-0.5,0.2-1,0.3-1.5,0.3h-0.9c-0.8,0-3-1-6.6-3l-18.4-9.5v7.5c0,2.4-1.2,4-3.7,4.9c-0.4,0.1-0.8,0.2-1.1,0.2h-0.2
		c-2.5,0-4.1-1.3-4.9-3.9c-0.1-0.2-0.1-0.4-0.1-0.6v-30.9c0-1.6,0.9-2.9,2.7-4C973.9,1174,974.6,1173.8,975.3,1173.8z"/>
	<path class="st2" d="M1018.4,1173.8h0.7c1.7,0,3,1,4.2,2.8c0.3,0.6,0.5,1.4,0.5,2.2v25.1h25c2.9,0,4.7,1.4,5.4,4.3v1.3
		c0,1.5-1,2.9-2.9,3.9c-0.5,0.3-1,0.4-1.5,0.4h-31.6c-1.7,0-3.1-1-4.2-3.1c-0.2-0.5-0.3-1-0.3-1.4v-30.9c0-2,1.2-3.5,3.6-4.5
		C1017.7,1173.8,1018.1,1173.8,1018.4,1173.8z"/>
	<path class="st2" d="M1061.9,1173.8h0.8c1.7,0,3.1,1,4.3,2.8c0.3,0.6,0.5,1.4,0.5,2.2v30.2c0,2.2-1.3,3.8-3.9,4.7
		c-0.3,0.1-0.5,0.1-0.7,0.1h-1.1c-1.8,0-3.2-1-4.3-3.1c-0.2-0.5-0.3-1-0.3-1.4v-30.9c0-2,1.2-3.5,3.7-4.5
		C1061.1,1173.8,1061.5,1173.8,1061.9,1173.8z"/>
	<path class="st2" d="M1084.1,1173.8h22c2,0,3.6,1.1,4.5,3.3c0.1,0.3,0.1,0.5,0.1,0.7v1.5c0,1.6-1,2.9-3,4c-0.8,0.3-1.4,0.4-1.9,0.4
		h-25.5v5h15.2c6.2,0,10.8,1.9,13.8,5.8c1,1.5,1.4,2.7,1.4,3.7v6c0,2.3-1.6,4.6-4.7,6.9c-3,1.8-5.9,2.7-8.8,2.7h-22.6
		c-1.5,0-2.9-0.9-4-2.6c-0.3-0.6-0.4-1.1-0.4-1.5v-1.1c0-2,1.2-3.5,3.6-4.5c0.5-0.2,1.2-0.3,1.8-0.3h25.1v-5h-16.1
		c-4.5,0-8.3-1.4-11.5-4.2c-1.9-1.9-2.9-3.9-2.9-5.8v-5.1c0-3.3,2.3-6.1,6.8-8.4C1079.5,1174.3,1081.9,1173.8,1084.1,1173.8z"/>
	<path class="st2" d="M1118.1,1173.8h31.3c1.7,0,3.1,1,4.2,3c0.2,0.6,0.3,1.1,0.3,1.4v1.1c0,1.6-1,2.9-3,4c-0.7,0.3-1.3,0.4-1.8,0.4
		h-10.4v25.4c0,2.1-1.2,3.6-3.7,4.6l-0.8,0.1h-1.1c-1.6,0-3-1-4.1-3c-0.3-0.7-0.4-1.3-0.4-1.8v-25.3h-10.1c-2.4,0-4-1.2-4.9-3.5
		c-0.1-0.5-0.2-0.8-0.2-1v-0.7c0-2,1.2-3.5,3.6-4.5C1117.4,1173.8,1117.8,1173.8,1118.1,1173.8z"/>
</g>
<rect id="XMLID_485_" x="813.2" y="553.2" class="st3" width="365.1" height="143.1"/>
<text transform="matrix(1 0 0 1 813.153 572.0219)" class="st5 st8 st9">Ensure Deck is free of debris </text>
<text transform="matrix(1 0 0 1 813.153 601.6217)" class="st5 st8 st9">from the test ride.</text>
<g id="Layer_2_16_" class="st6">
	<path id="XMLID_487_" class="st7" d="M737.7,585.6c0,0,23.5-34,41.1-37.4l1,1.2c0,0-14,12.7-24.3,26.4
		c-10.8,14.3-15.9,29.8-18.9,29.7c-4.1-0.3-9-27.2-16.8-24c-1.6-0.4,2.8-6.9,9.1-5.5C732.8,577,737.7,585.6,737.7,585.6z"/>
</g>
<rect id="XMLID_488_" x="1423.3" y="699.5" class="st3" width="386.7" height="143.1"/>
<g class="st4">
	<path class="st5" d="M1433.2,718.3l-5.1-14.7h-0.1c0.1,2.2,0.2,4.2,0.2,6.2v8.6h-2.6v-17.6h4.1l4.9,14h0.1l5-14h4.1v17.6h-2.8v-8.7
		c0-0.9,0-2,0.1-3.4c0-1.4,0.1-2.3,0.1-2.6h-0.1l-5.3,14.7H1433.2z"/>
	<path class="st5" d="M1456.5,718.3l-0.6-1.9h-0.1c-0.6,0.8-1.3,1.4-1.9,1.7c-0.7,0.3-1.5,0.4-2.5,0.4c-1.3,0-2.3-0.4-3.1-1.1
		c-0.7-0.7-1.1-1.7-1.1-3c0-1.4,0.5-2.4,1.5-3.1c1-0.7,2.6-1.1,4.7-1.1l2.3-0.1v-0.7c0-0.9-0.2-1.5-0.6-1.9c-0.4-0.4-1-0.6-1.9-0.6
		c-0.7,0-1.3,0.1-2,0.3s-1.2,0.4-1.8,0.7l-0.9-2c0.7-0.4,1.5-0.7,2.4-0.9c0.9-0.2,1.7-0.3,2.4-0.3c1.7,0,3,0.4,3.8,1.1
		c0.9,0.7,1.3,1.9,1.3,3.5v9H1456.5z M1452.2,716.3c1,0,1.9-0.3,2.5-0.9s0.9-1.4,0.9-2.4v-1.2l-1.7,0.1c-1.3,0-2.3,0.3-2.9,0.7
		c-0.6,0.4-0.9,1-0.9,1.8c0,0.6,0.2,1.1,0.5,1.4C1451,716.2,1451.5,716.3,1452.2,716.3z"/>
	<path class="st5" d="M1465.2,711.2l1.6-2l4-4.3h3.3l-5.4,5.7l5.7,7.6h-3.3l-4.3-5.8l-1.6,1.3v4.6h-2.8v-18.8h2.8v9.2L1465.2,711.2
		L1465.2,711.2z"/>
	<path class="st5" d="M1482.4,718.5c-2.1,0-3.7-0.6-4.9-1.8c-1.2-1.2-1.8-2.9-1.8-5c0-2.2,0.5-3.9,1.6-5.1c1.1-1.2,2.6-1.9,4.5-1.9
		c1.8,0,3.2,0.5,4.2,1.6c1,1.1,1.5,2.5,1.5,4.4v1.5h-8.9c0,1.3,0.4,2.3,1,3c0.7,0.7,1.6,1,2.8,1c0.8,0,1.5-0.1,2.2-0.2
		c0.7-0.1,1.4-0.4,2.2-0.7v2.3c-0.7,0.3-1.4,0.6-2.1,0.7C1484.1,718.4,1483.3,718.5,1482.4,718.5z M1481.9,706.8
		c-0.9,0-1.6,0.3-2.2,0.9c-0.5,0.6-0.9,1.4-1,2.5h6.1c0-1.1-0.3-1.9-0.8-2.5C1483.5,707.1,1482.8,706.8,1481.9,706.8z"/>
	<path class="st5" d="M1506.2,714.5c0,1.3-0.5,2.3-1.4,3c-0.9,0.7-2.3,1-4.1,1c-1.8,0-3.2-0.3-4.3-0.8v-2.4c1.6,0.7,3,1.1,4.4,1.1
		c1.7,0,2.6-0.5,2.6-1.6c0-0.3-0.1-0.6-0.3-0.8c-0.2-0.2-0.5-0.5-1-0.7s-1.1-0.5-1.8-0.8c-1.5-0.6-2.6-1.2-3.1-1.8
		c-0.5-0.6-0.8-1.4-0.8-2.3c0-1.1,0.5-2,1.4-2.7c0.9-0.6,2.2-0.9,3.8-0.9c1.6,0,3.1,0.3,4.5,1l-0.9,2.1c-1.4-0.6-2.6-0.9-3.6-0.9
		c-1.5,0-2.2,0.4-2.2,1.3c0,0.4,0.2,0.8,0.6,1.1c0.4,0.3,1.2,0.7,2.6,1.2c1.1,0.4,1.9,0.8,2.4,1.2c0.5,0.4,0.9,0.8,1.1,1.2
		C1506.1,713.3,1506.2,713.8,1506.2,714.5z"/>
	<path class="st5" d="M1518.6,718.3l-0.4-1.7h-0.1c-0.4,0.6-1,1.1-1.7,1.5c-0.7,0.4-1.6,0.5-2.5,0.5c-1.6,0-2.8-0.4-3.6-1.2
		c-0.8-0.8-1.2-2-1.2-3.7v-8.7h2.9v8.2c0,1,0.2,1.8,0.6,2.3s1.1,0.8,2,0.8c1.2,0,2.1-0.4,2.6-1.1c0.6-0.7,0.8-1.9,0.8-3.6v-6.6h2.8
		v13.3H1518.6z"/>
	<path class="st5" d="M1531.7,704.7c0.6,0,1,0,1.4,0.1l-0.3,2.6c-0.4-0.1-0.8-0.1-1.3-0.1c-1.1,0-2.1,0.4-2.8,1.1
		c-0.7,0.7-1.1,1.7-1.1,2.9v7h-2.8v-13.3h2.2l0.4,2.4h0.1c0.4-0.8,1-1.4,1.7-1.9C1530.1,704.9,1530.9,704.7,1531.7,704.7z"/>
	<path class="st5" d="M1541.4,718.5c-2.1,0-3.7-0.6-4.9-1.8c-1.2-1.2-1.8-2.9-1.8-5c0-2.2,0.5-3.9,1.6-5.1c1.1-1.2,2.6-1.9,4.5-1.9
		c1.8,0,3.2,0.5,4.2,1.6c1,1.1,1.5,2.5,1.5,4.4v1.5h-8.9c0,1.3,0.4,2.3,1,3c0.7,0.7,1.6,1,2.8,1c0.8,0,1.5-0.1,2.2-0.2
		c0.7-0.1,1.4-0.4,2.2-0.7v2.3c-0.7,0.3-1.4,0.6-2.1,0.7C1543.1,718.4,1542.3,718.5,1541.4,718.5z M1540.9,706.8
		c-0.9,0-1.6,0.3-2.2,0.9c-0.5,0.6-0.9,1.4-1,2.5h6.1c0-1.1-0.3-1.9-0.8-2.5C1542.5,707.1,1541.8,706.8,1540.9,706.8z"/>
	<path class="st5" d="M1564.6,718.3l-0.6-1.9h-0.1c-0.6,0.8-1.3,1.4-1.9,1.7c-0.7,0.3-1.5,0.4-2.5,0.4c-1.3,0-2.3-0.4-3.1-1.1
		c-0.7-0.7-1.1-1.7-1.1-3c0-1.4,0.5-2.4,1.5-3.1c1-0.7,2.6-1.1,4.7-1.1l2.3-0.1v-0.7c0-0.9-0.2-1.5-0.6-1.9c-0.4-0.4-1-0.6-1.9-0.6
		c-0.7,0-1.3,0.1-2,0.3c-0.6,0.2-1.2,0.4-1.8,0.7l-0.9-2c0.7-0.4,1.5-0.7,2.4-0.9c0.9-0.2,1.7-0.3,2.4-0.3c1.7,0,3,0.4,3.8,1.1
		c0.9,0.7,1.3,1.9,1.3,3.5v9H1564.6z M1560.3,716.3c1,0,1.9-0.3,2.5-0.9s0.9-1.4,0.9-2.4v-1.2l-1.7,0.1c-1.3,0-2.3,0.3-2.9,0.7
		c-0.6,0.4-0.9,1-0.9,1.8c0,0.6,0.2,1.1,0.5,1.4C1559.1,716.2,1559.6,716.3,1560.3,716.3z"/>
	<path class="st5" d="M1573.4,718.3h-2.8v-18.8h2.8V718.3z"/>
	<path class="st5" d="M1580.3,718.3h-2.8v-18.8h2.8V718.3z"/>
	<path class="st5" d="M1601.7,718.3l-1.7-6.2c-0.2-0.7-0.6-2.2-1.1-4.6h-0.1c-0.5,2.2-0.8,3.7-1.1,4.6l-1.8,6.2h-3.1l-3.7-13.3h2.9
		l1.7,6.6c0.4,1.6,0.7,3,0.8,4.2h0.1c0.1-0.6,0.2-1.3,0.4-2c0.2-0.8,0.3-1.3,0.4-1.7l2-7h3.1l2,7c0.1,0.4,0.3,1,0.5,1.8
		c0.2,0.8,0.3,1.4,0.3,1.9h0.1c0.1-1,0.4-2.4,0.8-4.1l1.7-6.6h2.8l-3.8,13.3H1601.7z"/>
	<path class="st5" d="M1622.7,718.3h-2.8v-8.2c0-1-0.2-1.8-0.6-2.3s-1.1-0.8-2-0.8c-1.2,0-2.1,0.4-2.6,1.1c-0.6,0.7-0.8,1.9-0.8,3.6
		v6.6h-2.8v-18.8h2.8v4.8c0,0.8,0,1.6-0.1,2.4h0.2c0.4-0.6,0.9-1.1,1.6-1.5c0.7-0.4,1.5-0.5,2.4-0.5c3.2,0,4.8,1.6,4.8,4.9V718.3z"
		/>
	<path class="st5" d="M1632.4,718.5c-2.1,0-3.7-0.6-4.9-1.8c-1.2-1.2-1.8-2.9-1.8-5c0-2.2,0.5-3.9,1.6-5.1c1.1-1.2,2.6-1.9,4.5-1.9
		c1.8,0,3.2,0.5,4.2,1.6c1,1.1,1.5,2.5,1.5,4.4v1.5h-8.9c0,1.3,0.4,2.3,1,3c0.7,0.7,1.6,1,2.8,1c0.8,0,1.5-0.1,2.2-0.2
		c0.7-0.1,1.4-0.4,2.2-0.7v2.3c-0.7,0.3-1.4,0.6-2.1,0.7C1634.1,718.4,1633.3,718.5,1632.4,718.5z M1631.9,706.8
		c-0.9,0-1.6,0.3-2.2,0.9c-0.5,0.6-0.9,1.4-1,2.5h6.1c0-1.1-0.3-1.9-0.8-2.5C1633.5,707.1,1632.8,706.8,1631.9,706.8z"/>
	<path class="st5" d="M1646.7,718.5c-2.1,0-3.7-0.6-4.9-1.8c-1.2-1.2-1.8-2.9-1.8-5c0-2.2,0.5-3.9,1.6-5.1c1.1-1.2,2.6-1.9,4.5-1.9
		c1.8,0,3.2,0.5,4.2,1.6c1,1.1,1.5,2.5,1.5,4.4v1.5h-8.9c0,1.3,0.4,2.3,1,3c0.7,0.7,1.6,1,2.8,1c0.8,0,1.5-0.1,2.2-0.2
		c0.7-0.1,1.4-0.4,2.2-0.7v2.3c-0.7,0.3-1.4,0.6-2.1,0.7C1648.4,718.4,1647.6,718.5,1646.7,718.5z M1646.1,706.8
		c-0.9,0-1.6,0.3-2.2,0.9c-0.5,0.6-0.9,1.4-1,2.5h6.1c0-1.1-0.3-1.9-0.8-2.5C1647.7,707.1,1647,706.8,1646.1,706.8z"/>
	<path class="st5" d="M1657.9,718.3h-2.8v-18.8h2.8V718.3z"/>
	<path class="st5" d="M1670.9,714.5c0,1.3-0.5,2.3-1.4,3s-2.3,1-4.1,1c-1.8,0-3.2-0.3-4.3-0.8v-2.4c1.6,0.7,3,1.1,4.4,1.1
		c1.7,0,2.6-0.5,2.6-1.6c0-0.3-0.1-0.6-0.3-0.8c-0.2-0.2-0.5-0.5-1-0.7s-1.1-0.5-1.8-0.8c-1.5-0.6-2.6-1.2-3.1-1.8
		c-0.5-0.6-0.8-1.4-0.8-2.3c0-1.1,0.5-2,1.4-2.7c0.9-0.6,2.2-0.9,3.8-0.9c1.6,0,3.1,0.3,4.5,1l-0.9,2.1c-1.4-0.6-2.7-0.9-3.6-0.9
		c-1.5,0-2.2,0.4-2.2,1.3c0,0.4,0.2,0.8,0.6,1.1c0.4,0.3,1.2,0.7,2.6,1.2c1.1,0.4,1.9,0.8,2.4,1.2c0.5,0.4,0.9,0.8,1.1,1.2
		C1670.8,713.3,1670.9,713.8,1670.9,714.5z"/>
	<path class="st5" d="M1688.7,718.3l-0.6-1.9h-0.1c-0.6,0.8-1.3,1.4-1.9,1.7c-0.7,0.3-1.5,0.4-2.5,0.4c-1.3,0-2.3-0.4-3.1-1.1
		c-0.7-0.7-1.1-1.7-1.1-3c0-1.4,0.5-2.4,1.5-3.1c1-0.7,2.6-1.1,4.7-1.1l2.3-0.1v-0.7c0-0.9-0.2-1.5-0.6-1.9c-0.4-0.4-1-0.6-1.9-0.6
		c-0.7,0-1.3,0.1-2,0.3c-0.6,0.2-1.2,0.4-1.8,0.7l-0.9-2c0.7-0.4,1.5-0.7,2.4-0.9c0.9-0.2,1.7-0.3,2.4-0.3c1.7,0,3,0.4,3.8,1.1
		c0.9,0.7,1.3,1.9,1.3,3.5v9H1688.7z M1684.5,716.3c1,0,1.9-0.3,2.5-0.9s0.9-1.4,0.9-2.4v-1.2l-1.7,0.1c-1.3,0-2.3,0.3-2.9,0.7
		c-0.6,0.4-0.9,1-0.9,1.8c0,0.6,0.2,1.1,0.5,1.4C1683.3,716.2,1683.8,716.3,1684.5,716.3z"/>
	<path class="st5" d="M1701.5,704.7c0.6,0,1,0,1.4,0.1l-0.3,2.6c-0.4-0.1-0.8-0.1-1.3-0.1c-1.1,0-2.1,0.4-2.8,1.1
		c-0.7,0.7-1.1,1.7-1.1,2.9v7h-2.8v-13.3h2.2l0.4,2.4h0.1c0.4-0.8,1-1.4,1.7-1.9C1699.9,704.9,1700.7,704.7,1701.5,704.7z"/>
	<path class="st5" d="M1711.2,718.5c-2.1,0-3.7-0.6-4.9-1.8c-1.2-1.2-1.8-2.9-1.8-5c0-2.2,0.5-3.9,1.6-5.1c1.1-1.2,2.6-1.9,4.5-1.9
		c1.8,0,3.2,0.5,4.2,1.6c1,1.1,1.5,2.5,1.5,4.4v1.5h-8.9c0,1.3,0.4,2.3,1,3c0.7,0.7,1.6,1,2.8,1c0.8,0,1.5-0.1,2.2-0.2
		c0.7-0.1,1.4-0.4,2.2-0.7v2.3c-0.7,0.3-1.4,0.6-2.1,0.7C1712.9,718.4,1712.1,718.5,1711.2,718.5z M1710.7,706.8
		c-0.9,0-1.6,0.3-2.2,0.9c-0.5,0.6-0.9,1.4-1,2.5h6.1c0-1.1-0.3-1.9-0.8-2.5C1712.3,707.1,1711.6,706.8,1710.7,706.8z"/>
	<path class="st5" d="M1731.4,718.5c-2,0-3.6-0.6-4.6-1.8c-1-1.2-1.6-2.9-1.6-5.1c0-2.2,0.5-4,1.6-5.2c1.1-1.2,2.7-1.8,4.8-1.8
		c1.4,0,2.7,0.3,3.8,0.8l-0.9,2.3c-1.2-0.5-2.2-0.7-3-0.7c-2.3,0-3.5,1.5-3.5,4.6c0,1.5,0.3,2.6,0.9,3.4c0.6,0.8,1.4,1.1,2.5,1.1
		c1.3,0,2.5-0.3,3.6-0.9v2.5c-0.5,0.3-1,0.5-1.6,0.6C1732.9,718.5,1732.2,718.5,1731.4,718.5z"/>
	<path class="st5" d="M1741.1,718.3h-2.8v-18.8h2.8V718.3z"/>
	<path class="st5" d="M1751,718.5c-2.1,0-3.7-0.6-4.9-1.8c-1.2-1.2-1.8-2.9-1.8-5c0-2.2,0.5-3.9,1.6-5.1c1.1-1.2,2.6-1.9,4.5-1.9
		c1.8,0,3.2,0.5,4.2,1.6c1,1.1,1.5,2.5,1.5,4.4v1.5h-8.9c0,1.3,0.4,2.3,1,3c0.7,0.7,1.6,1,2.8,1c0.8,0,1.5-0.1,2.2-0.2
		c0.7-0.1,1.4-0.4,2.2-0.7v2.3c-0.7,0.3-1.4,0.6-2.1,0.7C1752.7,718.4,1751.9,718.5,1751,718.5z M1750.4,706.8
		c-0.9,0-1.6,0.3-2.2,0.9c-0.5,0.6-0.9,1.4-1,2.5h6.1c0-1.1-0.3-1.9-0.8-2.5C1752.1,707.1,1751.3,706.8,1750.4,706.8z"/>
	<path class="st5" d="M1767.7,718.3l-0.6-1.9h-0.1c-0.6,0.8-1.3,1.4-1.9,1.7c-0.7,0.3-1.5,0.4-2.5,0.4c-1.3,0-2.3-0.4-3.1-1.1
		c-0.7-0.7-1.1-1.7-1.1-3c0-1.4,0.5-2.4,1.5-3.1c1-0.7,2.6-1.1,4.7-1.1l2.3-0.1v-0.7c0-0.9-0.2-1.5-0.6-1.9c-0.4-0.4-1-0.6-1.9-0.6
		c-0.7,0-1.3,0.1-2,0.3s-1.2,0.4-1.8,0.7l-0.9-2c0.7-0.4,1.5-0.7,2.4-0.9c0.9-0.2,1.7-0.3,2.4-0.3c1.7,0,3,0.4,3.8,1.1
		c0.9,0.7,1.3,1.9,1.3,3.5v9H1767.7z M1763.5,716.3c1,0,1.9-0.3,2.5-0.9s0.9-1.4,0.9-2.4v-1.2l-1.7,0.1c-1.3,0-2.3,0.3-2.9,0.7
		c-0.6,0.4-0.9,1-0.9,1.8c0,0.6,0.2,1.1,0.5,1.4C1762.3,716.2,1762.8,716.3,1763.5,716.3z"/>
</g>
<g class="st4">
	<path class="st5" d="M1772.6,712.9v-2.4h6.2v2.4H1772.6z"/>
</g>
<g class="st4">
	<path class="st5" d="M1437,747.9h-2.8v-8.2c0-1-0.2-1.8-0.6-2.3s-1.1-0.8-2-0.8c-1.2,0-2.1,0.4-2.6,1.1c-0.6,0.7-0.8,1.9-0.8,3.6
		v6.6h-2.8v-13.3h2.2l0.4,1.7h0.1c0.4-0.6,1-1.1,1.7-1.5c0.7-0.3,1.6-0.5,2.5-0.5c3.2,0,4.8,1.6,4.8,4.9V747.9z"/>
	<path class="st5" d="M1446.8,748.1c-2.1,0-3.7-0.6-4.9-1.8c-1.2-1.2-1.8-2.9-1.8-5c0-2.2,0.5-3.9,1.6-5.1c1.1-1.2,2.6-1.9,4.5-1.9
		c1.8,0,3.2,0.5,4.2,1.6c1,1.1,1.5,2.5,1.5,4.4v1.5h-8.9c0,1.3,0.4,2.3,1,3c0.7,0.7,1.6,1,2.8,1c0.8,0,1.5-0.1,2.2-0.2
		c0.7-0.1,1.4-0.4,2.2-0.7v2.3c-0.7,0.3-1.4,0.6-2.1,0.7C1448.5,748,1447.7,748.1,1446.8,748.1z M1446.3,736.4
		c-0.9,0-1.6,0.3-2.2,0.9c-0.5,0.6-0.9,1.4-1,2.5h6.1c0-1.1-0.3-1.9-0.8-2.5C1447.9,736.7,1447.2,736.4,1446.3,736.4z"/>
	<path class="st5" d="M1459.7,748.1c-1.7,0-3-0.6-3.9-1.8s-1.4-2.9-1.4-5.1c0-2.2,0.5-3.9,1.4-5.1c0.9-1.2,2.3-1.8,3.9-1.8
		c1.8,0,3.1,0.6,4,1.9h0.1c-0.1-1-0.2-1.7-0.2-2.3v-4.9h2.8v18.8h-2.2l-0.5-1.7h-0.1C1462.8,747.5,1461.5,748.1,1459.7,748.1z
		 M1460.5,745.8c1.2,0,2-0.3,2.5-1c0.5-0.7,0.8-1.7,0.8-3.2v-0.4c0-1.7-0.3-2.9-0.8-3.6c-0.5-0.7-1.4-1.1-2.6-1.1
		c-1,0-1.8,0.4-2.3,1.2c-0.5,0.8-0.8,2-0.8,3.5c0,1.5,0.3,2.6,0.8,3.4C1458.7,745.4,1459.4,745.8,1460.5,745.8z"/>
	<path class="st5" d="M1488.9,741.2c0,2.2-0.6,3.9-1.7,5.1c-1.1,1.2-2.7,1.8-4.7,1.8c-1.2,0-2.3-0.3-3.3-0.8c-1-0.6-1.7-1.4-2.2-2.4
		c-0.5-1.1-0.8-2.3-0.8-3.7c0-2.2,0.6-3.9,1.7-5.1c1.1-1.2,2.7-1.8,4.7-1.8c1.9,0,3.5,0.6,4.6,1.9
		C1488.3,737.4,1488.9,739.1,1488.9,741.2z M1479.2,741.2c0,3.1,1.1,4.6,3.4,4.6c2.3,0,3.4-1.5,3.4-4.6c0-3-1.1-4.6-3.4-4.6
		c-1.2,0-2.1,0.4-2.6,1.2C1479.4,738.6,1479.2,739.7,1479.2,741.2z"/>
	<path class="st5" d="M1498.8,736.7h-3.3v11.2h-2.8v-11.2h-2.2v-1.3l2.2-0.9v-0.9c0-1.6,0.4-2.7,1.1-3.5c0.7-0.8,1.9-1.1,3.4-1.1
		c1,0,2,0.2,2.9,0.5l-0.7,2.1c-0.7-0.2-1.4-0.3-2-0.3c-0.6,0-1.1,0.2-1.4,0.6c-0.3,0.4-0.4,1-0.4,1.8v0.9h3.3V736.7z M1507.8,736.7
		h-3.3v11.2h-2.8v-11.2h-2.2v-1.3l2.2-0.9v-0.9c0-1.6,0.4-2.7,1.1-3.5c0.7-0.8,1.9-1.1,3.4-1.1c1,0,2,0.2,2.9,0.5l-0.7,2.1
		c-0.7-0.2-1.4-0.3-2-0.3c-0.6,0-1.1,0.2-1.4,0.6c-0.3,0.4-0.4,1-0.4,1.8v0.9h3.3V736.7z"/>
	<path class="st5" d="M1524.8,747.9l-0.6-1.9h-0.1c-0.6,0.8-1.3,1.4-1.9,1.7c-0.7,0.3-1.5,0.4-2.5,0.4c-1.3,0-2.3-0.4-3.1-1.1
		c-0.7-0.7-1.1-1.7-1.1-3c0-1.4,0.5-2.4,1.5-3.1c1-0.7,2.6-1.1,4.7-1.1l2.3-0.1V739c0-0.9-0.2-1.5-0.6-1.9c-0.4-0.4-1-0.6-1.9-0.6
		c-0.7,0-1.3,0.1-2,0.3c-0.6,0.2-1.2,0.4-1.8,0.7l-0.9-2c0.7-0.4,1.5-0.7,2.4-0.9c0.9-0.2,1.7-0.3,2.4-0.3c1.7,0,3,0.4,3.8,1.1
		c0.9,0.7,1.3,1.9,1.3,3.5v9H1524.8z M1520.6,745.9c1,0,1.9-0.3,2.5-0.9s0.9-1.4,0.9-2.4v-1.2l-1.7,0.1c-1.3,0-2.3,0.3-2.9,0.7
		c-0.6,0.4-0.9,1-0.9,1.8c0,0.6,0.2,1.1,0.5,1.4C1519.4,745.8,1519.9,745.9,1520.6,745.9z"/>
	<path class="st5" d="M1542.5,747.9h-2.8v-8.2c0-1-0.2-1.8-0.6-2.3s-1.1-0.8-2-0.8c-1.2,0-2.1,0.4-2.6,1.1c-0.6,0.7-0.8,1.9-0.8,3.6
		v6.6h-2.8v-13.3h2.2l0.4,1.7h0.1c0.4-0.6,1-1.1,1.7-1.5c0.7-0.3,1.6-0.5,2.5-0.5c3.2,0,4.8,1.6,4.8,4.9V747.9z"/>
	<path class="st5" d="M1551,748.1c-1.7,0-3-0.6-3.9-1.8s-1.4-2.9-1.4-5.1c0-2.2,0.5-3.9,1.4-5.1c0.9-1.2,2.3-1.8,3.9-1.8
		c1.8,0,3.1,0.6,4,1.9h0.1c-0.1-1-0.2-1.7-0.2-2.3v-4.9h2.8v18.8h-2.2l-0.5-1.7h-0.1C1554.1,747.5,1552.7,748.1,1551,748.1z
		 M1551.7,745.8c1.2,0,2-0.3,2.5-1c0.5-0.7,0.8-1.7,0.8-3.2v-0.4c0-1.7-0.3-2.9-0.8-3.6c-0.5-0.7-1.4-1.1-2.6-1.1
		c-1,0-1.8,0.4-2.3,1.2c-0.5,0.8-0.8,2-0.8,3.5c0,1.5,0.3,2.6,0.8,3.4C1549.9,745.4,1550.7,745.8,1551.7,745.8z"/>
	<path class="st5" d="M1575.1,748.1c-1.7,0-3-0.6-3.9-1.8h-0.2c0.1,1.1,0.2,1.8,0.2,2.1v5.5h-2.8v-19.3h2.3c0.1,0.2,0.2,0.8,0.4,1.8
		h0.1c0.9-1.4,2.2-2,4-2c1.7,0,3,0.6,3.9,1.8s1.4,2.9,1.4,5.1c0,2.2-0.5,3.9-1.4,5.1C1578,747.5,1576.7,748.1,1575.1,748.1z
		 M1574.4,736.6c-1.1,0-1.9,0.3-2.5,1s-0.8,1.7-0.8,3.2v0.4c0,1.6,0.3,2.8,0.8,3.5s1.4,1.1,2.5,1.1c1,0,1.7-0.4,2.3-1.2
		c0.5-0.8,0.8-2,0.8-3.4c0-1.5-0.3-2.6-0.8-3.4C1576.2,737,1575.4,736.6,1574.4,736.6z"/>
	<path class="st5" d="M1590.4,734.3c0.6,0,1,0,1.4,0.1l-0.3,2.6c-0.4-0.1-0.8-0.1-1.3-0.1c-1.1,0-2.1,0.4-2.8,1.1
		c-0.7,0.7-1.1,1.7-1.1,2.9v7h-2.8v-13.3h2.2l0.4,2.4h0.1c0.4-0.8,1-1.4,1.7-1.9C1588.9,734.5,1589.6,734.3,1590.4,734.3z"/>
	<path class="st5" d="M1606.2,741.2c0,2.2-0.6,3.9-1.7,5.1c-1.1,1.2-2.7,1.8-4.7,1.8c-1.2,0-2.3-0.3-3.3-0.8c-1-0.6-1.7-1.4-2.2-2.4
		s-0.8-2.3-0.8-3.7c0-2.2,0.6-3.9,1.7-5.1s2.7-1.8,4.7-1.8c1.9,0,3.5,0.6,4.6,1.9S1606.2,739.1,1606.2,741.2z M1596.5,741.2
		c0,3.1,1.1,4.6,3.4,4.6c2.3,0,3.4-1.5,3.4-4.6c0-3-1.1-4.6-3.4-4.6c-1.2,0-2.1,0.4-2.6,1.2C1596.7,738.6,1596.5,739.7,1596.5,741.2
		z"/>
	<path class="st5" d="M1616.2,748.1c-1.7,0-3-0.6-3.9-1.8h-0.2c0.1,1.1,0.2,1.8,0.2,2.1v5.5h-2.8v-19.3h2.3c0.1,0.2,0.2,0.8,0.4,1.8
		h0.1c0.9-1.4,2.2-2,4-2c1.7,0,3,0.6,3.9,1.8s1.4,2.9,1.4,5.1c0,2.2-0.5,3.9-1.4,5.1C1619.2,747.5,1617.9,748.1,1616.2,748.1z
		 M1615.5,736.6c-1.1,0-1.9,0.3-2.5,1s-0.8,1.7-0.8,3.2v0.4c0,1.6,0.3,2.8,0.8,3.5s1.4,1.1,2.5,1.1c1,0,1.7-0.4,2.3-1.2
		c0.5-0.8,0.8-2,0.8-3.4c0-1.5-0.3-2.6-0.8-3.4C1617.3,737,1616.5,736.6,1615.5,736.6z"/>
	<path class="st5" d="M1630.6,748.1c-2.1,0-3.7-0.6-4.9-1.8c-1.2-1.2-1.8-2.9-1.8-5c0-2.2,0.5-3.9,1.6-5.1c1.1-1.2,2.6-1.9,4.5-1.9
		c1.8,0,3.2,0.5,4.2,1.6c1,1.1,1.5,2.5,1.5,4.4v1.5h-8.9c0,1.3,0.4,2.3,1,3c0.7,0.7,1.6,1,2.8,1c0.8,0,1.5-0.1,2.2-0.2
		c0.7-0.1,1.4-0.4,2.2-0.7v2.3c-0.7,0.3-1.4,0.6-2.1,0.7C1632.4,748,1631.5,748.1,1630.6,748.1z M1630.1,736.4
		c-0.9,0-1.6,0.3-2.2,0.9c-0.5,0.6-0.9,1.4-1,2.5h6.1c0-1.1-0.3-1.9-0.8-2.5C1631.7,736.7,1631,736.4,1630.1,736.4z"/>
	<path class="st5" d="M1645.8,734.3c0.6,0,1,0,1.4,0.1l-0.3,2.6c-0.4-0.1-0.8-0.1-1.3-0.1c-1.1,0-2.1,0.4-2.8,1.1
		c-0.7,0.7-1.1,1.7-1.1,2.9v7h-2.8v-13.3h2.2l0.4,2.4h0.1c0.4-0.8,1-1.4,1.7-1.9C1644.2,734.5,1645,734.3,1645.8,734.3z"/>
	<path class="st5" d="M1652.5,747.9h-2.8v-18.8h2.8V747.9z"/>
	<path class="st5" d="M1654.6,734.5h3.1l2.7,7.6c0.4,1.1,0.7,2.1,0.8,3h0.1c0.1-0.4,0.2-1,0.4-1.6c0.2-0.6,1.2-3.6,3.1-9h3.1
		l-5.7,15.1c-1,2.8-2.8,4.2-5.2,4.2c-0.6,0-1.2-0.1-1.8-0.2v-2.2c0.4,0.1,0.9,0.1,1.5,0.1c1.4,0,2.3-0.8,2.9-2.4l0.5-1.3
		L1654.6,734.5z"/>
	<path class="st5" d="M1681.2,745.8c0.7,0,1.4-0.1,2.1-0.3v2.1c-0.3,0.1-0.7,0.3-1.2,0.3c-0.5,0.1-1,0.1-1.5,0.1c-2.7,0-4-1.4-4-4.2
		v-7.2h-1.8v-1.3l2-1l1-2.8h1.7v3h3.8v2.1h-3.8v7.1c0,0.7,0.2,1.2,0.5,1.5C1680.2,745.7,1680.7,745.8,1681.2,745.8z"/>
	<path class="st5" d="M1685.8,731c0-0.5,0.1-0.9,0.4-1.2s0.7-0.4,1.2-0.4c0.5,0,0.9,0.1,1.2,0.4s0.4,0.7,0.4,1.2
		c0,0.5-0.1,0.9-0.4,1.1s-0.7,0.4-1.2,0.4c-0.5,0-0.9-0.1-1.2-0.4S1685.8,731.5,1685.8,731z M1688.8,747.9h-2.8v-13.3h2.8V747.9z"/>
	<path class="st5" d="M1704.1,734.5v1.6l-2.3,0.4c0.2,0.3,0.4,0.6,0.5,1c0.1,0.4,0.2,0.8,0.2,1.3c0,1.4-0.5,2.5-1.4,3.2
		c-0.9,0.8-2.3,1.2-3.9,1.2c-0.4,0-0.8,0-1.2-0.1c-0.6,0.4-0.9,0.8-0.9,1.3c0,0.3,0.1,0.5,0.4,0.7c0.3,0.2,0.8,0.2,1.6,0.2h2.3
		c1.5,0,2.6,0.3,3.4,0.9s1.1,1.5,1.1,2.7c0,1.5-0.6,2.7-1.9,3.5s-3,1.2-5.4,1.2c-1.8,0-3.2-0.3-4.2-1c-1-0.6-1.4-1.6-1.4-2.8
		c0-0.8,0.3-1.5,0.8-2.1c0.5-0.6,1.2-0.9,2.2-1.2c-0.4-0.2-0.7-0.4-0.9-0.8c-0.2-0.4-0.4-0.7-0.4-1.1c0-0.5,0.1-0.9,0.4-1.3
		s0.7-0.7,1.3-1c-0.7-0.3-1.3-0.8-1.7-1.5c-0.4-0.7-0.6-1.5-0.6-2.4c0-1.4,0.5-2.6,1.4-3.4c0.9-0.8,2.2-1.2,3.9-1.2
		c0.4,0,0.8,0,1.2,0.1c0.4,0.1,0.7,0.1,0.9,0.2H1704.1z M1693.6,750c0,0.6,0.3,1.1,0.8,1.4c0.5,0.3,1.3,0.5,2.3,0.5
		c1.5,0,2.7-0.2,3.5-0.7c0.8-0.4,1.1-1,1.1-1.8c0-0.6-0.2-1-0.6-1.2s-1.2-0.4-2.3-0.4h-2.1c-0.8,0-1.5,0.2-1.9,0.6
		S1693.6,749.3,1693.6,750z M1694.8,738.9c0,0.8,0.2,1.5,0.6,1.9c0.4,0.5,1,0.7,1.9,0.7c1.6,0,2.5-0.9,2.5-2.6c0-0.9-0.2-1.5-0.6-2
		c-0.4-0.5-1-0.7-1.9-0.7c-0.8,0-1.4,0.2-1.9,0.7C1695,737.3,1694.8,738,1694.8,738.9z"/>
	<path class="st5" d="M1718.3,747.9h-2.8v-8.2c0-1-0.2-1.8-0.6-2.3s-1.1-0.8-2-0.8c-1.2,0-2.1,0.4-2.6,1.1c-0.6,0.7-0.8,1.9-0.8,3.6
		v6.6h-2.8v-18.8h2.8v4.8c0,0.8,0,1.6-0.1,2.4h0.2c0.4-0.6,0.9-1.1,1.6-1.5c0.7-0.4,1.5-0.5,2.4-0.5c3.2,0,4.8,1.6,4.8,4.9V747.9z"
		/>
	<path class="st5" d="M1727.2,745.8c0.7,0,1.4-0.1,2.1-0.3v2.1c-0.3,0.1-0.7,0.3-1.2,0.3s-1,0.1-1.5,0.1c-2.7,0-4-1.4-4-4.2v-7.2
		h-1.8v-1.3l2-1l1-2.8h1.7v3h3.8v2.1h-3.8v7.1c0,0.7,0.2,1.2,0.5,1.5C1726.2,745.7,1726.7,745.8,1727.2,745.8z"/>
	<path class="st5" d="M1737.8,748.1c-2.1,0-3.7-0.6-4.9-1.8c-1.2-1.2-1.8-2.9-1.8-5c0-2.2,0.5-3.9,1.6-5.1c1.1-1.2,2.6-1.9,4.5-1.9
		c1.8,0,3.2,0.5,4.2,1.6c1,1.1,1.5,2.5,1.5,4.4v1.5h-8.9c0,1.3,0.4,2.3,1,3c0.7,0.7,1.6,1,2.8,1c0.8,0,1.5-0.1,2.2-0.2
		c0.7-0.1,1.4-0.4,2.2-0.7v2.3c-0.7,0.3-1.4,0.6-2.1,0.7C1739.5,748,1738.7,748.1,1737.8,748.1z M1737.3,736.4
		c-0.9,0-1.6,0.3-2.2,0.9c-0.5,0.6-0.9,1.4-1,2.5h6.1c0-1.1-0.3-1.9-0.8-2.5C1738.9,736.7,1738.2,736.4,1737.3,736.4z"/>
	<path class="st5" d="M1757.9,747.9h-2.8v-8.2c0-1-0.2-1.8-0.6-2.3s-1.1-0.8-2-0.8c-1.2,0-2.1,0.4-2.6,1.1c-0.6,0.7-0.8,1.9-0.8,3.6
		v6.6h-2.8v-13.3h2.2l0.4,1.7h0.1c0.4-0.6,1-1.1,1.7-1.5c0.7-0.3,1.6-0.5,2.5-0.5c3.2,0,4.8,1.6,4.8,4.9V747.9z"/>
	<path class="st5" d="M1767.7,748.1c-2.1,0-3.7-0.6-4.9-1.8c-1.2-1.2-1.8-2.9-1.8-5c0-2.2,0.5-3.9,1.6-5.1c1.1-1.2,2.6-1.9,4.5-1.9
		c1.8,0,3.2,0.5,4.2,1.6c1,1.1,1.5,2.5,1.5,4.4v1.5h-8.9c0,1.3,0.4,2.3,1,3c0.7,0.7,1.6,1,2.8,1c0.8,0,1.5-0.1,2.2-0.2
		c0.7-0.1,1.4-0.4,2.2-0.7v2.3c-0.7,0.3-1.4,0.6-2.1,0.7C1769.4,748,1768.6,748.1,1767.7,748.1z M1767.2,736.4
		c-0.9,0-1.6,0.3-2.2,0.9c-0.5,0.6-0.9,1.4-1,2.5h6.1c0-1.1-0.3-1.9-0.8-2.5C1768.8,736.7,1768.1,736.4,1767.2,736.4z"/>
	<path class="st5" d="M1780.6,748.1c-1.7,0-3-0.6-3.9-1.8s-1.4-2.9-1.4-5.1c0-2.2,0.5-3.9,1.4-5.1c0.9-1.2,2.3-1.8,3.9-1.8
		c1.8,0,3.1,0.6,4,1.9h0.1c-0.1-1-0.2-1.7-0.2-2.3v-4.9h2.8v18.8h-2.2l-0.5-1.7h-0.1C1783.7,747.5,1782.4,748.1,1780.6,748.1z
		 M1781.4,745.8c1.2,0,2-0.3,2.5-1c0.5-0.7,0.8-1.7,0.8-3.2v-0.4c0-1.7-0.3-2.9-0.8-3.6c-0.5-0.7-1.4-1.1-2.6-1.1
		c-1,0-1.8,0.4-2.3,1.2c-0.5,0.8-0.8,2-0.8,3.5c0,1.5,0.3,2.6,0.8,3.4C1779.5,745.4,1780.3,745.8,1781.4,745.8z"/>
</g>
<g id="Layer_2_15_" class="st6">
	<path id="XMLID_490_" class="st7" d="M1351.1,733.1c0,0,23.5-34,41.1-37.4l1,1.2c0,0-14,12.7-24.3,26.4
		c-10.8,14.3-15.9,29.8-18.9,29.7c-4.1-0.3-9-27.2-16.8-24c-1.6-0.4,2.8-6.9,9.1-5.5C1346.1,724.5,1351.1,733.1,1351.1,733.1z"/>
</g>
<rect id="XMLID_491_" x="1495.2" y="1048.9" class="st3" width="404.4" height="143.1"/>
<text transform="matrix(1 0 0 1 1495.1997 1067.693)" class="st5 st8 st9">Check to make sure the grip tape </text>
<text transform="matrix(1 0 0 1 1495.1997 1097.2931)" class="st5 st8 st9">is applied evenly and secure.</text>
<g id="Layer_2_14_" class="st6">
	<path id="XMLID_493_" class="st7" d="M1428,1082.6c0,0,23.5-34,41.1-37.4l1,1.2c0,0-14,12.7-24.3,26.4
		c-10.8,14.3-15.9,29.8-18.9,29.7c-4.1-0.3-9-27.2-16.8-24c-1.6-0.4,2.8-6.9,9.1-5.5C1423,1073.9,1428,1082.6,1428,1082.6z"/>
</g>
<rect id="XMLID_494_" x="1467.2" y="1429.8" class="st3" width="469.9" height="143.1"/>
<text transform="matrix(1 0 0 1 1467.2485 1448.5328)" class="st5 st8 st9">Install nose bumper LED cover screen </text>
<text transform="matrix(1 0 0 1 1467.2485 1478.1328)" class="st5 st8 st9">and make sure it is fully adhered.</text>
<g id="Layer_2_13_" class="st6">
	<path id="XMLID_496_" class="st7" d="M1405,1463.4c0,0,23.5-34,41.1-37.4l1,1.2c0,0-14,12.7-24.3,26.4
		c-10.8,14.3-15.9,29.8-18.9,29.6c-4.1-0.3-9-27.2-16.8-24c-1.6-0.4,2.8-6.9,9.1-5.5C1400.1,1454.7,1405,1463.4,1405,1463.4z"/>
</g>
<rect id="XMLID_497_" x="790.1" y="1710.9" class="st3" width="365.1" height="143.1"/>
<text transform="matrix(1 0 0 1 790.1439 1729.6949)" class="st5 st8 st9">Clean off all debris from the </text>
<text transform="matrix(1 0 0 1 790.1439 1759.2949)" class="st5 st8 st9">nose bumper. </text>
<g id="Layer_2_12_" class="st6">
	<path id="XMLID_499_" class="st7" d="M728.3,1750.8c10.6-15.3,12.9-32,41.1-37.4l1,1.2c0,0-14,12.7-24.3,26.4
		c-10.8,14.3-15.9,29.8-18.9,29.6c-4.1-0.3-9-27.2-16.8-24c-1.6-0.4,2.8-6.9,9.1-5.5C723.4,1742.1,728.3,1750.8,728.3,1750.8z"/>
</g>
<rect id="XMLID_500_" x="28.8" y="746.8" class="st3" width="365.1" height="57.1"/>
<rect id="XMLID_502_" x="164" y="754" class="st3" width="417.8" height="143.1"/>
<text transform="matrix(1 0 0 1 200.974 772.7506)" class="st5 st8 st9">Apply all warning stickers to the </text>
<text transform="matrix(1 0 0 1 165.874 802.3507)" class="st5 st8 st9">Marbel Board and Accessories box.</text>
<g id="Layer_2_11_" class="st6">
	<path id="XMLID_504_" class="st7" d="M99.4,787.6c0,0,23.5-34,41.1-37.4l1,1.2c0,0-14,12.7-24.3,26.4
		c-10.8,14.3-15.9,29.8-18.9,29.7c-4.1-0.3-9-27.2-16.8-24c-1.6-0.4,2.8-6.9,9.1-5.5C94.5,779,99.4,787.6,99.4,787.6z"/>
</g>
<rect id="XMLID_505_" x="3.9" y="1115.1" class="st3" width="365.1" height="57.1"/>
<rect id="XMLID_507_" x="86.6" y="1137.3" class="st3" width="427.2" height="143.1"/>
<text transform="matrix(1 0 0 1 93.1589 1156.0856)" class="st5 st8 st9">Ensure all bearings and spacers are </text>
<text transform="matrix(1 0 0 1 130.3589 1185.6855)" class="st5 st8 st9">properly installed and tightened </text>
<g id="Layer_2_10_" class="st6">
	<path id="XMLID_509_" class="st7" d="M28.3,1166c0,0,23.5-34,41.1-37.4l1,1.2c0,0-14,12.7-24.3,26.4
		c-10.8,14.3-15.9,29.8-18.9,29.7c-4.1-0.3-9-27.2-16.8-24c-1.6-0.4,2.8-6.9,9.1-5.5C23.3,1157.3,28.3,1166,28.3,1166z"/>
</g>
<rect id="XMLID_510_" x="94.5" y="1468.3" class="st3" width="365.1" height="57.1"/>
<rect id="XMLID_512_" x="235.1" y="1483" class="st3" width="365.1" height="143.1"/>
<text transform="matrix(1 0 0 1 267.6324 1501.7223)" class="st5 st8 st9">Clean off all debris from the </text>
<text transform="matrix(1 0 0 1 454.1324 1531.3224)" class="st5 st8 st9">tail bumper. </text>
<g id="Layer_2_9_" class="st6">
	<path id="XMLID_514_" class="st7" d="M186.8,1516.6c0,0,23.5-34,41.1-37.4l1,1.2c0,0-14,12.7-24.3,26.4
		c-10.8,14.3-15.9,29.8-18.9,29.7c-4.1-0.3-9-27.2-16.8-24c-1.6-0.4,2.8-6.9,9.1-5.5C181.8,1507.9,186.8,1516.6,186.8,1516.6z"/>
</g>
<rect id="XMLID_515_" x="1314.8" y="-749.5" class="st3" width="365.1" height="57.1"/>
<line id="XMLID_516_" class="st3" x1="1281.1" y1="-529.6" x2="1238.9" y2="-495.3"/>
<text transform="matrix(1 0 0 1 813.919 -296.5536)" class="st2" style="font-family:'Zian'; font-size:57.199px;">Test ride</text>
<text transform="matrix(1 0 0 1 799.319 -227.9535)" class="st2" style="font-family:'Zian'; font-size:57.199px;">CHECKLIST</text>
<rect id="XMLID_519_" x="815.3" y="-891" class="st3" width="365.1" height="143.1"/>
<text transform="matrix(1 0 0 1 815.2809 -872.2662)" class="st5 st8 st9">Does the drive gear and belt </text>
<text transform="matrix(1 0 0 1 815.2809 -842.6661)" class="st5 st8 st9">have proper tension? </text>
<g id="Layer_2_24_" class="st6">
	<path id="XMLID_521_" class="st7" d="M737.4-858.6c0,0,23.5-34,41.1-37.4l1,1.2c0,0-14,12.7-24.3,26.4
		c-10.8,14.3-15.9,29.8-18.9,29.7c-4.1-0.3-9-27.2-16.8-24c-1.6-0.4,2.8-6.9,9.1-5.5C732.4-867.3,737.4-858.6,737.4-858.6z"/>
</g>
<rect id="XMLID_522_" x="1527.5" y="-430.1" class="st3" width="365.1" height="143.1"/>
<text transform="matrix(1 0 0 1 1527.5201 -411.3617)" class="st5 st8 st9">Are the safety brake features </text>
<text transform="matrix(1 0 0 1 1527.5201 -381.7616)" class="st5 st8 st9">operating correctly? </text>
<g id="Layer_2_22_" class="st6">
	<path id="XMLID_524_" class="st7" d="M1465.3-396.5c0,0,23.5-34,41.1-37.4l1,1.2c0,0-14,12.7-24.3,26.4
		c-10.8,14.3-15.9,29.8-18.9,29.7c-4.1-0.3-9-27.2-16.8-24c-1.6-0.4,2.8-6.9,9.1-5.5C1460.3-405.1,1465.3-396.5,1465.3-396.5z"/>
</g>
<rect id="XMLID_525_" x="1404.2" y="21" class="st3" width="475.2" height="143.1"/>
<text transform="matrix(1 0 0 1 1404.2314 39.7894)" class="st5 st8 st9">Did the remote vibrate when connected </text>
<text transform="matrix(1 0 0 1 1404.2314 69.3895)" class="st5 st8 st9">(and disconnected) with the board? </text>
<g id="Layer_2_21_" class="st6">
	<path id="XMLID_527_" class="st7" d="M1337,54.7c0,0,23.5-34,41.1-37.4l1,1.2c0,0-14,12.7-24.3,26.4
		c-10.8,14.3-15.9,29.8-18.9,29.6c-4.1-0.3-9-27.2-16.8-24c-1.6-0.4,2.8-6.9,9.1-5.5C1332.1,46,1337,54.7,1337,54.7z"/>
</g>
<g id="XMLID_526_">
	<g id="XMLID_528_">
		<rect id="XMLID_677_" x="219.2" y="-10.1" class="st3" width="365.1" height="143.1"/>
		<text transform="matrix(1 0 0 1 290.3107 8.6703)" class="st5 st8 st9">Can you reach top speed </text>
		<text transform="matrix(1 0 0 1 297.6107 38.2704)" class="st5 st8 st9">when fully accelerating?</text>
	</g>
	<g id="Layer_2_20_" class="st6">
		<path id="XMLID_531_" class="st7" d="M210.9,24.8c0,0,23.5-34,41.1-37.4l1,1.2c0,0-14,12.7-24.3,26.4
			c-10.8,14.3-15.9,29.8-18.9,29.6c-4.1-0.3-9-27.2-16.8-24c-1.6-0.4,2.8-6.9,9.1-5.5C205.9,16.1,210.9,24.8,210.9,24.8z"/>
	</g>
</g>
<rect id="XMLID_532_" x="30.9" y="-695" class="st3" width="365.1" height="57.1"/>
<rect id="XMLID_534_" x="136" y="-660.4" class="st3" width="442.6" height="143.1"/>
<text transform="matrix(1 0 0 1 168.397 -641.5978)" class="st5 st8 st9">How does the board handle  vibra</text>
<text transform="matrix(1 0 0 1 570.597 -641.5978)" class="st5 st8 st9">-</text>
<text transform="matrix(1 0 0 1 238.497 -611.9977)" class="st5 st8 st9">tions from alternate terrain?  </text>
<g id="Layer_2_19_" class="st6">
	<path id="XMLID_536_" class="st7" d="M79.1-626.7c0,0,23.5-34,41.1-37.4l1,1.2c0,0-14,12.7-24.3,26.4C86.1-622.2,81-606.7,78-606.8
		c-4.1-0.3-9-27.2-16.8-24c-1.6-0.4,2.8-6.9,9.1-5.5C74.2-635.4,79.1-626.7,79.1-626.7z"/>
</g>
<rect id="XMLID_537_" x="6" y="-326.6" class="st3" width="365.1" height="57.1"/>
<g id="XMLID_538_">
	<path id="XMLID_539_" class="st10" d="M755.2-573.2c51.2-41,113.4-68.8,181.5-78.1"/>
	<path id="XMLID_540_" class="st11" d="M687-62.2c-45.1-61.6-71.7-137.6-71.7-219.8c0-96.2,36.4-183.8,96.2-250"/>
	<path id="XMLID_541_" class="st10" d="M1152.2,52.7c-49.5,24.3-105.3,38-164.2,38c-94.4,0-180.6-35.1-246.3-93"/>
	<path id="XMLID_542_" class="st11" d="M1359.3-248.4c-10.4,116-73.9,216.6-166,277.5"/>
	<path id="XMLID_543_" class="st12" d="M988-654.8c185.8,0,339.9,136,368.1,313.8"/>
</g>
<path id="XMLID_544_" class="st1" d="M924.7-687.4c-77.5,11-134.8,32.2-193.4,84.2l2.9,3.7c59.2-46.5,116.6-69.4,193.7-83.7v-0.1
	l4.1-1.4l-5.6-121.6l-6.2,0.2L924.7-687.4z"/>
<g id="XMLID_545_">
	<rect id="XMLID_546_" x="384" y="-590.4" class="st13" width="264.8" height="5"/>
	
		<rect id="XMLID_547_" x="631.1" y="-550.7" transform="matrix(-0.736 -0.6769 0.6769 -0.736 1570.1619 -484.0698)" class="st13" width="119.2" height="5"/>
</g>
<g id="XMLID_548_">
	<rect id="XMLID_549_" x="1241.2" y="95.3" class="st2" width="264.8" height="5"/>
	
		<rect id="XMLID_550_" x="1150.8" y="47.1" transform="matrix(0.5608 0.8279 -0.8279 0.5608 572.6752 -980.3589)" class="st2" width="119.2" height="5"/>
</g>
<g id="XMLID_551_">
	<rect id="XMLID_552_" x="1437.4" y="-360.1" class="st0" width="264.8" height="5"/>
</g>
<rect id="XMLID_553_" x="1322.3" y="-350.4" transform="matrix(-0.9867 0.1625 -0.1625 -0.9867 2688.9512 -915.8126)" class="st0" width="119.2" height="5"/>
<g id="XMLID_554_">
	
		<rect id="XMLID_555_" x="666.8" y="16.4" transform="matrix(-0.6623 0.7492 -0.7492 -0.6623 1221.7278 -512.7845)" class="st14" width="119.2" height="5"/>
</g>
<rect id="XMLID_556_" x="423.9" y="62.7" class="st14" width="264.8" height="5"/>
<g id="XMLID_557_">
	<g id="XMLID_634_">
		<path id="XMLID_640_" class="st2" d="M898.5,1955h-0.9c-0.2,0-0.8,0-1.6-1.2c-0.1-0.1-0.3-0.5-0.3-1.5v-15.8v-1.9l-1.4,1.4
			l-1.6,1.6c-4.1,4.2-5.2,5.2-5.5,5.4c-0.4,0.3-0.8,0.4-1.2,0.4c-1,0-2.2-0.8-3.6-2.3c-3.9-3.9-5-4.8-5.1-4.9l-1.3-1v1.6v16
			c0,1-0.3,1.7-1.9,2.2h-0.8c-0.2,0-0.9,0-1.6-1.3c-0.1-0.3-0.2-0.5-0.2-0.7v-24.4c0-0.3,0-1.1,1.5-1.8c0.3-0.1,0.5-0.1,0.5-0.1h0.6
			c0.2,0,1.1,0.2,2.7,2.1l0.3,0.3l0.2,0.3h0.1c0.7,0.7,2.6,2.6,7.2,7.2l0.6,0.7l0.6,0.6l0.6-0.6l0.6-0.7c7.2-7.3,9.2-9.2,9.7-9.7
			c0.5-0.2,0.8-0.3,0.9-0.3h0.6c0.7,0,1.3,0.4,1.8,1.3c0.1,0.3,0.1,0.5,0.1,0.5v24.7c0,0.2,0,0.8-1.3,1.6
			C898.7,1955,898.5,1955,898.5,1955L898.5,1955z"/>
		<path id="XMLID_639_" class="st2" d="M932.6,1955H932c-1.1,0-1.9-1.6-2.4-3l0,0l0,0c-7.8-15.4-8.7-17.2-8.7-17.2l-0.8-1.4
			l-0.7,1.5l-0.8,1.7c-6.9,13.8-8.7,17.3-9,17.9c-0.5,0.5-1,0.7-1.4,0.7h-0.6c-0.6,0-1.2-0.4-1.7-1.3c-0.1-0.4-0.1-0.6-0.1-0.6v-0.4
			c0-0.1,0.2-0.9,2.1-4.4l10.5-20.8c0.6-0.7,1.1-0.8,1.5-0.8h0.7c1.1,0,1.9,1.6,2.4,2.9l0,0l0,0c6.6,13.1,10.7,21.1,11.5,22.8v0.8
			c0,0.2,0,0.9-1.4,1.6C932.8,1955,932.6,1955,932.6,1955L932.6,1955z"/>
		<path id="XMLID_638_" class="st2" d="M1035.9,1955h-25c-0.2,0-1,0-1.7-1.4c-0.1-0.3-0.1-0.4-0.1-0.5v-24.4c0-0.4,0-1.2,1.6-1.9
			c0.2-0.1,0.3-0.1,0.4-0.1h24.7c0.7,0,1.3,0.4,1.8,1.3c0.1,0.4,0.1,0.5,0.1,0.5v0.9c0,0.2,0,0.9-1.3,1.6c-0.3,0.1-0.6,0.2-0.8,0.2
			h-21.1h-0.8v0.8v5.9v0.8h0.8h16.5c1.6,0,2.2,0.7,2.5,1.3c0.2,0.3,0.2,0.5,0.2,0.6v0.6c0,0.4,0,1.2-1.6,1.9c-0.2,0-0.3,0.1-0.4,0.1
			h-17.2h-0.8v0.8v5.9v0.8h0.8h20.7c1.5,0,2.2,0.5,2.6,1.8v1c0,0.2,0,0.8-1.3,1.6C1036.1,1955,1035.9,1955,1035.9,1955L1035.9,1955z
			"/>
		<path id="XMLID_637_" class="st2" d="M1070.1,1955h-25c-0.3,0-1,0-1.7-1.4c-0.1-0.3-0.1-0.4-0.1-0.5v-24.4c0-0.4,0-1.2,1.6-1.9
			c0.2-0.1,0.3-0.1,0.4-0.1h0.6c0.2,0,1,0,1.8,1.3c0.1,0.2,0.2,0.5,0.2,0.9v20.7v0.8h0.8h20.7c1.5,0,2.2,0.5,2.6,1.8v1
			c0,0.2,0,0.8-1.3,1.6C1070.3,1955,1070.2,1955,1070.1,1955L1070.1,1955z"/>
		<path id="XMLID_636_" class="st2" d="M966.3,1955h-0.9c0,0-0.8,0-2.9-2.3l0,0l0,0c-0.5-0.4-3.9-3.5-9.9-9.1l-0.3-0.2l-0.2-0.2
			h-0.3h-6.3h-0.8v0.8v9c0,0.7-0.2,1.5-1.7,2.1c-0.1,0-0.1,0-0.1,0H942c-0.2,0-1,0-1.7-1.4c-0.1-0.3-0.1-0.4-0.1-0.5v-13.8h5h14.1
			c2.4,0,4.4-2.1,4.4-4.6s-2-4.6-4.4-4.6h-14.1h-5v-1.5c0-0.4,0-1.2,1.6-1.9c0.2,0,0.3-0.1,0.4-0.1h18.9c2.2,0,4.2,1,6.1,3.1
			c1.1,1.6,1.7,3.1,1.7,4.4v1.3c0,2.1-1,4-3.1,5.8c-1.7,1.1-2.7,1.4-3.1,1.5l0,0l0,0l-0.7,0.2l-1,0.1l-1.7,0.2l1.2,1.2l1.4,1.3l0,0
			l0,0c2.9,2.6,5.2,4.7,6.2,5.7c0.3,0.5,0.4,0.9,0.4,1.2c0,0.7-0.2,1.4-1.5,2.1C966.5,1955,966.4,1955,966.3,1955L966.3,1955z"/>
		<path id="XMLID_635_" class="st2" d="M995.1,1955h-18.9c-0.1,0-0.2,0-0.4-0.1c-1.6-0.7-1.6-1.5-1.6-1.8v-2.2h5h14.1
			c1.1,0,2.1-0.4,2.9-1.1c1-0.8,1.5-1.9,1.5-3.1c0-1.4-0.7-2.6-1.9-3.4c-0.7-0.5-1.6-0.8-2.5-0.8h-14.1h-4.9v-3.9h4.9h12.3
			c0.9,0,1.8-0.2,2.5-0.7c1.2-0.7,1.9-1.9,1.9-3.2c0-1.1-0.6-2.2-1.5-3c-0.8-0.6-1.8-1-2.9-1h-12.3h-5v-2.1c0-0.4,0-1.2,1.6-1.8
			c0.2,0,0.2-0.1,0.3-0.1h17.1c2.2,0,4.2,1,6.1,3c1.1,1.6,1.7,3,1.7,4.3v1.3c0,1.5-0.5,2.8-1.6,4.2l-0.6,0.7l0.8,0.5l0.2,0.1
			c2.1,1.8,3.1,3.7,3.1,5.7v1.3c0,1.3-0.6,2.7-1.7,4.3C999.3,1954,997.3,1955,995.1,1955L995.1,1955z"/>
	</g>
</g>
</svg>
