<?xml version="1.0" encoding="utf-8"?>
<!-- Generator: Adobe Illustrator 19.0.0, SVG Export Plug-In . SVG Version: 6.00 Build 0)  -->
<svg version="1.1" id="Layer_1" xmlns="http://www.w3.org/2000/svg" xmlns:xlink="http://www.w3.org/1999/xlink" x="0px" y="0px"
	 viewBox="-296 388.7 17.4 17.3" style="enable-background:new -296 388.7 17.4 17.3;" xml:space="preserve">
<style type="text/css">
	.st0{fill:#D4DCDF;}
</style>
<path class="st0" d="M-292.3,400.3c0,0-0.1,0-0.1,0c-0.1,0-0.2,0-0.3,0c-0.3,0-0.5-0.1-0.8-0.2c-0.3-0.1-0.6-0.3-0.8-0.5
	c-0.3-0.2-0.5-0.5-0.6-0.8c-0.1-0.3-0.2-0.5-0.3-0.8c-0.1-0.3-0.1-0.7,0-1c0-0.3,0.1-0.6,0.3-0.9c0.2-0.3,0.4-0.6,0.6-0.9
	c0.3-0.3,0.6-0.5,0.9-0.6c0.2-0.1,0.4-0.1,0.6-0.2c0.2,0,0.4-0.1,0.6-0.1c0.2,0,0.4,0,0.6,0c0.2,0,0.4,0.1,0.6,0.2
	c0.4,0.1,0.7,0.4,1,0.6c0.3,0.3,0.5,0.6,0.7,0.9c0.1,0.3,0.2,0.6,0.3,0.9c0,0.3,0,0.7,0,1c-0.1,0.3-0.1,0.6-0.3,0.8
	c-0.2,0.3-0.4,0.6-0.6,0.8c-0.2,0.2-0.5,0.4-0.8,0.6c-0.3,0.1-0.5,0.2-0.8,0.2c-0.1,0-0.2,0-0.3,0
	C-292.1,400.3-292.1,400.3-292.3,400.3C-292.2,400.3-292.2,400.3-292.3,400.3z M-292.3,400c0,0,0.1,0,0.1,0c0.1,0,0.2,0,0.3,0
	c0.2,0,0.5-0.1,0.7-0.2c0.3-0.1,0.5-0.3,0.8-0.5c0.2-0.2,0.4-0.5,0.6-0.7c0.1-0.2,0.2-0.5,0.3-0.7c0.1-0.3,0.1-0.6,0-0.9
	c0-0.3-0.1-0.6-0.2-0.8c-0.1-0.3-0.3-0.6-0.6-0.8c-0.2-0.2-0.5-0.4-0.9-0.6c-0.2-0.1-0.4-0.1-0.5-0.2c-0.2,0-0.3-0.1-0.5-0.1
	c-0.2,0-0.4,0-0.5,0c-0.2,0-0.4,0.1-0.5,0.2c-0.3,0.1-0.6,0.3-0.9,0.6c-0.2,0.2-0.4,0.5-0.6,0.8c-0.1,0.3-0.2,0.5-0.3,0.8
	c0,0.3,0,0.6,0,0.9c0,0.3,0.1,0.5,0.3,0.8c0.1,0.3,0.3,0.5,0.5,0.7c0.2,0.2,0.5,0.4,0.7,0.5c0.2,0.1,0.5,0.2,0.7,0.2
	c0.1,0,0.2,0,0.3,0C-292.4,400-292.4,400-292.3,400C-292.3,400-292.3,400-292.3,400z"/>
<g>
	<path class="st0" d="M-292.3,397.4C-292.3,397.4-292.3,397.4-292.3,397.4C-292.3,397.4-292.3,397.4-292.3,397.4
		c-0.1,0-0.1-0.1-0.2-0.1c0,0,0,0,0,0c0,0,0,0,0,0v-2.3c0,0,0,0,0,0c0,0,0,0,0,0c0,0,0,0,0,0c0,0,0,0,0,0c0,0,0.1,0,0.2,0
		c0,0,0,0,0,0c0,0,0,0.1,0,0.1c0,0,0,0,0,0c0,0,0,0,0,0v2.3c0,0,0,0,0,0c0,0,0,0,0,0C-292.1,397.3-292.1,397.3-292.3,397.4
		C-292.2,397.4-292.2,397.4-292.3,397.4C-292.2,397.4-292.2,397.4-292.3,397.4C-292.3,397.4-292.3,397.4-292.3,397.4z"/>
	<g transform="matrix(2.83277e-16,1,-0.622237,1.76265e-16,81.1655,-0.0695371)">
		<path class="st0" d="M397.3,600.3C397.2,600.3,397.2,600.3,397.3,600.3C397.2,600.3,397.2,600.3,397.3,600.3
			c-0.1,0-0.1-0.1-0.2-0.1c0,0,0,0,0,0c0,0,0,0,0,0v-2.3c0,0,0,0,0,0c0,0,0,0,0,0c0,0,0,0,0,0c0,0,0,0,0,0c0,0,0.1,0,0.2,0
			c0,0,0,0,0,0c0,0,0,0.1,0,0.1c0,0,0,0,0,0c0,0,0,0,0,0v2.3c0,0,0,0,0,0c0,0,0,0,0,0C397.4,600.2,397.4,600.3,397.3,600.3
			C397.3,600.3,397.3,600.3,397.3,600.3C397.3,600.3,397.3,600.3,397.3,600.3C397.3,600.3,397.3,600.3,397.3,600.3z"/>
	</g>
</g>
</svg>
