<?xml version="1.0" encoding="utf-8"?>
<!-- Generator: Adobe Illustrator 19.0.0, SVG Export Plug-In . SVG Version: 6.00 Build 0)  -->
<svg version="1.1" id="Layer_1" xmlns="http://www.w3.org/2000/svg" xmlns:xlink="http://www.w3.org/1999/xlink" x="0px" y="0px"
	 viewBox="-675 340.5 1050 207" style="enable-background:new -675 340.5 1050 207;" xml:space="preserve">
<style type="text/css">
	.st0{fill:none;stroke:#AEB2B7;stroke-width:0.75;stroke-miterlimit:10;}
	.st1{fill:#AEB2B7;}
	.st2{fill:none;stroke:#00AEEF;stroke-width:0.75;stroke-miterlimit:10;}
	.st3{fill:#00AEEF;stroke:#FFFFFF;stroke-width:0.3;stroke-miterlimit:10;}
	.st4{fill:#00AEEF;}
	.st5{font-family:'ProximaNova-Regular';}
	.st6{font-size:17.1609px;}
	.st7{fill:none;stroke:#00AEEF;stroke-miterlimit:10;}
	.st8{fill:#AEB2B7;stroke:#FFFFFF;stroke-width:0.25;stroke-miterlimit:10;}
	.st9{fill:#AEB2B7;stroke:#FFFFFF;stroke-width:1.3;stroke-miterlimit:10;}
</style>
<g id="XMLID_52_">
	<circle id="XMLID_159_" class="st0" cx="293.9" cy="423.3" r="58.2"/>
	<g id="XMLID_64_">
		<g id="XMLID_220_">
			<path id="XMLID_224_" class="st1" d="M327,409.1L327,409.1c0-0.2-0.2-0.4-0.4-0.6l0,0l0,0L295,390.2c-0.2-0.2-0.6-0.2-1,0
				l-31.6,18.1l0,0l0,0l-0.2,0.2l0,0l0,0c0,0,0,0.2-0.2,0.2l0,0l0,0v27.2c0,0.4,0.2,0.6,0.4,0.8l31.6,18.1c0.2,0,0.2,0.2,0.4,0.2
				l0,0l0,0l0,0h0.2c0,0,0.2,0,0.2-0.2l31.6-18.1c0.2-0.2,0.4-0.4,0.4-0.8L327,409.1C327,409.3,327,409.1,327,409.1z M294.6,392
				l29.8,17.2l-10.8,6.2l-29.8-17.2L294.6,392z M313.4,431.8l-6.5,3.7v-14.1l6.5-3.7V431.8z M294.6,426.5l-29.8-17.2l10.3-5.9
				l29.6,17.4L294.6,426.5z M282.6,398.9l29.8,17.2l-6.5,3.7l-29.6-17.4L282.6,398.9z M263.9,410.9l29.8,17.2v25l-29.8-17.2V410.9z
				 M295.4,453.1v-25l10.1-5.7v14.4c0,0.2,0.2,0.4,0.4,0.6c0,0,0.2,0,0.4,0s0.2,0,0.4,0l7.7-4.5c0.2-0.2,0.4-0.4,0.4-0.6V417
				l10.7-6.1v25L295.4,453.1z"/>
			<path id="XMLID_223_" class="st1" d="M308.5,430.2c0.4,0,0.6-0.2,0.6-0.6v-7.3c0-0.4-0.2-0.6-0.6-0.6s-0.6,0.2-0.6,0.6v7.3
				C307.9,429.8,308.1,430.2,308.5,430.2z"/>
			<path id="XMLID_222_" class="st1" d="M308.5,433.2c0.4,0,0.6-0.2,0.6-0.6v-0.4c0-0.4-0.2-0.6-0.6-0.6s-0.6,0.2-0.6,0.6v0.4
				C307.9,432.8,308.1,433.2,308.5,433.2z"/>
			<path id="XMLID_221_" class="st1" d="M282,403.2l22.9,13.2c0,0,0.2,0,0.4,0s0.4-0.2,0.6-0.4c0.2-0.2,0-0.6-0.2-0.8L282.8,402
				c-0.2-0.2-0.6,0-0.8,0.2C281.6,402.6,281.6,403,282,403.2z"/>
		</g>
	</g>
</g>
<g id="XMLID_39_">
	<circle id="XMLID_132_" class="st0" cx="73.4" cy="423.9" r="58.2"/>
	<g id="XMLID_40_">
		<path id="XMLID_48_" class="st1" d="M73.6,430h0.2c0.2,0,0.2,0,0.4-0.2C80.9,429,86,423.7,87,417c0.2-0.2,0.2-0.4,0-0.6
			c0-0.4,0-0.8,0-1.2c0-8.1-6.7-14.8-14.8-14.8c-0.4,0-0.8,0-1.2,0c-0.2,0-0.4,0-0.6,0c-6.7,0.8-11.8,6.1-12.8,12.8
			c-0.2,0.2-0.2,0.4,0,0.6c0,0.4,0,0.8,0,1.2c0,8.1,6.7,14.8,14.8,14.8C72.8,430,73.2,430,73.6,430z M71.2,428.7l14.4-14.4
			c0,0.4,0,0.8,0,1.2s0,0.8,0,1.2l-12,12c-0.4,0-0.8,0-1.2,0S71.6,428.7,71.2,428.7z M64.7,426.3L64.7,426.3l18.5-18.5l0,0
			c0.4,0.4,0.6,1,1,1.4l-17.9,17.9C65.7,426.9,65.3,426.5,64.7,426.3z M84.8,410.7c0.2,0.6,0.4,1.2,0.6,1.8c0,0-0.2,0-0.2,0.2
			l-15.4,15.4l-0.2,0.2c-0.6-0.2-1.2-0.4-1.8-0.6L84.8,410.7z M76.1,428.1l8.9-8.9C83.8,423.5,80.5,426.9,76.1,428.1z M61.5,422.9
			c-0.4-0.4-0.6-1-1-1.4l17.9-17.9c0.6,0.2,1,0.6,1.4,1l0,0L61.5,422.9L61.5,422.9z M59.4,418.2c0,0,0.2,0,0.2-0.2L75,402.6l0.2-0.2
			c0.6,0.2,1.2,0.4,1.8,0.6l-17.2,17.2C59.8,419.4,59.6,418.8,59.4,418.2z M73.6,402.2l-14.4,14.4c0-0.4,0-0.8,0-1.2
			c0-0.4,0-0.8,0-1.2l12-12c0.4,0,0.8,0,1.2,0C72.8,402,73.2,402,73.6,402.2z M68.6,402.6l-8.9,8.9C60.9,407.4,64.3,404,68.6,402.6z
			 M62.3,424.1C62.5,424.1,62.5,424.1,62.3,424.1l18.5-18.5c0,0,0-0.2,0.2-0.2c0.4,0.4,0.8,0.8,1.2,1.2c0,0-0.2,0-0.2,0.2
			l-18.3,18.3c0,0,0,0.2-0.2,0.2C63.1,424.9,62.7,424.5,62.3,424.1z"/>
		<path id="XMLID_41_" class="st1" d="M82.4,433h3.2c0.4,0,0.6-0.2,0.8-0.6l1-4.9l4.5-2c0.4-0.2,0.6-0.6,0.4-0.8l-1.2-4.7l3.2-3.7
			c0.2-0.2,0.2-0.6,0-1l-3.2-3.7l1.2-4.7c0-0.4,0-0.8-0.4-0.8l-4.5-2l-1-4.9c0-0.4-0.4-0.6-0.8-0.6h-4.9l-3-3.9
			c-0.2-0.2-0.6-0.4-1-0.2l-4.3,2.2l-4.3-2.2c-0.4-0.2-0.8,0-1,0.2l-3,3.9h-4.9c-0.4,0-0.6,0.2-0.8,0.6l-1,4.9l-4.5,2
			c-0.4,0.2-0.6,0.6-0.4,0.8l1.2,4.7l-3.2,3.7c-0.2,0.2-0.2,0.6,0,1l3.2,3.7l-1.2,4.7c0,0.4,0,0.8,0.4,0.8l4.5,2l1,4.9
			c0,0.4,0.4,0.6,0.8,0.6h3.2l-11.8,19.5c-0.2,0.2-0.2,0.6,0,0.8c0.2,0.2,0.4,0.4,0.8,0.4l7.5-1.4l2,6.7c0,0.2,0.4,0.4,0.6,0.6l0,0
			c0.2,0,0.6-0.2,0.6-0.4l10.5-18.1l10.5,18.1c0.2,0.2,0.4,0.4,0.6,0.4l0,0c0.2,0,0.6-0.2,0.6-0.6l2-6.7l7.5,1.4
			c0.2,0,0.6,0,0.8-0.4c0.2-0.2,0.2-0.6,0-0.8L82.4,433z M58.8,426.9c0-0.2-0.2-0.4-0.4-0.6l-4.3-2l1.2-4.5c0-0.2,0-0.4-0.2-0.6
			l-3-3.6l3-3.6c0.2-0.2,0.2-0.4,0.2-0.6L54,407l4.3-2c0.2,0,0.4-0.2,0.4-0.6l1-4.5h4.7c0.2,0,0.4-0.2,0.6-0.2l3-3.7l4.1,2.2
			c0.2,0.2,0.4,0.2,0.6,0l4.1-2.2l3,3.7c0.2,0.2,0.4,0.2,0.6,0.2h4.7l1,4.5c0,0.2,0.2,0.4,0.4,0.6l4.3,2l-1.2,4.5
			c0,0.2,0,0.4,0.2,0.6l3,3.6l-3,3.6c-0.2,0.2-0.2,0.4-0.2,0.6l1.2,4.5l-4.3,2c-0.2,0-0.4,0.2-0.4,0.6l-1,4.5h-4.7
			c-0.2,0-0.4,0.2-0.6,0.2l-3,3.7l-4.1-2.2c-0.2-0.2-0.4-0.2-0.6,0l-4.1,2.2l-3-3.7c-0.2-0.2-0.4-0.2-0.6-0.2l0,0h-4.7L58.8,426.9z
			 M61.5,457.1l-1.8-5.7c-0.2-0.4-0.4-0.6-0.8-0.6l-6.5,1.2l11.5-19l0,0l3,3.9c0.2,0.2,0.6,0.4,1,0.2l1.6-0.8l2,3.4L61.5,457.1z
			 M85.8,450.8c-0.4,0-0.8,0.2-0.8,0.6l-1.8,5.7l-12.4-21.5l1.6-0.8l4.3,2.2c0.2,0,0.2,0,0.4,0s0.4-0.2,0.6-0.2l3-3.9l0,0l11.4,18.9
			L85.8,450.8z"/>
	</g>
</g>
<g id="XMLID_99_">
	<circle id="XMLID_62_" class="st2" cx="-587.9" cy="423.7" r="58.2"/>
	<g id="XMLID_54_">
		<path id="XMLID_55_" class="st3" d="M-570.3,453.1h9.7c0.2,0,0.2,0,0.4,0s0.4,0.2,0.6,0.4c0.2,0.2,0.2,0.2,0.2,0.4
			c0.2,0.4,0.2,0.8,0,1.2l-0.2,0.2l-0.2,0.2c-0.2,0-0.4,0.2-0.4,0.2h-0.2c-19.1,0-38.3,0-57.4,0h-0.2c-0.2,0-0.4,0-0.4-0.2
			c-0.2,0-0.2-0.2-0.4-0.4l-0.2-0.2c-0.2-0.4-0.2-0.8,0-1.2l0.2-0.2c0.2-0.2,0.4-0.2,0.6-0.4c0.2,0,0.2,0,0.4,0h9.7v-56.8v-0.2
			c0-0.2,0-0.2,0-0.4c0.2-0.4,0.4-0.6,0.8-0.8c0.2,0,0.2,0,0.4,0h35.3c0.2,0,0.2,0,0.4,0c0.4,0.2,0.8,0.4,0.8,0.8c0,0.2,0,0.2,0,0.4
			v0.2v56.8H-570.3z M-577.2,453.1h4.1v-55.6h-32.7c0,18.5,0,37.1,0,55.6h4.1c0-1,0-2,0-3c0-0.2,0-0.4,0.2-0.6
			c0-0.2,0.2-0.2,0.4-0.4c0.2-0.2,0.2-0.2,0.4-0.2c0.4-0.2,1,0,1.4,0.2l0.2,0.2c0.2,0.2,0.2,0.4,0.2,0.6c0,1,0,2,0,3h19.1
			c0-1,0-2,0-3c0-0.2,0-0.4,0.2-0.6c0-0.2,0.2-0.2,0.2-0.2c0.4-0.4,0.8-0.4,1.4-0.2c0.2,0,0.2,0.2,0.4,0.2c0.2,0.2,0.2,0.2,0.4,0.4
			c0,0.2,0.2,0.4,0.2,0.6C-577.2,451.1-577.2,452.1-577.2,453.1z M-589.2,448.4c-0.6,0-1.2,0-1.8-0.2c-1.2-0.2-2.2-0.4-3.4-1
			c-1.2-0.6-2.4-1.4-3.4-2.4s-1.8-2-2.4-3.4c-0.6-1-0.8-2-1-3.2c-0.4-1.6-0.4-3.4,0-4.9c0.2-1.2,0.6-2.2,1.2-3.2
			c0.6-1.2,1.4-2.2,2.4-3.2s2.4-1.8,3.6-2.4c1.4-0.6,3-1,4.5-1c1.6,0,3.2,0.2,4.5,0.8c1.4,0.6,2.6,1.4,3.7,2.4c1,1,1.8,2,2.4,3.2
			c0.6,1,1,2.2,1.2,3.4c0.4,1.6,0.4,3.4,0,5.1c-0.2,1-0.6,2-1,3c-0.6,1.2-1.4,2.4-2.4,3.2c-1,1-2.2,1.8-3.4,2.4
			c-1,0.6-2.2,0.8-3.4,1c-0.6,0-1.2,0.2-1.8,0.2C-589.2,448.4-589.2,448.4-589.2,448.4z M-589.2,445.8c0.4,0,1,0,1.4,0
			c1-0.2,1.8-0.4,2.6-0.8c1-0.4,2-1,2.8-1.8c0.8-0.8,1.4-1.6,2-2.6c0.4-0.8,0.6-1.6,0.8-2.4c0.2-1.4,0.2-2.8,0-3.9
			c-0.2-0.8-0.4-1.6-0.8-2.4c-0.4-1-1.2-1.8-2-2.6c-0.8-0.8-1.8-1.4-3-2c-1.2-0.4-2.4-0.8-3.6-0.8s-2.6,0.2-3.6,0.6
			c-1,0.4-2,1-3,1.8c-0.8,0.8-1.4,1.6-2,2.6c-0.4,0.8-0.8,1.8-1,2.6c-0.2,1.2-0.2,2.6,0,3.9c0.2,0.8,0.4,1.6,0.8,2.2
			c0.4,1,1.2,2,1.8,2.6c0.8,0.8,1.6,1.4,2.6,2c0.8,0.4,1.8,0.6,2.6,0.8c0.4,0,0.8,0.2,1.4,0.2C-589.4,445.8-589.4,445.8-589.2,445.8
			z M-578.6,421.6c-0.2,0-0.2,0-0.4,0c-0.4-0.2-0.6-0.4-0.8-0.8c0-0.2,0-0.2,0-0.4c0-2.6,0-5.1,0-7.7c0-0.2,0-0.4,0.2-0.6
			c0-0.2,0.2-0.2,0.2-0.4c0.2-0.2,0.6-0.4,1-0.4c0.2,0,0.2,0,0.4,0s0.2,0.2,0.4,0.2c0.2,0.2,0.2,0.2,0.4,0.4c0,0.2,0.2,0.4,0.2,0.6
			c0,2.6,0,5.1,0,7.7c0,0.2,0,0.2,0,0.4c-0.2,0.4-0.4,0.6-0.8,0.8C-578.2,421.6-578.2,421.6-578.6,421.6
			C-578.4,421.6-578.4,421.6-578.6,421.6z M-600.3,421.6c-0.2,0-0.2,0-0.4,0c-0.4-0.2-0.6-0.4-0.8-0.8v-0.2v-0.2v-17.2V403v-0.2
			c0.2-0.4,0.4-0.6,0.8-0.8c0.2,0,0.2,0,0.4,0h6.3h0.2c0.2,0,0.4,0.2,0.6,0.4c0.2,0.2,0.2,0.2,0.2,0.4c0,0.2,0,0.2,0,0.4
			c0,0.2,0,0.2,0,0.4c0,0.4-0.4,0.8-0.8,1c-0.2,0-0.2,0-0.4,0.2h-0.2h-4.9v15.8l0,0c0,0.2,0,0.2,0,0.4c-0.2,0.4-0.4,0.6-0.8,0.8
			h-0.2C-600.1,421.6-600.1,421.6-600.3,421.6C-600.1,421.6-600.1,421.6-600.3,421.6z"/>
	</g>
</g>
<g id="XMLID_111_">
	<text id="XMLID_47_" transform="matrix(1 0 0 1 -637.1249 515.5488)" class="st4 st5 st6">Deposit Paid</text>
</g>
<g id="XMLID_112_">
	<g>
		<text id="XMLID_10_" transform="matrix(1 0 0 1 -416.9489 515.5488)" class="st1 st5 st6">Balance Paid</text>
	</g>
</g>
<g id="XMLID_113_">
	<text id="XMLID_83_" transform="matrix(1 0 0 1 -176.757 515.5488)" class="st1 st5 st6">Building</text>
</g>
<g id="XMLID_114_">
	<text id="XMLID_86_" transform="matrix(1 0 0 1 3.3869 515.5488)" class="st1 st5 st6">Quality Assurance</text>
</g>
<text id="XMLID_115_" transform="matrix(1 0 0 1 264.5956 515.5488)" class="st1 st5 st6">Shipping</text>
<line id="XMLID_35_" class="st7" x1="-529.7" y1="423.7" x2="-425.8" y2="423.7"/>
<line id="XMLID_36_" class="st0" x1="-309.4" y1="423.7" x2="-205.3" y2="423.7"/>
<line id="XMLID_38_" class="st0" x1="-89" y1="423.7" x2="15.2" y2="423.7"/>
<line id="XMLID_37_" class="st0" x1="132" y1="423.7" x2="236" y2="423.7"/>
<g id="XMLID_97_">
	<circle id="XMLID_94_" class="st0" cx="-147.1" cy="423.4" r="58.2"/>
	<path id="XMLID_87_" class="st8" d="M-154.8,420.1c1,0,2-0.2,3-0.8c1.4-0.8,2.4-2,2.8-3.6s0.2-3.2-0.6-4.5
		c-1.6-2.8-5.3-3.7-8.1-2.2c-2.8,1.6-3.7,5.3-2.2,8.1C-158.7,418.9-156.8,420.1-154.8,420.1z M-156.6,411c0.6-0.4,1.2-0.4,1.8-0.4
		c1.4,0,2.6,0.8,3.2,1.8c0.4,0.8,0.6,1.8,0.4,2.8c-0.2,1-0.8,1.8-1.8,2.2c-1.8,1-4.1,0.4-4.9-1.4C-158.9,414.2-158.4,412-156.6,411z
		 M-124,442.8l-5.5-9.7c-0.6-1-0.6-2-0.2-3.2l0.4-0.8c3-6.9,2.4-14.6-1.4-21.1c-4.1-7.3-12-11.8-20.7-11.8l0,0c-0.4,0-0.8,0.2-1,0.6
		s-0.2,0.8,0,1.2l2.2,3.9H-161c-0.4,0-0.8,0.2-1,0.6l-5.5,9.5l-2.2-3.9c-0.2-0.4-0.6-0.6-1-0.6l0,0c-0.4,0-0.8,0.2-1,0.6
		c-4.3,7.3-4.3,16.6-0.2,23.9c3.7,6.5,10.1,10.7,17.6,11.6l1,0.2c1.2,0.2,2,0.8,2.6,1.8l5.7,9.7c0.2,0.4,0.6,0.6,1,0.6h0.2
		c7.5-2,14.2-5.9,19.7-11.6C-123.8,443.7-123.8,443.2-124,442.8z M-147.7,426.6c-2.2,1.2-4.3,1.8-6.1,1.8c-2,0-3.7-0.6-5.1-2h10.5
		c0.4,0,0.8-0.2,1-0.6l5.3-9.1C-141,420.9-144,424.4-147.7,426.6z M-160.5,404.1h11.6l5.7,10.1l-5.7,10.1h-11.6l-5.7-10.1
		L-160.5,404.1z M-143.8,453.4l-5.1-8.9c-1-1.6-2.6-2.6-4.1-2.8l-0.8-0.2c-6.7-0.8-12.6-4.7-16-10.7c-3.6-6.1-3.7-13.6-0.8-19.9
		l2.2,3.7l0,0l6.5,11.2c0,0,0,0,0,0.2c2,3,4.7,4.7,8.3,4.7c2.4,0,4.9-0.8,7.3-2.2c6.3-3.6,8.5-9.5,5.7-14.8v-0.2l-0.2-0.2l0,0
		l-3.2-5.5l-3.2-5.3l0,0l-2.2-3.7c6.9,0.6,13.4,4.5,17,10.7c3.4,5.9,3.7,12.8,1.2,19.1l-0.4,0.8c-0.8,1.6-0.6,3.6,0.4,5.1l5.1,8.9
		C-131.3,448.1-137.2,451.4-143.8,453.4z"/>
</g>
<g id="XMLID_2_">
	<circle id="XMLID_31_" class="st0" cx="-367.6" cy="423.4" r="58.2"/>
	<g id="XMLID_29_">
		<path id="XMLID_30_" class="st9" d="M-370.9,456.4v-8.1c-4.7,0-9.5-1.6-12.2-3.4l1.8-5.5c3,1.8,7.1,3.4,11.4,3.4
			c5.7,0,9.7-3.4,9.7-7.9c0-4.3-3.2-7.1-9.1-9.7c-8.1-3.2-13.2-7.1-13.2-13.8c0-6.5,4.7-11.6,12-12.8v-8.1h4.9v7.9
			c4.7,0.2,8.1,1.6,10.5,3l-2.2,5.1c-1.6-1-4.9-3-10.3-3c-6.3,0-8.7,3.6-8.7,7.1c0,4.1,3,6.3,9.9,9.1c8.3,3.4,12.4,7.5,12.4,14.6
			c0,6.5-4.3,12.2-12.4,13.6v8.3L-370.9,456.4L-370.9,456.4z"/>
	</g>
</g>
</svg>
