<?xml version="1.0" encoding="utf-8"?>
<!-- Generator: Adobe Illustrator 19.0.0, SVG Export Plug-In . SVG Version: 6.00 Build 0)  -->
<svg version="1.1" id="Layer_1" xmlns="http://www.w3.org/2000/svg" xmlns:xlink="http://www.w3.org/1999/xlink" x="0px" y="0px"
	 viewBox="-260 340.5 90 112.5" style="enable-background:new -260 340.5 90 112.5;" xml:space="preserve">
<style type="text/css">
	.st0{fill:none;stroke:#AEB2B7;stroke-width:0.75;stroke-miterlimit:10;}
	.st1{fill:#AEB2B7;stroke:#FFFFFF;stroke-width:0.3;stroke-miterlimit:10;}
</style>
<circle class="st0" cx="-217.5" cy="397.5" r="29.5"/>
<g>
	<path class="st1" d="M-208.6,411.4h4.9c0.1,0,0.1,0,0.2,0c0.1,0,0.2,0.1,0.3,0.2s0.1,0.1,0.1,0.2c0.1,0.2,0.1,0.4,0,0.6l-0.1,0.1
		l-0.1,0.1c-0.1,0-0.2,0.1-0.2,0.1h-0.1c-9.7,0-19.4,0-29.1,0h-0.1c-0.1,0-0.2,0-0.2-0.1c-0.1,0-0.1-0.1-0.2-0.2l-0.1-0.1
		c-0.1-0.2-0.1-0.4,0-0.6l0.1-0.1c0.1-0.1,0.2-0.1,0.3-0.2c0.1,0,0.1,0,0.2,0h4.9v-28.8v-0.1c0-0.1,0-0.1,0-0.2
		c0.1-0.2,0.2-0.3,0.4-0.4c0.1,0,0.1,0,0.2,0h17.9c0.1,0,0.1,0,0.2,0c0.2,0.1,0.4,0.2,0.4,0.4c0,0.1,0,0.1,0,0.2v0.1v28.8H-208.6z
		 M-212.1,411.4h2.1v-28.2h-16.6c0,9.4,0,18.8,0,28.2h2.1c0-0.5,0-1,0-1.5c0-0.1,0-0.2,0.1-0.3c0-0.1,0.1-0.1,0.2-0.2
		c0.1-0.1,0.1-0.1,0.2-0.1c0.2-0.1,0.5,0,0.7,0.1l0.1,0.1c0.1,0.1,0.1,0.2,0.1,0.3c0,0.5,0,1,0,1.5h9.7c0-0.5,0-1,0-1.5
		c0-0.1,0-0.2,0.1-0.3c0-0.1,0.1-0.1,0.1-0.1c0.2-0.2,0.4-0.2,0.7-0.1c0.1,0,0.1,0.1,0.2,0.1c0.1,0.1,0.1,0.1,0.2,0.2
		c0,0.1,0.1,0.2,0.1,0.3C-212.1,410.4-212.1,410.9-212.1,411.4z M-218.2,409c-0.3,0-0.6,0-0.9-0.1c-0.6-0.1-1.1-0.2-1.7-0.5
		c-0.6-0.3-1.2-0.7-1.7-1.2s-0.9-1-1.2-1.7c-0.3-0.5-0.4-1-0.5-1.6c-0.2-0.8-0.2-1.7,0-2.5c0.1-0.6,0.3-1.1,0.6-1.6
		c0.3-0.6,0.7-1.1,1.2-1.6s1.2-0.9,1.8-1.2c0.7-0.3,1.5-0.5,2.3-0.5s1.6,0.1,2.3,0.4s1.3,0.7,1.9,1.2c0.5,0.5,0.9,1,1.2,1.6
		c0.3,0.5,0.5,1.1,0.6,1.7c0.2,0.8,0.2,1.7,0,2.6c-0.1,0.5-0.3,1-0.5,1.5c-0.3,0.6-0.7,1.2-1.2,1.6c-0.5,0.5-1.1,0.9-1.7,1.2
		c-0.5,0.3-1.1,0.4-1.7,0.5c-0.3,0-0.6,0.1-0.9,0.1C-218.2,409-218.2,409-218.2,409z M-218.2,407.7c0.2,0,0.5,0,0.7,0
		c0.5-0.1,0.9-0.2,1.3-0.4c0.5-0.2,1-0.5,1.4-0.9s0.7-0.8,1-1.3c0.2-0.4,0.3-0.8,0.4-1.2c0.1-0.7,0.1-1.4,0-2
		c-0.1-0.4-0.2-0.8-0.4-1.2c-0.2-0.5-0.6-0.9-1-1.3s-0.9-0.7-1.5-1c-0.6-0.2-1.2-0.4-1.8-0.4s-1.3,0.1-1.8,0.3
		c-0.5,0.2-1,0.5-1.5,0.9c-0.4,0.4-0.7,0.8-1,1.3c-0.2,0.4-0.4,0.9-0.5,1.3c-0.1,0.6-0.1,1.3,0,2c0.1,0.4,0.2,0.8,0.4,1.1
		c0.2,0.5,0.6,1,0.9,1.3c0.4,0.4,0.8,0.7,1.3,1c0.4,0.2,0.9,0.3,1.3,0.4c0.2,0,0.4,0.1,0.7,0.1
		C-218.3,407.7-218.3,407.7-218.2,407.7z M-212.8,395.4c-0.1,0-0.1,0-0.2,0c-0.2-0.1-0.3-0.2-0.4-0.4c0-0.1,0-0.1,0-0.2
		c0-1.3,0-2.6,0-3.9c0-0.1,0-0.2,0.1-0.3c0-0.1,0.1-0.1,0.1-0.2c0.1-0.1,0.3-0.2,0.5-0.2c0.1,0,0.1,0,0.2,0c0.1,0,0.1,0.1,0.2,0.1
		c0.1,0.1,0.1,0.1,0.2,0.2c0,0.1,0.1,0.2,0.1,0.3c0,1.3,0,2.6,0,3.9c0,0.1,0,0.1,0,0.2c-0.1,0.2-0.2,0.3-0.4,0.4
		C-212.6,395.4-212.6,395.4-212.8,395.4C-212.7,395.4-212.7,395.4-212.8,395.4z M-223.8,395.4c-0.1,0-0.1,0-0.2,0
		c-0.2-0.1-0.3-0.2-0.4-0.4v-0.1v-0.1v-8.7V386v-0.1c0.1-0.2,0.2-0.3,0.4-0.4c0.1,0,0.1,0,0.2,0h3.2h0.1c0.1,0,0.2,0.1,0.3,0.2
		s0.1,0.1,0.1,0.2s0,0.1,0,0.2s0,0.1,0,0.2c0,0.2-0.2,0.4-0.4,0.5c-0.1,0-0.1,0-0.2,0.1h-0.1h-2.5v8l0,0c0,0.1,0,0.1,0,0.2
		c-0.1,0.2-0.2,0.3-0.4,0.4h-0.1C-223.7,395.4-223.7,395.4-223.8,395.4C-223.7,395.4-223.7,395.4-223.8,395.4z"/>
</g>
</svg>
