<?xml version="1.0" encoding="utf-8"?>
<!-- Generator: Adobe Illustrator 19.0.0, SVG Export Plug-In . SVG Version: 6.00 Build 0)  -->
<svg version="1.1" id="Layer_1" xmlns="http://www.w3.org/2000/svg" xmlns:xlink="http://www.w3.org/1999/xlink" x="0px" y="0px"
	 viewBox="-260 340.5 90 112.5" style="enable-background:new -260 340.5 90 112.5;" xml:space="preserve">
<style type="text/css">
	.st0{fill:none;stroke:#AEB2B7;stroke-width:0.75;stroke-miterlimit:10;}
	.st1{fill:#AEB2B7;}
</style>
<circle class="st0" cx="-217.5" cy="397.5" r="29.5"/>
<g>
	<path class="st1" d="M-217.4,400.6h0.1c0.1,0,0.1,0,0.2-0.1c3.4-0.4,6-3.1,6.5-6.5c0.1-0.1,0.1-0.2,0-0.3c0-0.2,0-0.4,0-0.6
		c0-4.1-3.4-7.5-7.5-7.5c-0.2,0-0.4,0-0.6,0c-0.1,0-0.2,0-0.3,0c-3.4,0.4-6,3.1-6.5,6.5c-0.1,0.1-0.1,0.2,0,0.3c0,0.2,0,0.4,0,0.6
		c0,4.1,3.4,7.5,7.5,7.5C-217.8,400.6-217.6,400.6-217.4,400.6z M-218.6,399.9l7.3-7.3c0,0.2,0,0.4,0,0.6s0,0.4,0,0.6l-6.1,6.1
		c-0.2,0-0.4,0-0.6,0C-218.2,399.9-218.4,399.9-218.6,399.9z M-221.9,398.7L-221.9,398.7l9.4-9.4l0,0c0.2,0.2,0.3,0.5,0.5,0.7
		l-9.1,9.1C-221.4,399-221.6,398.8-221.9,398.7z M-211.7,390.8c0.1,0.3,0.2,0.6,0.3,0.9c0,0-0.1,0-0.1,0.1l-7.8,7.8l-0.1,0.1
		c-0.3-0.1-0.6-0.2-0.9-0.3L-211.7,390.8z M-216.1,399.6l4.5-4.5C-212.2,397.3-213.9,399-216.1,399.6z M-223.5,397
		c-0.2-0.2-0.3-0.5-0.5-0.7l9.1-9.1c0.3,0.1,0.5,0.3,0.7,0.5l0,0L-223.5,397L-223.5,397z M-224.6,394.6c0,0,0.1,0,0.1-0.1l7.8-7.8
		l0.1-0.1c0.3,0.1,0.6,0.2,0.9,0.3l-8.7,8.7C-224.4,395.2-224.5,394.9-224.6,394.6z M-217.4,386.5l-7.3,7.3c0-0.2,0-0.4,0-0.6
		s0-0.4,0-0.6l6.1-6.1c0.2,0,0.4,0,0.6,0C-217.8,386.4-217.6,386.4-217.4,386.5z M-219.9,386.7l-4.5,4.5
		C-223.8,389.1-222.1,387.4-219.9,386.7z M-223.1,397.6C-223,397.6-223,397.6-223.1,397.6l9.4-9.4c0,0,0-0.1,0.1-0.1
		c0.2,0.2,0.4,0.4,0.6,0.6c0,0-0.1,0-0.1,0.1l-9.3,9.3c0,0,0,0.1-0.1,0.1C-222.7,398-222.9,397.8-223.1,397.6z"/>
	<path class="st1" d="M-212.9,402.1h1.6c0.2,0,0.3-0.1,0.4-0.3l0.5-2.5l2.3-1c0.2-0.1,0.3-0.3,0.2-0.4l-0.6-2.4l1.6-1.9
		c0.1-0.1,0.1-0.3,0-0.5l-1.6-1.9l0.6-2.4c0-0.2,0-0.4-0.2-0.4l-2.3-1l-0.5-2.5c0-0.2-0.2-0.3-0.4-0.3h-2.5l-1.5-2
		c-0.1-0.1-0.3-0.2-0.5-0.1l-2.2,1.1l-2.2-1.1c-0.2-0.1-0.4,0-0.5,0.1l-1.5,2h-2.5c-0.2,0-0.3,0.1-0.4,0.3l-0.5,2.5l-2.3,1
		c-0.2,0.1-0.3,0.3-0.2,0.4l0.6,2.4l-1.6,1.9c-0.1,0.1-0.1,0.3,0,0.5l1.6,1.9l-0.6,2.4c0,0.2,0,0.4,0.2,0.4l2.3,1l0.5,2.5
		c0,0.2,0.2,0.3,0.4,0.3h1.6l-6,9.9c-0.1,0.1-0.1,0.3,0,0.4s0.2,0.2,0.4,0.2l3.8-0.7l1,3.4c0,0.1,0.2,0.2,0.3,0.3l0,0
		c0.1,0,0.3-0.1,0.3-0.2l5.3-9.2l5.3,9.2c0.1,0.1,0.2,0.2,0.3,0.2l0,0c0.1,0,0.3-0.1,0.3-0.3l1-3.4l3.8,0.7c0.1,0,0.3,0,0.4-0.2
		c0.1-0.1,0.1-0.3,0-0.4L-212.9,402.1z M-224.9,399c0-0.1-0.1-0.2-0.2-0.3l-2.2-1l0.6-2.3c0-0.1,0-0.2-0.1-0.3l-1.5-1.8l1.5-1.8
		c0.1-0.1,0.1-0.2,0.1-0.3l-0.6-2.3l2.2-1c0.1,0,0.2-0.1,0.2-0.3l0.5-2.3h2.4c0.1,0,0.2-0.1,0.3-0.1l1.5-1.9l2.1,1.1
		c0.1,0.1,0.2,0.1,0.3,0l2.1-1.1l1.5,1.9c0.1,0.1,0.2,0.1,0.3,0.1h2.4l0.5,2.3c0,0.1,0.1,0.2,0.2,0.3l2.2,1l-0.6,2.3
		c0,0.1,0,0.2,0.1,0.3l1.5,1.8l-1.5,1.8c-0.1,0.1-0.1,0.2-0.1,0.3l0.6,2.3l-2.2,1c-0.1,0-0.2,0.1-0.2,0.3l-0.5,2.3h-2.4
		c-0.1,0-0.2,0.1-0.3,0.1l-1.5,1.9l-2.1-1.1c-0.1-0.1-0.2-0.1-0.3,0l-2.1,1.1l-1.5-1.9c-0.1-0.1-0.2-0.1-0.3-0.1l0,0h-2.4
		L-224.9,399z M-223.5,414.3l-0.9-2.9c-0.1-0.2-0.2-0.3-0.4-0.3l-3.3,0.6l5.8-9.6l0,0l1.5,2c0.1,0.1,0.3,0.2,0.5,0.1l0.8-0.4l1,1.7
		L-223.5,414.3z M-211.2,411.1c-0.2,0-0.4,0.1-0.4,0.3l-0.9,2.9l-6.3-10.9l0.8-0.4l2.2,1.1c0.1,0,0.1,0,0.2,0c0.1,0,0.2-0.1,0.3-0.1
		l1.5-2l0,0l5.8,9.6L-211.2,411.1z"/>
</g>
</svg>
