<?xml version="1.0" encoding="utf-8"?>
<!-- Generator: Adobe Illustrator 19.0.0, SVG Export Plug-In . SVG Version: 6.00 Build 0)  -->
<svg version="1.1" id="Layer_1" xmlns="http://www.w3.org/2000/svg" xmlns:xlink="http://www.w3.org/1999/xlink" x="0px" y="0px"
	 viewBox="-260 340.5 90 112.5" style="enable-background:new -260 340.5 90 112.5;" xml:space="preserve">
<style type="text/css">
	.st0{fill:none;stroke:#AEB2B7;stroke-width:0.75;stroke-miterlimit:10;}
	.st1{fill:#B1B1B1;stroke:#FFFFFF;stroke-width:0.25;stroke-miterlimit:10;}
</style>
<circle class="st0" cx="-217.5" cy="397.5" r="29.5"/>
<g>
	<path class="st1" d="M-200.7,390.3L-200.7,390.3c0-0.1-0.1-0.2-0.2-0.3l0,0l0,0l-16-9.3c-0.1-0.1-0.3-0.1-0.5,0l-16,9.2l0,0l0,0
		l-0.1,0.1l0,0l0,0c0,0,0,0.1-0.1,0.1l0,0l0,0v13.8c0,0.2,0.1,0.3,0.2,0.4l16,9.2c0.1,0,0.1,0.1,0.2,0.1l0,0l0,0l0,0h0.1
		c0,0,0.1,0,0.1-0.1l16-9.2c0.1-0.1,0.2-0.2,0.2-0.4L-200.7,390.3C-200.7,390.4-200.7,390.3-200.7,390.3z M-217.1,381.6l15.1,8.7
		l-5.5,3.2l-15.1-8.7L-217.1,381.6z M-207.6,401.8l-3.3,1.9v-7.2l3.3-1.9V401.8z M-217.1,399.1l-15.1-8.7l5.2-3l15,8.8L-217.1,399.1
		z M-223.2,385.1l15.1,8.7l-3.3,1.9l-15-8.8L-223.2,385.1z M-232.7,391.2l15.1,8.7v12.7l-15.1-8.7V391.2z M-216.7,412.6v-12.7
		l5.1-2.9v7.3c0,0.1,0.1,0.2,0.2,0.3c0,0,0.1,0,0.2,0c0.1,0,0.1,0,0.2,0l3.9-2.3c0.1-0.1,0.2-0.2,0.2-0.3v-7.7l5.4-3.1v12.7
		L-216.7,412.6z"/>
	<path class="st1" d="M-210.1,401c0.2,0,0.3-0.1,0.3-0.3V397c0-0.2-0.1-0.3-0.3-0.3s-0.3,0.1-0.3,0.3v3.7
		C-210.4,400.8-210.3,401-210.1,401z"/>
	<path class="st1" d="M-210.1,402.5c0.2,0,0.3-0.1,0.3-0.3V402c0-0.2-0.1-0.3-0.3-0.3s-0.3,0.1-0.3,0.3v0.2
		C-210.4,402.3-210.3,402.5-210.1,402.5z"/>
	<path class="st1" d="M-223.5,387.3l11.6,6.7c0,0,0.1,0,0.2,0c0.1,0,0.2-0.1,0.3-0.2s0-0.3-0.1-0.4l-11.6-6.7
		c-0.1-0.1-0.3,0-0.4,0.1C-223.7,387-223.7,387.2-223.5,387.3z"/>
</g>
</svg>
