<?xml version="1.0" encoding="utf-8"?>
<!-- Generator: Adobe Illustrator 19.0.0, SVG Export Plug-In . SVG Version: 6.00 Build 0)  -->
<svg version="1.1" id="Layer_1" xmlns="http://www.w3.org/2000/svg" xmlns:xlink="http://www.w3.org/1999/xlink" x="0px" y="0px"
	 viewBox="-1286 -160.5 1920 1200" style="enable-background:new -1286 -160.5 1920 1200;" xml:space="preserve">
<style type="text/css">
	.st0{fill:none;stroke:#00AEEF;stroke-width:0.75;stroke-miterlimit:10;}
	.st1{fill:#00AEEF;stroke:#FFFFFF;stroke-width:1.3;stroke-miterlimit:10;}
</style>
<circle class="st0" cx="-477.5" cy="738.5" r="29.5"/>
<g>
	<path class="st1" d="M-479.2,756.2v-4.1c-2.4,0-4.8-0.8-6.2-1.7l0.9-2.8c1.5,0.9,3.6,1.7,5.8,1.7c2.9,0,4.9-1.7,4.9-4
		c0-2.2-1.6-3.6-4.6-4.9c-4.1-1.6-6.7-3.6-6.7-7c0-3.3,2.4-5.9,6.1-6.5v-4.1h2.5v4c2.4,0.1,4.1,0.8,5.3,1.5l-1.1,2.6
		c-0.8-0.5-2.5-1.5-5.2-1.5c-3.2,0-4.4,1.8-4.4,3.6c0,2.1,1.5,3.2,5,4.6c4.2,1.7,6.3,3.8,6.3,7.4c0,3.3-2.2,6.2-6.3,6.9v4.2
		L-479.2,756.2L-479.2,756.2z"/>
</g>
<image style="overflow:visible;" width="1920" height="1200" xlink:href="../../../../../../../../../../../../../Users/Kevin_Doran/Marbel/test/assets/img/img-1.jpg"  transform="matrix(1 0 0 1 -1286 -160.5)">
</image>
</svg>
