<?xml version="1.0" encoding="utf-8"?>
<!-- Generator: Adobe Illustrator 19.0.0, SVG Export Plug-In . SVG Version: 6.00 Build 0)  -->
<svg version="1.1" id="Layer_1" xmlns="http://www.w3.org/2000/svg" xmlns:xlink="http://www.w3.org/1999/xlink" x="0px" y="0px"
	 viewBox="-679 340.5 1050 207" style="enable-background:new -679 340.5 1050 207;" xml:space="preserve">
<style type="text/css">
	.st0{fill:none;stroke:#AEB2B7;stroke-width:0.75;stroke-miterlimit:10;}
	.st1{fill:#AEB2B7;stroke:#FFFFFF;stroke-width:1.3;stroke-miterlimit:10;}
	.st2{fill:#AEB2B7;}
	.st3{fill:none;stroke:#00AEEF;stroke-width:0.75;stroke-miterlimit:10;}
	.st4{fill:#00AEEF;stroke:#FFFFFF;stroke-width:0.3;stroke-miterlimit:10;}
	.st5{fill:#00AEEF;stroke:#FFFFFF;stroke-width:1.3;stroke-miterlimit:10;}
	.st6{fill:#00AEEF;}
	.st7{font-family:'ProximaNova-Regular';}
	.st8{font-size:17.1609px;}
	.st9{fill:none;stroke:#00AEEF;stroke-miterlimit:10;}
	.st10{fill:#AEB2B7;stroke:#FFFFFF;stroke-width:0.25;stroke-miterlimit:10;}
</style>
<circle class="st0" cx="-477.5" cy="738" r="29.5"/>
<g>
	<path class="st1" d="M-479.2,754.7v-4.1c-2.4,0-4.8-0.8-6.2-1.7l0.9-2.8c1.5,0.9,3.6,1.7,5.8,1.7c2.9,0,4.9-1.7,4.9-4
		c0-2.2-1.6-3.6-4.6-4.9c-4.1-1.6-6.7-3.6-6.7-7c0-3.3,2.4-5.9,6.1-6.5v-4.1h2.5v4c2.4,0.1,4.1,0.8,5.3,1.5l-1.1,2.6
		c-0.8-0.5-2.5-1.5-5.2-1.5c-3.2,0-4.4,1.8-4.4,3.6c0,2.1,1.5,3.2,5,4.6c4.2,1.7,6.3,3.8,6.3,7.4c0,3.3-2.2,6.2-6.3,6.9v4.2
		L-479.2,754.7L-479.2,754.7z"/>
</g>
<g id="XMLID_52_">
	<circle id="XMLID_159_" class="st0" cx="289.9" cy="423.3" r="58.2"/>
	<g id="XMLID_64_">
		<g id="XMLID_220_">
			<path id="XMLID_224_" class="st2" d="M323,409.1L323,409.1c0-0.2-0.2-0.4-0.4-0.6l0,0l0,0L291,390.2c-0.2-0.2-0.6-0.2-1,0
				l-31.6,18.1l0,0l0,0l-0.2,0.2l0,0l0,0c0,0,0,0.2-0.2,0.2l0,0l0,0v27.2c0,0.4,0.2,0.6,0.4,0.8l31.6,18.1c0.2,0,0.2,0.2,0.4,0.2
				l0,0l0,0l0,0h0.2c0,0,0.2,0,0.2-0.2l31.6-18.1c0.2-0.2,0.4-0.4,0.4-0.8L323,409.1C323,409.3,323,409.1,323,409.1z M290.6,392
				l29.8,17.2l-10.8,6.2l-29.8-17.2L290.6,392z M309.4,431.8l-6.5,3.7v-14.1l6.5-3.7V431.8z M290.6,426.5l-29.8-17.2l10.3-5.9
				l29.6,17.4L290.6,426.5z M278.6,398.9l29.8,17.2l-6.5,3.7l-29.6-17.4L278.6,398.9z M259.9,410.9l29.8,17.2v25l-29.8-17.2V410.9z
				 M291.4,453.1v-25l10.1-5.7v14.4c0,0.2,0.2,0.4,0.4,0.6c0,0,0.2,0,0.4,0s0.2,0,0.4,0l7.7-4.5c0.2-0.2,0.4-0.4,0.4-0.6V417
				l10.7-6.1v25L291.4,453.1z"/>
			<path id="XMLID_223_" class="st2" d="M304.5,430.2c0.4,0,0.6-0.2,0.6-0.6v-7.3c0-0.4-0.2-0.6-0.6-0.6s-0.6,0.2-0.6,0.6v7.3
				C303.9,429.8,304.1,430.2,304.5,430.2z"/>
			<path id="XMLID_222_" class="st2" d="M304.5,433.2c0.4,0,0.6-0.2,0.6-0.6v-0.4c0-0.4-0.2-0.6-0.6-0.6s-0.6,0.2-0.6,0.6v0.4
				C303.9,432.8,304.1,433.2,304.5,433.2z"/>
			<path id="XMLID_221_" class="st2" d="M278,403.2l22.9,13.2c0,0,0.2,0,0.4,0s0.4-0.2,0.6-0.4c0.2-0.2,0-0.6-0.2-0.8L278.8,402
				c-0.2-0.2-0.6,0-0.8,0.2C277.6,402.6,277.6,403,278,403.2z"/>
		</g>
	</g>
</g>
<g id="XMLID_39_">
	<circle id="XMLID_132_" class="st0" cx="69.4" cy="423.9" r="58.2"/>
	<g id="XMLID_40_">
		<path id="XMLID_48_" class="st2" d="M69.6,430h0.2c0.2,0,0.2,0,0.4-0.2C76.9,429,82,423.7,83,417c0.2-0.2,0.2-0.4,0-0.6
			c0-0.4,0-0.8,0-1.2c0-8.1-6.7-14.8-14.8-14.8c-0.4,0-0.8,0-1.2,0c-0.2,0-0.4,0-0.6,0c-6.7,0.8-11.8,6.1-12.8,12.8
			c-0.2,0.2-0.2,0.4,0,0.6c0,0.4,0,0.8,0,1.2c0,8.1,6.7,14.8,14.8,14.8C68.8,430,69.2,430,69.6,430z M67.2,428.7l14.4-14.4
			c0,0.4,0,0.8,0,1.2s0,0.8,0,1.2l-12,12c-0.4,0-0.8,0-1.2,0S67.6,428.7,67.2,428.7z M60.7,426.3L60.7,426.3l18.5-18.5l0,0
			c0.4,0.4,0.6,1,1,1.4l-17.9,17.9C61.7,426.9,61.3,426.5,60.7,426.3z M80.8,410.7c0.2,0.6,0.4,1.2,0.6,1.8c0,0-0.2,0-0.2,0.2
			l-15.4,15.4l-0.2,0.2c-0.6-0.2-1.2-0.4-1.8-0.6L80.8,410.7z M72.1,428.1l8.9-8.9C79.8,423.5,76.5,426.9,72.1,428.1z M57.5,422.9
			c-0.4-0.4-0.6-1-1-1.4l17.9-17.9c0.6,0.2,1,0.6,1.4,1l0,0L57.5,422.9L57.5,422.9z M55.4,418.2c0,0,0.2,0,0.2-0.2L71,402.6l0.2-0.2
			c0.6,0.2,1.2,0.4,1.8,0.6l-17.2,17.2C55.8,419.4,55.6,418.8,55.4,418.2z M69.6,402.2l-14.4,14.4c0-0.4,0-0.8,0-1.2
			c0-0.4,0-0.8,0-1.2l12-12c0.4,0,0.8,0,1.2,0C68.8,402,69.2,402,69.6,402.2z M64.6,402.6l-8.9,8.9C56.9,407.4,60.3,404,64.6,402.6z
			 M58.3,424.1C58.5,424.1,58.5,424.1,58.3,424.1l18.5-18.5c0,0,0-0.2,0.2-0.2c0.4,0.4,0.8,0.8,1.2,1.2c0,0-0.2,0-0.2,0.2
			l-18.3,18.3c0,0,0,0.2-0.2,0.2C59.1,424.9,58.7,424.5,58.3,424.1z"/>
		<path id="XMLID_41_" class="st2" d="M78.4,433h3.2c0.4,0,0.6-0.2,0.8-0.6l1-4.9l4.5-2c0.4-0.2,0.6-0.6,0.4-0.8l-1.2-4.7l3.2-3.7
			c0.2-0.2,0.2-0.6,0-1l-3.2-3.7l1.2-4.7c0-0.4,0-0.8-0.4-0.8l-4.5-2l-1-4.9c0-0.4-0.4-0.6-0.8-0.6h-4.9l-3-3.9
			c-0.2-0.2-0.6-0.4-1-0.2l-4.3,2.2l-4.3-2.2c-0.4-0.2-0.8,0-1,0.2l-3,3.9h-4.9c-0.4,0-0.6,0.2-0.8,0.6l-1,4.9l-4.5,2
			c-0.4,0.2-0.6,0.6-0.4,0.8l1.2,4.7l-3.2,3.7c-0.2,0.2-0.2,0.6,0,1l3.2,3.7l-1.2,4.7c0,0.4,0,0.8,0.4,0.8l4.5,2l1,4.9
			c0,0.4,0.4,0.6,0.8,0.6h3.2l-11.8,19.5c-0.2,0.2-0.2,0.6,0,0.8c0.2,0.2,0.4,0.4,0.8,0.4l7.5-1.4l2,6.7c0,0.2,0.4,0.4,0.6,0.6l0,0
			c0.2,0,0.6-0.2,0.6-0.4l10.5-18.1l10.5,18.1c0.2,0.2,0.4,0.4,0.6,0.4l0,0c0.2,0,0.6-0.2,0.6-0.6l2-6.7l7.5,1.4
			c0.2,0,0.6,0,0.8-0.4c0.2-0.2,0.2-0.6,0-0.8L78.4,433z M54.8,426.9c0-0.2-0.2-0.4-0.4-0.6l-4.3-2l1.2-4.5c0-0.2,0-0.4-0.2-0.6
			l-3-3.6l3-3.6c0.2-0.2,0.2-0.4,0.2-0.6L50,407l4.3-2c0.2,0,0.4-0.2,0.4-0.6l1-4.5h4.7c0.2,0,0.4-0.2,0.6-0.2l3-3.7l4.1,2.2
			c0.2,0.2,0.4,0.2,0.6,0l4.1-2.2l3,3.7c0.2,0.2,0.4,0.2,0.6,0.2h4.7l1,4.5c0,0.2,0.2,0.4,0.4,0.6l4.3,2l-1.2,4.5
			c0,0.2,0,0.4,0.2,0.6l3,3.6l-3,3.6c-0.2,0.2-0.2,0.4-0.2,0.6l1.2,4.5l-4.3,2c-0.2,0-0.4,0.2-0.4,0.6l-1,4.5h-4.7
			c-0.2,0-0.4,0.2-0.6,0.2l-3,3.7l-4.1-2.2c-0.2-0.2-0.4-0.2-0.6,0l-4.1,2.2l-3-3.7c-0.2-0.2-0.4-0.2-0.6-0.2l0,0h-4.7L54.8,426.9z
			 M57.5,457.1l-1.8-5.7c-0.2-0.4-0.4-0.6-0.8-0.6l-6.5,1.2l11.5-19l0,0l3,3.9c0.2,0.2,0.6,0.4,1,0.2l1.6-0.8l2,3.4L57.5,457.1z
			 M81.8,450.8c-0.4,0-0.8,0.2-0.8,0.6l-1.8,5.7l-12.4-21.5l1.6-0.8l4.3,2.2c0.2,0,0.2,0,0.4,0s0.4-0.2,0.6-0.2l3-3.9l0,0l11.4,18.9
			L81.8,450.8z"/>
	</g>
</g>
<g id="XMLID_99_">
	<circle id="XMLID_62_" class="st3" cx="-591.9" cy="423.7" r="58.2"/>
	<g id="XMLID_54_">
		<path id="XMLID_55_" class="st4" d="M-574.3,453.1h9.7c0.2,0,0.2,0,0.4,0s0.4,0.2,0.6,0.4c0.2,0.2,0.2,0.2,0.2,0.4
			c0.2,0.4,0.2,0.8,0,1.2l-0.2,0.2l-0.2,0.2c-0.2,0-0.4,0.2-0.4,0.2h-0.2c-19.1,0-38.3,0-57.4,0h-0.2c-0.2,0-0.4,0-0.4-0.2
			c-0.2,0-0.2-0.2-0.4-0.4l-0.2-0.2c-0.2-0.4-0.2-0.8,0-1.2l0.2-0.2c0.2-0.2,0.4-0.2,0.6-0.4c0.2,0,0.2,0,0.4,0h9.7v-56.8v-0.2
			c0-0.2,0-0.2,0-0.4c0.2-0.4,0.4-0.6,0.8-0.8c0.2,0,0.2,0,0.4,0h35.3c0.2,0,0.2,0,0.4,0c0.4,0.2,0.8,0.4,0.8,0.8c0,0.2,0,0.2,0,0.4
			v0.2v56.8H-574.3z M-581.2,453.1h4.1v-55.6h-32.7c0,18.5,0,37.1,0,55.6h4.1c0-1,0-2,0-3c0-0.2,0-0.4,0.2-0.6
			c0-0.2,0.2-0.2,0.4-0.4c0.2-0.2,0.2-0.2,0.4-0.2c0.4-0.2,1,0,1.4,0.2l0.2,0.2c0.2,0.2,0.2,0.4,0.2,0.6c0,1,0,2,0,3h19.1
			c0-1,0-2,0-3c0-0.2,0-0.4,0.2-0.6c0-0.2,0.2-0.2,0.2-0.2c0.4-0.4,0.8-0.4,1.4-0.2c0.2,0,0.2,0.2,0.4,0.2c0.2,0.2,0.2,0.2,0.4,0.4
			c0,0.2,0.2,0.4,0.2,0.6C-581.2,451.1-581.2,452.1-581.2,453.1z M-593.2,448.4c-0.6,0-1.2,0-1.8-0.2c-1.2-0.2-2.2-0.4-3.4-1
			c-1.2-0.6-2.4-1.4-3.4-2.4s-1.8-2-2.4-3.4c-0.6-1-0.8-2-1-3.2c-0.4-1.6-0.4-3.4,0-4.9c0.2-1.2,0.6-2.2,1.2-3.2
			c0.6-1.2,1.4-2.2,2.4-3.2s2.4-1.8,3.6-2.4c1.4-0.6,3-1,4.5-1c1.6,0,3.2,0.2,4.5,0.8c1.4,0.6,2.6,1.4,3.7,2.4c1,1,1.8,2,2.4,3.2
			c0.6,1,1,2.2,1.2,3.4c0.4,1.6,0.4,3.4,0,5.1c-0.2,1-0.6,2-1,3c-0.6,1.2-1.4,2.4-2.4,3.2c-1,1-2.2,1.8-3.4,2.4
			c-1,0.6-2.2,0.8-3.4,1c-0.6,0-1.2,0.2-1.8,0.2C-593.2,448.4-593.2,448.4-593.2,448.4z M-593.2,445.8c0.4,0,1,0,1.4,0
			c1-0.2,1.8-0.4,2.6-0.8c1-0.4,2-1,2.8-1.8c0.8-0.8,1.4-1.6,2-2.6c0.4-0.8,0.6-1.6,0.8-2.4c0.2-1.4,0.2-2.8,0-3.9
			c-0.2-0.8-0.4-1.6-0.8-2.4c-0.4-1-1.2-1.8-2-2.6c-0.8-0.8-1.8-1.4-3-2c-1.2-0.4-2.4-0.8-3.6-0.8s-2.6,0.2-3.6,0.6
			c-1,0.4-2,1-3,1.8c-0.8,0.8-1.4,1.6-2,2.6c-0.4,0.8-0.8,1.8-1,2.6c-0.2,1.2-0.2,2.6,0,3.9c0.2,0.8,0.4,1.6,0.8,2.2
			c0.4,1,1.2,2,1.8,2.6c0.8,0.8,1.6,1.4,2.6,2c0.8,0.4,1.8,0.6,2.6,0.8c0.4,0,0.8,0.2,1.4,0.2C-593.4,445.8-593.4,445.8-593.2,445.8
			z M-582.6,421.6c-0.2,0-0.2,0-0.4,0c-0.4-0.2-0.6-0.4-0.8-0.8c0-0.2,0-0.2,0-0.4c0-2.6,0-5.1,0-7.7c0-0.2,0-0.4,0.2-0.6
			c0-0.2,0.2-0.2,0.2-0.4c0.2-0.2,0.6-0.4,1-0.4c0.2,0,0.2,0,0.4,0s0.2,0.2,0.4,0.2c0.2,0.2,0.2,0.2,0.4,0.4c0,0.2,0.2,0.4,0.2,0.6
			c0,2.6,0,5.1,0,7.7c0,0.2,0,0.2,0,0.4c-0.2,0.4-0.4,0.6-0.8,0.8C-582.2,421.6-582.2,421.6-582.6,421.6
			C-582.4,421.6-582.4,421.6-582.6,421.6z M-604.3,421.6c-0.2,0-0.2,0-0.4,0c-0.4-0.2-0.6-0.4-0.8-0.8v-0.2v-0.2v-17.2V403v-0.2
			c0.2-0.4,0.4-0.6,0.8-0.8c0.2,0,0.2,0,0.4,0h6.3h0.2c0.2,0,0.4,0.2,0.6,0.4c0.2,0.2,0.2,0.2,0.2,0.4c0,0.2,0,0.2,0,0.4
			c0,0.2,0,0.2,0,0.4c0,0.4-0.4,0.8-0.8,1c-0.2,0-0.2,0-0.4,0.2h-0.2h-4.9v15.8l0,0c0,0.2,0,0.2,0,0.4c-0.2,0.4-0.4,0.6-0.8,0.8
			h-0.2C-604.1,421.6-604.1,421.6-604.3,421.6C-604.1,421.6-604.1,421.6-604.3,421.6z"/>
	</g>
</g>
<g id="XMLID_98_">
	<circle id="XMLID_65_" class="st3" cx="-371.6" cy="423.4" r="58.2"/>
	<g id="XMLID_63_">
		<path id="XMLID_4_" class="st5" d="M-374.9,458.3v-8.1c-4.7,0-9.5-1.6-12.2-3.4l1.8-5.5c3,1.8,7.1,3.4,11.4,3.4
			c5.7,0,9.7-3.4,9.7-7.9c0-4.3-3.2-7.1-9.1-9.7c-8.1-3.2-13.2-7.1-13.2-13.8c0-6.5,4.7-11.6,12-12.8v-8.1h4.9v7.9
			c4.7,0.2,8.1,1.6,10.5,3l-2.2,5.1c-1.6-1-4.9-3-10.3-3c-6.3,0-8.7,3.6-8.7,7.1c0,4.1,3,6.3,9.9,9.1c8.3,3.4,12.4,7.5,12.4,14.6
			c0,6.5-4.3,12.2-12.4,13.6v8.3L-374.9,458.3L-374.9,458.3z"/>
	</g>
</g>
<g id="XMLID_111_">
	<text id="XMLID_47_" transform="matrix(1 0 0 1 -641.1249 515.5488)" class="st6 st7 st8">Deposit Paid</text>
</g>
<g id="XMLID_112_">
	<g>
		<text id="XMLID_10_" transform="matrix(1 0 0 1 -420.9489 515.5488)" class="st6 st7 st8">Balance Paid</text>
	</g>
</g>
<g id="XMLID_113_">
	<text id="XMLID_83_" transform="matrix(1 0 0 1 -180.757 515.5488)" class="st2 st7 st8">Building</text>
</g>
<g id="XMLID_114_">
	<text id="XMLID_86_" transform="matrix(1 0 0 1 -0.6131 515.5488)" class="st2 st7 st8">Quality Assurance</text>
</g>
<text id="XMLID_115_" transform="matrix(1 0 0 1 260.5956 515.5488)" class="st2 st7 st8">Shipping</text>
<line id="XMLID_35_" class="st9" x1="-533.7" y1="423.7" x2="-429.8" y2="423.7"/>
<line id="XMLID_36_" class="st9" x1="-313.4" y1="423.7" x2="-209.3" y2="423.7"/>
<line id="XMLID_38_" class="st0" x1="-93" y1="423.7" x2="11.2" y2="423.7"/>
<line id="XMLID_37_" class="st0" x1="128" y1="423.7" x2="232" y2="423.7"/>
<g id="XMLID_97_">
	<circle id="XMLID_94_" class="st0" cx="-151.1" cy="423.4" r="58.2"/>
	<path id="XMLID_87_" class="st10" d="M-158.8,420.1c1,0,2-0.2,3-0.8c1.4-0.8,2.4-2,2.8-3.6s0.2-3.2-0.6-4.5
		c-1.6-2.8-5.3-3.7-8.1-2.2c-2.8,1.6-3.7,5.3-2.2,8.1C-162.7,418.9-160.8,420.1-158.8,420.1z M-160.6,411c0.6-0.4,1.2-0.4,1.8-0.4
		c1.4,0,2.6,0.8,3.2,1.8c0.4,0.8,0.6,1.8,0.4,2.8c-0.2,1-0.8,1.8-1.8,2.2c-1.8,1-4.1,0.4-4.9-1.4C-162.9,414.2-162.4,412-160.6,411z
		 M-128,442.8l-5.5-9.7c-0.6-1-0.6-2-0.2-3.2l0.4-0.8c3-6.9,2.4-14.6-1.4-21.1c-4.1-7.3-12-11.8-20.7-11.8l0,0c-0.4,0-0.8,0.2-1,0.6
		s-0.2,0.8,0,1.2l2.2,3.9H-165c-0.4,0-0.8,0.2-1,0.6l-5.5,9.5l-2.2-3.9c-0.2-0.4-0.6-0.6-1-0.6l0,0c-0.4,0-0.8,0.2-1,0.6
		c-4.3,7.3-4.3,16.6-0.2,23.9c3.7,6.5,10.1,10.7,17.6,11.6l1,0.2c1.2,0.2,2,0.8,2.6,1.8l5.7,9.7c0.2,0.4,0.6,0.6,1,0.6h0.2
		c7.5-2,14.2-5.9,19.7-11.6C-127.8,443.7-127.8,443.2-128,442.8z M-151.7,426.6c-2.2,1.2-4.3,1.8-6.1,1.8c-2,0-3.7-0.6-5.1-2h10.5
		c0.4,0,0.8-0.2,1-0.6l5.3-9.1C-145,420.9-148,424.4-151.7,426.6z M-164.5,404.1h11.6l5.7,10.1l-5.7,10.1h-11.6l-5.7-10.1
		L-164.5,404.1z M-147.8,453.4l-5.1-8.9c-1-1.6-2.6-2.6-4.1-2.8l-0.8-0.2c-6.7-0.8-12.6-4.7-16-10.7c-3.6-6.1-3.7-13.6-0.8-19.9
		l2.2,3.7l0,0l6.5,11.2c0,0,0,0,0,0.2c2,3,4.7,4.7,8.3,4.7c2.4,0,4.9-0.8,7.3-2.2c6.3-3.6,8.5-9.5,5.7-14.8v-0.2l-0.2-0.2l0,0
		l-3.2-5.5l-3.2-5.3l0,0l-2.2-3.7c6.9,0.6,13.4,4.5,17,10.7c3.4,5.9,3.7,12.8,1.2,19.1l-0.4,0.8c-0.8,1.6-0.6,3.6,0.4,5.1l5.1,8.9
		C-135.3,448.1-141.2,451.4-147.8,453.4z"/>
</g>
</svg>
