<?xml version="1.0" encoding="utf-8"?>
<!-- Generator: Adobe Illustrator 19.0.0, SVG Export Plug-In . SVG Version: 6.00 Build 0)  -->
<svg version="1.1" id="Layer_1" xmlns="http://www.w3.org/2000/svg" xmlns:xlink="http://www.w3.org/1999/xlink" x="0px" y="0px"
	 viewBox="-296 388.7 17.4 17.3" style="enable-background:new -296 388.7 17.4 17.3;" xml:space="preserve">
<style type="text/css">
	.st0{fill:#D4DCDF;}
</style>
<g>
	<path class="st0" d="M-292.5,401.5c-0.1,0-0.1,0-0.2,0c-0.1,0-0.2,0-0.4,0c-0.3,0-0.6-0.1-0.9-0.3c-0.4-0.2-0.7-0.4-1-0.6
		c-0.3-0.3-0.5-0.6-0.7-0.9c-0.2-0.3-0.3-0.6-0.3-1c-0.1-0.4-0.1-0.8,0-1.2c0-0.4,0.1-0.7,0.3-1c0.2-0.4,0.4-0.7,0.7-1
		c0.3-0.3,0.7-0.6,1.1-0.7c0.2-0.1,0.5-0.2,0.7-0.2c0.2,0,0.4-0.1,0.7-0.1c0.2,0,0.5,0,0.7,0.1c0.2,0,0.5,0.1,0.7,0.2
		c0.4,0.2,0.8,0.4,1.1,0.7c0.3,0.3,0.6,0.6,0.8,1c0.2,0.3,0.3,0.7,0.3,1c0.1,0.4,0,0.8,0,1.1c-0.1,0.3-0.2,0.7-0.3,1
		c-0.2,0.4-0.4,0.7-0.7,1c-0.3,0.3-0.6,0.5-1,0.7c-0.3,0.1-0.6,0.2-0.9,0.3c-0.1,0-0.2,0-0.3,0
		C-292.3,401.5-292.3,401.5-292.5,401.5C-292.4,401.5-292.4,401.5-292.5,401.5z M-292.5,401.2c0,0,0.1,0,0.1,0c0.1,0,0.2,0,0.3,0
		c0.3,0,0.6-0.1,0.8-0.2c0.3-0.1,0.6-0.3,0.9-0.6c0.3-0.2,0.5-0.5,0.7-0.9c0.1-0.3,0.2-0.6,0.3-0.8c0.1-0.3,0.1-0.7,0-1.1
		c0-0.3-0.1-0.6-0.3-0.9c-0.2-0.3-0.4-0.7-0.7-0.9c-0.3-0.3-0.6-0.5-1-0.7c-0.2-0.1-0.4-0.2-0.6-0.2c-0.2,0-0.4-0.1-0.6-0.1
		c-0.2,0-0.4,0-0.6,0c-0.2,0-0.4,0.1-0.6,0.2c-0.4,0.1-0.7,0.4-1,0.6c-0.3,0.3-0.5,0.6-0.7,0.9c-0.1,0.3-0.2,0.6-0.3,0.9
		c-0.1,0.3,0,0.7,0,1.1c0.1,0.3,0.2,0.6,0.3,0.9c0.2,0.3,0.4,0.6,0.6,0.8c0.2,0.2,0.5,0.4,0.9,0.6c0.3,0.1,0.5,0.2,0.8,0.3
		c0.1,0,0.2,0,0.3,0C-292.6,401.2-292.6,401.2-292.5,401.2C-292.5,401.2-292.5,401.2-292.5,401.2z"/>
	<g>
		<path class="st0" d="M-292.5,398.2C-292.5,398.2-292.5,398.2-292.5,398.2C-292.5,398.2-292.5,398.2-292.5,398.2
			c-0.1,0-0.2-0.1-0.2-0.1c0,0,0,0,0,0c0,0,0,0,0,0v-2.6c0,0,0,0,0,0c0,0,0,0,0-0.1c0,0,0,0,0-0.1c0,0,0,0,0,0c0.1,0,0.1,0,0.2,0
			c0,0,0,0,0,0c0,0,0,0.1,0.1,0.1c0,0,0,0,0,0c0,0,0,0,0,0v2.6c0,0,0,0,0,0c0,0,0,0,0,0C-292.3,398.1-292.3,398.2-292.5,398.2
			C-292.4,398.2-292.4,398.2-292.5,398.2C-292.4,398.2-292.4,398.2-292.5,398.2C-292.5,398.2-292.5,398.2-292.5,398.2z"/>
		<g transform="matrix(2.83277e-16,1,-0.622237,1.76265e-16,81.1655,-0.0695371)">
			<path class="st0" d="M398.1,600.6C398,600.6,398,600.6,398.1,600.6C398,600.6,398,600.6,398.1,600.6c-0.1,0-0.2-0.1-0.2-0.1
				c0,0,0,0,0,0c0,0,0,0,0,0v-2.6c0,0,0,0,0,0c0,0,0,0,0-0.1c0,0,0,0,0-0.1c0,0,0,0,0,0c0.1,0,0.1,0,0.2,0c0,0,0,0,0,0
				c0,0,0,0.1,0.1,0.1c0,0,0,0,0,0c0,0,0,0,0,0v2.6c0,0,0,0,0,0c0,0,0,0,0,0C398.2,600.6,398.2,600.6,398.1,600.6
				C398.1,600.6,398.1,600.6,398.1,600.6C398.1,600.6,398.1,600.6,398.1,600.6C398.1,600.6,398.1,600.6,398.1,600.6z"/>
		</g>
	</g>
</g>
</svg>
