<?xml version="1.0" encoding="utf-8"?>
<!-- Generator: Adobe Illustrator 19.0.0, SVG Export Plug-In . SVG Version: 6.00 Build 0)  -->
<svg version="1.1" id="Layer_1" xmlns="http://www.w3.org/2000/svg" xmlns:xlink="http://www.w3.org/1999/xlink" x="0px" y="0px"
	 viewBox="-296 388.7 17.4 17.3" style="enable-background:new -296 388.7 17.4 17.3;" xml:space="preserve">
<style type="text/css">
	.st0{fill:#D4DCDF;}
</style>
<g>
	<path class="st0" d="M-292.2,394.3c-2.1,0-3.7,1.7-3.7,3.7c0,2.1,1.7,3.7,3.7,3.7c2.1,0,3.7-1.7,3.7-3.7
		C-288.5,396-290.2,394.3-292.2,394.3z M-289.4,399.5C-289.4,399.5-289.4,399.5-289.4,399.5l-0.8,0c0.1-0.4,0.2-0.8,0.2-1.3h0.9
		C-289,398.7-289.2,399.1-289.4,399.5z M-292,401.3V400h1.2c-0.2,0.6-0.5,1-0.7,1.2C-291.6,401.2-291.8,401.2-292,401.3z
		 M-293,401.2c-0.2-0.2-0.4-0.6-0.7-1.2h1.2v1.3C-292.6,401.2-292.8,401.2-293,401.2z M-295.1,399.5c-0.2-0.4-0.3-0.8-0.4-1.3h0.9
		c0,0.5,0.1,0.9,0.2,1.3L-295.1,399.5C-295.1,399.5-295.1,399.5-295.1,399.5z M-295.1,396.5C-295.1,396.5-295.1,396.5-295.1,396.5
		l0.8,0c-0.1,0.5-0.2,0.9-0.2,1.3h-0.9C-295.5,397.3-295.3,396.9-295.1,396.5z M-292.5,394.8v1.2h-1.2c0.2-0.4,0.4-0.8,0.7-1.2
		C-292.8,394.8-292.6,394.8-292.5,394.8z M-291.5,394.8c0.3,0.4,0.5,0.8,0.7,1.2h-1.2v-1.2C-291.8,394.8-291.7,394.8-291.5,394.8z
		 M-290.6,396.5c0.2,0.5,0.2,0.9,0.3,1.3h-1.6v-1.3H-290.6z M-292.5,396.5v1.3h-1.6c0-0.4,0.1-0.9,0.3-1.3H-292.5z M-294.1,398.2
		h1.6v1.3h-1.4C-294,399.1-294.1,398.7-294.1,398.2z M-292,399.5v-1.3h1.6c0,0.5-0.1,0.9-0.2,1.3H-292z M-289.9,397.8
		c0-0.4-0.1-0.9-0.2-1.3h0.8c0,0,0,0,0,0c0.2,0.4,0.4,0.8,0.4,1.3H-289.9z M-289.7,396h-0.6c-0.1-0.3-0.3-0.6-0.5-0.9
		C-290.3,395.3-290,395.6-289.7,396z M-293.7,395.1c-0.2,0.3-0.3,0.6-0.5,0.9h-0.7C-294.5,395.6-294.1,395.3-293.7,395.1z
		 M-294.8,400h0.7c0.1,0.4,0.3,0.7,0.4,0.9C-294.2,400.7-294.6,400.4-294.8,400z M-290.7,400.9c0.1-0.3,0.3-0.6,0.4-0.9h0.6
		C-289.9,400.4-290.3,400.7-290.7,400.9z"/>
</g>
</svg>
