<?xml version="1.0" encoding="utf-8"?>
<!-- Generator: Adobe Illustrator 19.0.0, SVG Export Plug-In . SVG Version: 6.00 Build 0)  -->
<svg version="1.1" id="Layer_1" xmlns="http://www.w3.org/2000/svg" xmlns:xlink="http://www.w3.org/1999/xlink" x="0px" y="0px"
	 viewBox="-770 340.5 1049.8 207" style="enable-background:new -770 340.5 1049.8 207;" xml:space="preserve">
<style type="text/css">
	.st0{fill:none;stroke:#00AEEF;stroke-width:0.75;stroke-miterlimit:10;}
	.st1{fill:#00AEEF;stroke:#FFFFFF;stroke-width:0.25;stroke-miterlimit:10;}
	.st2{fill:#00AEEF;stroke:#FFFFFF;stroke-width:0.3;stroke-miterlimit:10;}
	.st3{fill:#00AEEF;stroke:#FFFFFF;stroke-width:1.3;stroke-miterlimit:10;}
	.st4{fill:#00AEEF;}
	.st5{font-family:'ProximaNova-Regular';}
	.st6{font-size:17.1609px;}
	.st7{fill:#AEB2B7;}
	.st8{fill:none;stroke:#00AEEF;stroke-miterlimit:10;}
	.st9{fill:none;stroke:#AEB2B7;stroke-width:0.75;stroke-miterlimit:10;}
</style>
<g id="XMLID_32_">
	<circle id="XMLID_28_" class="st0" cx="-20.6" cy="423.5" r="58.2"/>
	<g id="XMLID_11_">
		<path id="XMLID_17_" class="st1" d="M-19.8,429.4c6.7-0.8,11.8-6.1,12.8-12.8c0-0.2,0-0.4,0-0.6c0-0.4,0-0.8,0-1.2
			c0-8.1-6.7-14.8-14.8-14.8c-0.4,0-0.8,0-1.2,0c-0.2,0-0.4,0-0.6,0c-6.7,0.8-11.8,6.1-12.8,12.8c0,0.2,0,0.4,0,0.6
			c0,0.4,0,0.8,0,1.2c0,8.1,6.7,14.8,14.8,14.8C-21.1,429.5-20.2,429.5-19.8,429.4z M-22.8,428.2l14.4-14.4c0,0.4,0,0.8,0,1.2
			c0,0.4,0,0.8,0,1.2l-12,12c-0.4,0-0.8,0-1.2,0S-22.4,428.2-22.8,428.2z M-29.3,425.9L-29.3,425.9l18.5-18.5l0,0
			c0.4,0.4,0.6,1,1,1.4l-17.9,17.9C-28.3,426.5-28.7,426.1-29.3,425.9z M-9.2,410.3c0.2,0.6,0.4,1.2,0.6,1.8l-15.6,15.6l-0.2,0.2
			c-0.6-0.2-1.2-0.4-1.8-0.6L-9.2,410.3z M-17.9,427.6l8.9-8.9C-10.2,423.1-13.5,426.5-17.9,427.6z M-32.5,422.5
			c-0.4-0.4-0.6-1-1-1.4l17.9-17.9c0.6,0.2,1,0.6,1.4,1l0,0L-32.5,422.5L-32.5,422.5z M-34.6,417.8l15.6-15.6l0.2-0.2
			c0.6,0.2,1.2,0.4,1.8,0.6l-17.2,17.2C-34.2,419-34.4,418.4-34.6,417.8z M-20.4,401.8l-14.4,14.4c0-0.4,0-0.8,0-1.2
			c0-0.4,0-0.8,0-1.2l12-12C-22.4,401.8-20.8,401.6-20.4,401.8z M-25.4,402.2l-8.9,8.9C-33.1,406.9-29.7,403.6-25.4,402.2z
			 M-31.7,423.7c0,0,18.5-18.7,18.7-18.7c0.4,0.4,0.8,0.8,1.2,1.2l-18.5,18.5C-30.3,424.7-31.5,423.8-31.7,423.7z"/>
		<path id="XMLID_1_" class="st1" d="M-11.6,432.6h3.2c0.4,0,0.6-0.2,0.8-0.6l1-4.9l4.5-2c0.4-0.2,0.6-0.6,0.4-0.8l-1.2-4.7l3.2-3.7
			c0.2-0.2,0.2-0.6,0-1l-3.2-3.7l1.2-4.7c0-0.4,0-0.8-0.4-0.8l-4.5-2l-1-4.9c0-0.4-0.4-0.6-0.8-0.6h-4.9l-3-3.9
			c-0.2-0.2-0.6-0.4-1-0.2l-4.3,2.2l-4.3-2.2c-0.4-0.2-0.8,0-1,0.2l-3,3.9h-4.9c-0.4,0-0.6,0.2-0.8,0.6l-1,4.9l-4.5,2
			c-0.4,0.2-0.6,0.6-0.4,0.8l1.2,4.7l-3.2,3.7c-0.2,0.2-0.2,0.6,0,1l3.2,3.7l-1.2,4.7c0,0.4,0,0.8,0.4,0.8l4.5,2l1,4.9
			c0,0.4,0.4,0.6,0.8,0.6h3.2l-11.8,19.5c-0.2,0.2-0.2,0.6,0,0.8s0.4,0.4,0.8,0.4l7.5-1.4l2,6.7c0,0.2,0.4,0.4,0.6,0.6l0,0
			c0.2,0,0.6-0.2,0.6-0.4l10.5-18.1l10.5,18.1c0.2,0.2,0.4,0.4,0.6,0.4l0,0c0.2,0,0.6-0.2,0.6-0.6l2-6.7l7.5,1.4
			c0.2,0,0.6,0,0.8-0.4c0.2-0.2,0.2-0.6,0-0.8L-11.6,432.6z M-35.2,426.5c0-0.2-0.2-0.4-0.4-0.6l-4.3-2l1.2-4.5c0-0.2,0-0.4-0.2-0.6
			l-3-3.6l3-3.6c0.2-0.2,0.2-0.4,0.2-0.6l-1.2-4.5l4.3-2c0.2,0,0.4-0.2,0.4-0.6l1-4.5h4.7c0.2,0,0.4-0.2,0.6-0.2l3-3.7l4.1,2.2
			c0.2,0.2,0.4,0.2,0.6,0l4.1-2.2l3,3.7c0.2,0.2,0.4,0.2,0.6,0.2h4.7l1,4.5c0,0.2,0.2,0.4,0.4,0.6l4.3,2l-1.2,4.5
			c0,0.2,0,0.4,0.2,0.6l3,3.6l-3,3.6c-0.2,0.2-0.2,0.4-0.2,0.6l1.2,4.5l-4.3,2c-0.2,0-0.4,0.2-0.4,0.6l-1,4.5h-4.7
			c-0.2,0-0.4,0.2-0.6,0.2l-3,3.7l-4.1-2.2c-0.2-0.2-0.4-0.2-0.6,0l-4.1,2.2l-3-3.7c-0.2-0.2-0.4-0.2-0.6-0.2l0,0h-4.7L-35.2,426.5z
			 M-32.5,456.6l-1.8-5.7c-0.2-0.4-0.4-0.6-0.8-0.6l-6.5,1.2l11.4-18.9l0,0l3,3.9c0.2,0.2,0.6,0.4,1,0.2l1.6-0.8l2,3.4L-32.5,456.6z
			 M-8.2,450.3c-0.4,0-0.8,0.2-0.8,0.6l-1.8,5.7l-12.4-21.5l1.6-0.8l4.3,2.2c0.2,0,0.2,0,0.4,0s0.4-0.2,0.6-0.2l3-3.9l0,0l11.4,18.9
			L-8.2,450.3z"/>
	</g>
</g>
<g id="XMLID_99_">
	<circle id="XMLID_62_" class="st0" cx="-681.9" cy="423.7" r="58.2"/>
	<g id="XMLID_54_">
		<path id="XMLID_55_" class="st2" d="M-664.3,453.1h9.7c0.2,0,0.2,0,0.4,0c0.2,0,0.4,0.2,0.6,0.4s0.2,0.2,0.2,0.4
			c0.2,0.4,0.2,0.8,0,1.2l-0.2,0.2l-0.2,0.2c-0.2,0-0.4,0.2-0.4,0.2h-0.2c-19.1,0-38.3,0-57.4,0h-0.2c-0.2,0-0.4,0-0.4-0.2
			c-0.2,0-0.2-0.2-0.4-0.4l-0.2-0.2c-0.2-0.4-0.2-0.8,0-1.2l0.2-0.2c0.2-0.2,0.4-0.2,0.6-0.4c0.2,0,0.2,0,0.4,0h9.7v-56.8v-0.2
			c0-0.2,0-0.2,0-0.4c0.2-0.4,0.4-0.6,0.8-0.8c0.2,0,0.2,0,0.4,0h35.3c0.2,0,0.2,0,0.4,0c0.4,0.2,0.8,0.4,0.8,0.8c0,0.2,0,0.2,0,0.4
			v0.2L-664.3,453.1L-664.3,453.1z M-671.2,453.1h4.1v-55.6h-32.7c0,18.5,0,37.1,0,55.6h4.1c0-1,0-2,0-3c0-0.2,0-0.4,0.2-0.6
			c0-0.2,0.2-0.2,0.4-0.4c0.2-0.2,0.2-0.2,0.4-0.2c0.4-0.2,1,0,1.4,0.2l0.2,0.2c0.2,0.2,0.2,0.4,0.2,0.6c0,1,0,2,0,3h19.1
			c0-1,0-2,0-3c0-0.2,0-0.4,0.2-0.6c0-0.2,0.2-0.2,0.2-0.2c0.4-0.4,0.8-0.4,1.4-0.2c0.2,0,0.2,0.2,0.4,0.2c0.2,0.2,0.2,0.2,0.4,0.4
			c0,0.2,0.2,0.4,0.2,0.6C-671.2,451.1-671.2,452.1-671.2,453.1z M-683.2,448.4c-0.6,0-1.2,0-1.8-0.2c-1.2-0.2-2.2-0.4-3.4-1
			c-1.2-0.6-2.4-1.4-3.4-2.4s-1.8-2-2.4-3.4c-0.6-1-0.8-2-1-3.2c-0.4-1.6-0.4-3.4,0-4.9c0.2-1.2,0.6-2.2,1.2-3.2
			c0.6-1.2,1.4-2.2,2.4-3.2s2.4-1.8,3.6-2.4c1.4-0.6,3-1,4.5-1c1.6,0,3.2,0.2,4.5,0.8c1.4,0.6,2.6,1.4,3.7,2.4c1,1,1.8,2,2.4,3.2
			c0.6,1,1,2.2,1.2,3.4c0.4,1.6,0.4,3.4,0,5.1c-0.2,1-0.6,2-1,3c-0.6,1.2-1.4,2.4-2.4,3.2c-1,1-2.2,1.8-3.4,2.4
			c-1,0.6-2.2,0.8-3.4,1c-0.6,0-1.2,0.2-1.8,0.2C-683.2,448.4-683.2,448.4-683.2,448.4z M-683.2,445.8c0.4,0,1,0,1.4,0
			c1-0.2,1.8-0.4,2.6-0.8c1-0.4,2-1,2.8-1.8c0.8-0.8,1.4-1.6,2-2.6c0.4-0.8,0.6-1.6,0.8-2.4c0.2-1.4,0.2-2.8,0-3.9
			c-0.2-0.8-0.4-1.6-0.8-2.4c-0.4-1-1.2-1.8-2-2.6s-1.8-1.4-3-2c-1.2-0.4-2.4-0.8-3.6-0.8c-1.2,0-2.6,0.2-3.6,0.6c-1,0.4-2,1-3,1.8
			c-0.8,0.8-1.4,1.6-2,2.6c-0.4,0.8-0.8,1.8-1,2.6c-0.2,1.2-0.2,2.6,0,3.9c0.2,0.8,0.4,1.6,0.8,2.2c0.4,1,1.2,2,1.8,2.6
			c0.8,0.8,1.6,1.4,2.6,2c0.8,0.4,1.8,0.6,2.6,0.8c0.4,0,0.8,0.2,1.4,0.2C-683.4,445.8-683.4,445.8-683.2,445.8z M-672.6,421.6
			c-0.2,0-0.2,0-0.4,0c-0.4-0.2-0.6-0.4-0.8-0.8c0-0.2,0-0.2,0-0.4c0-2.6,0-5.1,0-7.7c0-0.2,0-0.4,0.2-0.6c0-0.2,0.2-0.2,0.2-0.4
			c0.2-0.2,0.6-0.4,1-0.4c0.2,0,0.2,0,0.4,0c0.2,0,0.2,0.2,0.4,0.2c0.2,0.2,0.2,0.2,0.4,0.4c0,0.2,0.2,0.4,0.2,0.6
			c0,2.6,0,5.1,0,7.7c0,0.2,0,0.2,0,0.4c-0.2,0.4-0.4,0.6-0.8,0.8C-672.2,421.6-672.2,421.6-672.6,421.6
			C-672.4,421.6-672.4,421.6-672.6,421.6z M-694.3,421.6c-0.2,0-0.2,0-0.4,0c-0.4-0.2-0.6-0.4-0.8-0.8v-0.2v-0.2v-17.2V403v-0.2
			c0.2-0.4,0.4-0.6,0.8-0.8c0.2,0,0.2,0,0.4,0h6.3h0.2c0.2,0,0.4,0.2,0.6,0.4c0.2,0.2,0.2,0.2,0.2,0.4c0,0.2,0,0.2,0,0.4
			c0,0.2,0,0.2,0,0.4c0,0.4-0.4,0.8-0.8,1c-0.2,0-0.2,0-0.4,0.2h-0.2h-4.9v15.8l0,0c0,0.2,0,0.2,0,0.4c-0.2,0.4-0.4,0.6-0.8,0.8
			h-0.2C-694.1,421.6-694.1,421.6-694.3,421.6C-694.1,421.6-694.1,421.6-694.3,421.6z"/>
	</g>
</g>
<g id="XMLID_98_">
	<circle id="XMLID_65_" class="st0" cx="-461.6" cy="423.4" r="58.2"/>
	<g id="XMLID_63_">
		<path id="XMLID_4_" class="st3" d="M-464.9,458.3v-8.1c-4.7,0-9.5-1.6-12.2-3.4l1.8-5.5c3,1.8,7.1,3.4,11.4,3.4
			c5.7,0,9.7-3.4,9.7-7.9c0-4.3-3.2-7.1-9.1-9.7c-8.1-3.2-13.2-7.1-13.2-13.8c0-6.5,4.7-11.6,12-12.8v-8.1h4.9v7.9
			c4.7,0.2,8.1,1.6,10.5,3l-2.2,5.1c-1.6-1-4.9-3-10.3-3c-6.3,0-8.7,3.6-8.7,7.1c0,4.1,3,6.3,9.9,9.1c8.3,3.4,12.4,7.5,12.4,14.6
			c0,6.5-4.3,12.2-12.4,13.6v8.3L-464.9,458.3L-464.9,458.3z"/>
	</g>
</g>
<g id="XMLID_96_">
	<circle id="XMLID_73_" class="st0" cx="-241.2" cy="423.7" r="58.2"/>
	<path id="XMLID_66_" class="st1" d="M-246.9,417.3c1,0,2-0.2,3-0.8c1.4-0.8,2.4-2,2.8-3.6c0.4-1.6,0.2-3.2-0.6-4.5
		c-1.6-2.8-5.3-3.7-8.1-2.2c-2.8,1.6-3.7,5.3-2.2,8.1C-250.8,416.2-248.9,417.3-246.9,417.3z M-248.7,408.3c0.6-0.4,1.2-0.4,1.8-0.4
		c1.4,0,2.6,0.8,3.2,1.8c0.4,0.8,0.6,1.8,0.4,2.8c-0.2,1-0.8,1.8-1.8,2.2c-1.8,1-4.1,0.4-4.9-1.4
		C-251,411.4-250.4,409.3-248.7,408.3z M-216.1,440l-5.5-9.7c-0.6-1-0.6-2-0.2-3.2l0.4-0.8c3-6.9,2.4-14.6-1.4-21.1
		c-4.1-7.3-12-11.8-20.7-11.8l0,0c-0.4,0-0.8,0.2-1,0.6c-0.2,0.4-0.2,0.8,0,1.2l2.2,3.9h-10.8c-0.4,0-0.8,0.2-1,0.6l-5.5,9.5
		l-2.2-3.9c-0.2-0.4-0.6-0.6-1-0.6l0,0c-0.4,0-0.8,0.2-1,0.6c-4.3,7.3-4.3,16.6-0.2,23.9c3.7,6.5,10.1,10.7,17.6,11.6l1,0.2
		c1.2,0.2,2,0.8,2.6,1.8l5.7,9.7c0.2,0.4,0.6,0.6,1,0.6h0.2c7.5-2,14.2-5.9,19.7-11.6C-215.9,441-215.9,440.4-216.1,440z
		 M-239.8,423.9c-2.2,1.2-4.3,1.8-6.1,1.8c-2,0-3.7-0.6-5.1-2h10.5c0.4,0,0.8-0.2,1-0.6l5.3-9.1C-233.1,418.1-236,421.7-239.8,423.9
		z M-252.6,401.4h11.6l5.7,10.1l-5.7,10.1h-11.6l-5.7-10.1L-252.6,401.4z M-235.8,450.7l-5.1-8.9c-1-1.6-2.6-2.6-4.1-2.8l-0.8-0.2
		c-6.7-0.8-12.6-4.7-16-10.7c-3.6-6.1-3.7-13.6-0.8-19.9l2.2,3.7l0,0l6.5,11.2c0,0,0,0,0,0.2c2,3,4.7,4.7,8.3,4.7
		c2.4,0,4.9-0.8,7.3-2.2c6.3-3.6,8.5-9.5,5.7-14.8v-0.2l-0.2-0.2l0,0l-3.2-5.5l-3.2-5.3l0,0l-2.2-3.7c6.9,0.6,13.4,4.5,17,10.7
		c3.4,5.9,3.7,12.8,1.2,19.1l-0.4,0.8c-0.8,1.6-0.6,3.6,0.4,5.1l5.1,8.9C-223.4,445.3-229.3,448.7-235.8,450.7z"/>
</g>
<g id="XMLID_111_">
	<text id="XMLID_47_" transform="matrix(1 0 0 1 -731.1249 515.5488)" class="st4 st5 st6">Deposit Paid</text>
</g>
<g id="XMLID_112_">
	<g>
		<text id="XMLID_12_" transform="matrix(1 0 0 1 -510.9489 515.5488)" class="st4 st5 st6">Balance Paid</text>
	</g>
</g>
<g id="XMLID_113_">
	<g>
		<text id="XMLID_13_" transform="matrix(1 0 0 1 -270.757 515.5488)" class="st4 st5 st6">Building</text>
	</g>
</g>
<g id="XMLID_114_">
	<g>
		<text id="XMLID_14_" transform="matrix(1 0 0 1 -90.6131 515.5488)" class="st4 st5 st6">Quality Assurance</text>
	</g>
</g>
<text id="XMLID_115_" transform="matrix(1 0 0 1 170.5956 515.5488)" class="st7 st5 st6">Shipping</text>
<line id="XMLID_35_" class="st8" x1="-623.7" y1="423.7" x2="-519.8" y2="423.7"/>
<line id="XMLID_36_" class="st8" x1="-403.4" y1="423.7" x2="-299.3" y2="423.7"/>
<line id="XMLID_38_" class="st8" x1="-183" y1="423.7" x2="-78.8" y2="423.7"/>
<line id="XMLID_37_" class="st8" x1="38" y1="423.7" x2="142" y2="423.7"/>
<g id="XMLID_52_">
	<circle id="XMLID_159_" class="st9" cx="199.9" cy="423.3" r="58.2"/>
	<g id="XMLID_64_">
		<g id="XMLID_220_">
			<path id="XMLID_224_" class="st7" d="M233,409.1L233,409.1c0-0.2-0.2-0.4-0.4-0.6l0,0l0,0L201,390.2c-0.2-0.2-0.6-0.2-1,0
				l-31.6,18.1l0,0l0,0l-0.2,0.2l0,0l0,0c0,0,0,0.2-0.2,0.2l0,0l0,0v27.2c0,0.4,0.2,0.6,0.4,0.8l31.6,18.1c0.2,0,0.2,0.2,0.4,0.2
				l0,0l0,0l0,0h0.2c0,0,0.2,0,0.2-0.2l31.6-18.1c0.2-0.2,0.4-0.4,0.4-0.8L233,409.1C233,409.3,233,409.1,233,409.1z M200.6,392
				l29.8,17.2l-10.8,6.2l-29.8-17.2L200.6,392z M219.4,431.8l-6.5,3.7v-14.1l6.5-3.7V431.8z M200.6,426.5l-29.8-17.2l10.3-5.9
				l29.6,17.4L200.6,426.5z M188.6,398.9l29.8,17.2l-6.5,3.7l-29.6-17.4L188.6,398.9z M169.9,410.9l29.8,17.2v25l-29.8-17.2V410.9z
				 M201.4,453.1v-25l10.1-5.7v14.4c0,0.2,0.2,0.4,0.4,0.6c0,0,0.2,0,0.4,0s0.2,0,0.4,0l7.7-4.5c0.2-0.2,0.4-0.4,0.4-0.6V417
				l10.7-6.1v25L201.4,453.1z"/>
			<path id="XMLID_223_" class="st7" d="M214.5,430.2c0.4,0,0.6-0.2,0.6-0.6v-7.3c0-0.4-0.2-0.6-0.6-0.6s-0.6,0.2-0.6,0.6v7.3
				C213.9,429.8,214.1,430.2,214.5,430.2z"/>
			<path id="XMLID_222_" class="st7" d="M214.5,433.2c0.4,0,0.6-0.2,0.6-0.6v-0.4c0-0.4-0.2-0.6-0.6-0.6s-0.6,0.2-0.6,0.6v0.4
				C213.9,432.8,214.1,433.2,214.5,433.2z"/>
			<path id="XMLID_221_" class="st7" d="M188,403.2l22.9,13.2c0,0,0.2,0,0.4,0s0.4-0.2,0.6-0.4c0.2-0.2,0-0.6-0.2-0.8L188.8,402
				c-0.2-0.2-0.6,0-0.8,0.2C187.6,402.6,187.6,403,188,403.2z"/>
		</g>
	</g>
</g>
</svg>
