<?xml version="1.0" encoding="utf-8"?>
<!-- Generator: Adobe Illustrator 19.0.0, SVG Export Plug-In . SVG Version: 6.00 Build 0)  -->
<svg version="1.1" id="Layer_1" xmlns="http://www.w3.org/2000/svg" xmlns:xlink="http://www.w3.org/1999/xlink" x="0px" y="0px"
	 viewBox="-748 340.5 1050 207" style="enable-background:new -748 340.5 1050 207;" xml:space="preserve">
<style type="text/css">
	.st0{fill:none;stroke:#00AEEF;stroke-width:0.75;stroke-miterlimit:10;}
	.st1{fill:#00AEEF;stroke:#FFFFFF;stroke-width:0.25;stroke-miterlimit:10;}
	.st2{fill:#00AEEF;stroke:#FFFFFF;stroke-width:0.3;stroke-miterlimit:10;}
	.st3{fill:#00AEEF;stroke:#FFFFFF;stroke-width:1.3;stroke-miterlimit:10;}
	.st4{fill:#00AEEF;}
	.st5{font-family:'ProximaNova-Regular';}
	.st6{font-size:17.1609px;}
	.st7{fill:none;stroke:#00AEEF;stroke-miterlimit:10;}
</style>
<g id="XMLID_33_">
	<circle id="XMLID_110_" class="st0" cx="214.2" cy="424.9" r="58.2"/>
	<g id="XMLID_201_">
		<path id="XMLID_205_" class="st1" d="M247.3,410.7L247.3,410.7c0-0.2-0.2-0.4-0.4-0.6l0,0l0,0l-31.6-18.3c-0.2-0.2-0.6-0.2-1,0
			l-31.6,18.1l0,0l0,0l-0.2,0.2l0,0l0,0c0,0,0,0.2-0.2,0.2l0,0l0,0v27.2c0,0.4,0.2,0.6,0.4,0.8l31.6,18.1c0.2,0,0.2,0.2,0.4,0.2l0,0
			l0,0l0,0h0.2c0,0,0.2,0,0.2-0.2l31.6-18.1c0.2-0.2,0.4-0.4,0.4-0.8L247.3,410.7C247.3,410.9,247.3,410.7,247.3,410.7z
			 M214.9,393.6l29.8,17.2l-10.8,6.3l-29.8-17.2L214.9,393.6z M233.7,433.4l-6.5,3.7v-14.2l6.5-3.7V433.4z M214.9,428.1l-29.8-17.2
			l10.3-5.9l29.6,17.4L214.9,428.1z M202.9,400.5l29.8,17.2l-6.5,3.7L196.6,404L202.9,400.5z M184.2,412.5l29.8,17.2v25l-29.8-17.2
			V412.5z M215.7,454.7v-25l10.1-5.7v14.4c0,0.2,0.2,0.4,0.4,0.6c0,0,0.2,0,0.4,0s0.2,0,0.4,0l7.7-4.5c0.2-0.2,0.4-0.4,0.4-0.6
			v-15.2l10.7-6.1v25L215.7,454.7z"/>
		<path id="XMLID_102_" class="st1" d="M228.8,431.8c0.4,0,0.6-0.2,0.6-0.6v-7.3c0-0.4-0.2-0.6-0.6-0.6s-0.6,0.2-0.6,0.6v7.3
			C228.2,431.4,228.4,431.8,228.8,431.8z"/>
		<path id="XMLID_101_" class="st1" d="M228.8,434.8c0.4,0,0.6-0.2,0.6-0.6v-0.4c0-0.4-0.2-0.6-0.6-0.6s-0.6,0.2-0.6,0.6v0.4
			C228.2,434.4,228.4,434.8,228.8,434.8z"/>
		<path id="XMLID_100_" class="st1" d="M202.3,404.8l22.9,13.2c0,0,0.2,0,0.4,0s0.4-0.2,0.6-0.4c0.2-0.2,0-0.6-0.2-0.8l-22.9-13.2
			c-0.2-0.2-0.6,0-0.8,0.2C201.9,404.2,201.9,404.6,202.3,404.8z"/>
	</g>
</g>
<g id="XMLID_32_">
	<circle id="XMLID_28_" class="st0" cx="-6.3" cy="424.7" r="58.2"/>
	<g id="XMLID_11_">
		<path id="XMLID_17_" class="st1" d="M-5.5,430.6c6.7-0.8,11.8-6.1,12.8-12.8c0-0.2,0-0.4,0-0.6c0-0.4,0-0.8,0-1.2
			c0-8.1-6.7-14.8-14.8-14.8c-0.4,0-0.8,0-1.2,0c-0.2,0-0.4,0-0.6,0c-6.7,0.8-11.8,6.1-12.8,12.8c0,0.2,0,0.4,0,0.6
			c0,0.4,0,0.8,0,1.2c0,8.1,6.7,14.8,14.8,14.8C-6.8,430.7-5.9,430.7-5.5,430.6z M-8.5,429.4L5.9,415c0,0.4,0,0.8,0,1.2s0,0.8,0,1.2
			l-12,12c-0.4,0-0.8,0-1.2,0S-8.1,429.4-8.5,429.4z M-15,427.1L-15,427.1l18.5-18.5l0,0c0.4,0.4,0.6,1,1,1.4l-17.9,17.9
			C-14,427.7-14.4,427.3-15,427.1z M5.1,411.5c0.2,0.6,0.4,1.2,0.6,1.8l-15.6,15.6l-0.2,0.2c-0.6-0.2-1.2-0.4-1.8-0.6L5.1,411.5z
			 M-3.6,428.8l8.9-8.9C4.1,424.3,0.8,427.7-3.6,428.8z M-18.2,423.7c-0.4-0.4-0.6-1-1-1.4l17.9-17.9c0.6,0.2,1,0.6,1.4,1l0,0
			L-18.2,423.7L-18.2,423.7z M-20.3,419l15.6-15.6l0.2-0.2c0.6,0.2,1.2,0.4,1.8,0.6L-19.9,421C-19.9,420.2-20.1,419.6-20.3,419z
			 M-6.1,403l-14.4,14.4c0-0.4,0-0.8,0-1.2s0-0.8,0-1.2l12-12C-8.1,403-6.5,402.8-6.1,403z M-11.1,403.4l-8.9,8.9
			C-18.8,408.1-15.4,404.8-11.1,403.4z M-17.4,424.9c0,0,18.5-18.7,18.7-18.7c0.4,0.4,0.8,0.8,1.2,1.2L-16,425.9
			C-16,425.9-17.2,425-17.4,424.9z"/>
		<path id="XMLID_1_" class="st1" d="M2.7,433.8h3.2c0.4,0,0.6-0.2,0.8-0.6l1-4.9l4.5-2c0.4-0.2,0.6-0.6,0.4-0.8l-1.2-4.7l3.2-3.7
			c0.2-0.2,0.2-0.6,0-1l-3.2-3.7l1.2-4.7c0-0.4,0-0.8-0.4-0.8l-4.5-2l-1-4.9c0-0.4-0.4-0.6-0.8-0.6H1l-3-3.9c-0.2-0.2-0.6-0.4-1-0.2
			l-4.3,2.2l-4.3-2.2c-0.4-0.2-0.8,0-1,0.2l-3,3.9h-4.9c-0.4,0-0.6,0.2-0.8,0.6l-1,4.9l-4.5,2c-0.4,0.2-0.6,0.6-0.4,0.8l1.2,4.7
			l-3.2,3.7c-0.2,0.2-0.2,0.6,0,1l3.2,3.7l-1.2,4.7c0,0.4,0,0.8,0.4,0.8l4.5,2l1,4.9c0,0.4,0.4,0.6,0.8,0.6h3.2l-11.8,19.5
			c-0.2,0.2-0.2,0.6,0,0.8c0.2,0.2,0.4,0.4,0.8,0.4l7.5-1.4l2,6.7c0,0.2,0.4,0.4,0.6,0.6l0,0c0.2,0,0.6-0.2,0.6-0.4l10.5-18.1
			L3.4,460c0.2,0.2,0.4,0.4,0.6,0.4l0,0c0.2,0,0.6-0.2,0.6-0.6l2-6.7l7.5,1.4c0.2,0,0.6,0,0.8-0.4c0.2-0.2,0.2-0.6,0-0.8L2.7,433.8z
			 M-20.9,427.7c0-0.2-0.2-0.4-0.4-0.6l-4.3-2l1.2-4.5c0-0.2,0-0.4-0.2-0.6l-3-3.6l3-3.6c0.2-0.2,0.2-0.4,0.2-0.6l-1.2-4.5l4.3-2
			c0.2,0,0.4-0.2,0.4-0.6l1-4.5h4.7c0.2,0,0.4-0.2,0.6-0.2l3-3.7l4.1,2.2c0.2,0.2,0.4,0.2,0.6,0l4.1-2.2l3,3.7
			c0.2,0.2,0.4,0.2,0.6,0.2h4.7l1,4.5c0,0.2,0.2,0.4,0.4,0.6l4.3,2l-1.2,4.5c0,0.2,0,0.4,0.2,0.6l3,3.6l-3,3.6
			c-0.2,0.2-0.2,0.4-0.2,0.6l1.2,4.5l-4.3,2c-0.2,0-0.4,0.2-0.4,0.6l-1,4.5H0.8c-0.2,0-0.4,0.2-0.6,0.2l-3,3.7l-4.1-2.2
			c-0.2-0.2-0.4-0.2-0.6,0l-4.1,2.2l-3-3.7c-0.2-0.2-0.4-0.2-0.6-0.2l0,0h-4.7L-20.9,427.7z M-18.2,457.8l-1.8-5.7
			c-0.2-0.4-0.4-0.6-0.8-0.6l-6.5,1.2l11.4-18.9l0,0l3,3.9c0.2,0.2,0.6,0.4,1,0.2l1.6-0.8l2,3.4L-18.2,457.8z M6.1,451.5
			c-0.4,0-0.8,0.2-0.8,0.6l-1.8,5.7l-12.4-21.5l1.6-0.8l4.3,2.2c0.2,0,0.2,0,0.4,0s0.4-0.2,0.6-0.2l3-3.9l0,0l11.4,18.9L6.1,451.5z"
			/>
	</g>
</g>
<g id="XMLID_99_">
	<circle id="XMLID_62_" class="st0" cx="-667.6" cy="424.9" r="58.2"/>
	<g id="XMLID_54_">
		<path id="XMLID_55_" class="st2" d="M-650,454.3h9.7c0.2,0,0.2,0,0.4,0c0.2,0,0.4,0.2,0.6,0.4c0.2,0.2,0.2,0.2,0.2,0.4
			c0.2,0.4,0.2,0.8,0,1.2l-0.2,0.2l-0.2,0.2c-0.2,0-0.4,0.2-0.4,0.2h-0.2c-19.1,0-38.3,0-57.4,0h-0.2c-0.2,0-0.4,0-0.4-0.2
			c-0.2,0-0.2-0.2-0.4-0.4l-0.2-0.2c-0.2-0.4-0.2-0.8,0-1.2l0.2-0.2c0.2-0.2,0.4-0.2,0.6-0.4c0.2,0,0.2,0,0.4,0h9.7v-56.8v-0.2
			c0-0.2,0-0.2,0-0.4c0.2-0.4,0.4-0.6,0.8-0.8c0.2,0,0.2,0,0.4,0h35.3c0.2,0,0.2,0,0.4,0c0.4,0.2,0.8,0.4,0.8,0.8c0,0.2,0,0.2,0,0.4
			v0.2L-650,454.3L-650,454.3z M-656.9,454.3h4.1v-55.6h-32.7c0,18.5,0,37.1,0,55.6h4.1c0-1,0-2,0-3c0-0.2,0-0.4,0.2-0.6
			c0-0.2,0.2-0.2,0.4-0.4c0.2-0.2,0.2-0.2,0.4-0.2c0.4-0.2,1,0,1.4,0.2l0.2,0.2c0.2,0.2,0.2,0.4,0.2,0.6c0,1,0,2,0,3h19.1
			c0-1,0-2,0-3c0-0.2,0-0.4,0.2-0.6c0-0.2,0.2-0.2,0.2-0.2c0.4-0.4,0.8-0.4,1.4-0.2c0.2,0,0.2,0.2,0.4,0.2c0.2,0.2,0.2,0.2,0.4,0.4
			c0,0.2,0.2,0.4,0.2,0.6C-656.9,452.3-656.9,453.3-656.9,454.3z M-668.9,449.6c-0.6,0-1.2,0-1.8-0.2c-1.2-0.2-2.2-0.4-3.4-1
			c-1.2-0.6-2.4-1.4-3.4-2.4s-1.8-2-2.4-3.4c-0.6-1-0.8-2-1-3.2c-0.4-1.6-0.4-3.4,0-4.9c0.2-1.2,0.6-2.2,1.2-3.2
			c0.6-1.2,1.4-2.2,2.4-3.2s2.4-1.8,3.6-2.4c1.4-0.6,3-1,4.5-1c1.6,0,3.2,0.2,4.5,0.8c1.4,0.6,2.6,1.4,3.7,2.4c1,1,1.8,2,2.4,3.2
			c0.6,1,1,2.2,1.2,3.4c0.4,1.6,0.4,3.4,0,5.1c-0.2,1-0.6,2-1,3c-0.6,1.2-1.4,2.4-2.4,3.2c-1,1-2.2,1.8-3.4,2.4
			c-1,0.6-2.2,0.8-3.4,1c-0.6,0-1.2,0.2-1.8,0.2C-668.9,449.6-668.9,449.6-668.9,449.6z M-668.9,447c0.4,0,1,0,1.4,0
			c1-0.2,1.8-0.4,2.6-0.8c1-0.4,2-1,2.8-1.8c0.8-0.8,1.4-1.6,2-2.6c0.4-0.8,0.6-1.6,0.8-2.4c0.2-1.4,0.2-2.8,0-3.9
			c-0.2-0.8-0.4-1.6-0.8-2.4c-0.4-1-1.2-1.8-2-2.6c-0.8-0.8-1.8-1.4-3-2c-1.2-0.4-2.4-0.8-3.6-0.8c-1.2,0-2.6,0.2-3.6,0.6
			c-1,0.4-2,1-3,1.8c-0.8,0.8-1.4,1.6-2,2.6c-0.4,0.8-0.8,1.8-1,2.6c-0.2,1.2-0.2,2.6,0,3.9c0.2,0.8,0.4,1.6,0.8,2.2
			c0.4,1,1.2,2,1.8,2.6c0.8,0.8,1.6,1.4,2.6,2c0.8,0.4,1.8,0.6,2.6,0.8c0.4,0,0.8,0.2,1.4,0.2C-669.1,447-669.1,447-668.9,447z
			 M-658.3,422.8c-0.2,0-0.2,0-0.4,0c-0.4-0.2-0.6-0.4-0.8-0.8c0-0.2,0-0.2,0-0.4c0-2.6,0-5.1,0-7.7c0-0.2,0-0.4,0.2-0.6
			c0-0.2,0.2-0.2,0.2-0.4c0.2-0.2,0.6-0.4,1-0.4c0.2,0,0.2,0,0.4,0s0.2,0.2,0.4,0.2c0.2,0.2,0.2,0.2,0.4,0.4c0,0.2,0.2,0.4,0.2,0.6
			c0,2.6,0,5.1,0,7.7c0,0.2,0,0.2,0,0.4c-0.2,0.4-0.4,0.6-0.8,0.8S-657.9,422.8-658.3,422.8C-658.1,422.8-658.1,422.8-658.3,422.8z
			 M-680,422.8c-0.2,0-0.2,0-0.4,0c-0.4-0.2-0.6-0.4-0.8-0.8v-0.2v-0.2v-17.2v-0.2V404c0.2-0.4,0.4-0.6,0.8-0.8c0.2,0,0.2,0,0.4,0
			h6.3h0.2c0.2,0,0.4,0.2,0.6,0.4c0.2,0.2,0.2,0.2,0.2,0.4c0,0.2,0,0.2,0,0.4c0,0.2,0,0.2,0,0.4c0,0.4-0.4,0.8-0.8,1
			c-0.2,0-0.2,0-0.4,0.2h-0.2h-4.9v15.8l0,0c0,0.2,0,0.2,0,0.4c-0.2,0.4-0.4,0.6-0.8,0.8h-0.2C-679.8,422.8-679.8,422.8-680,422.8
			C-679.8,422.8-679.8,422.8-680,422.8z"/>
	</g>
</g>
<g id="XMLID_98_">
	<circle id="XMLID_65_" class="st0" cx="-447.3" cy="424.6" r="58.2"/>
	<g id="XMLID_63_">
		<path id="XMLID_4_" class="st3" d="M-450.6,459.5v-8.1c-4.7,0-9.5-1.6-12.2-3.4l1.8-5.5c3,1.8,7.1,3.4,11.4,3.4
			c5.7,0,9.7-3.4,9.7-7.9c0-4.3-3.2-7.1-9.1-9.7c-8.1-3.2-13.2-7.1-13.2-13.8c0-6.5,4.7-11.6,12-12.8v-8.1h4.9v7.9
			c4.7,0.2,8.1,1.6,10.5,3l-2.2,5.1c-1.6-1-4.9-3-10.3-3c-6.3,0-8.7,3.6-8.7,7.1c0,4.1,3,6.3,9.9,9.1c8.3,3.4,12.4,7.5,12.4,14.6
			c0,6.5-4.3,12.2-12.4,13.6v8.3L-450.6,459.5L-450.6,459.5z"/>
	</g>
</g>
<g id="XMLID_96_">
	<circle id="XMLID_73_" class="st0" cx="-226.9" cy="424.9" r="58.2"/>
	<path id="XMLID_66_" class="st1" d="M-232.6,418.5c1,0,2-0.2,3-0.8c1.4-0.8,2.4-2,2.8-3.6c0.4-1.6,0.2-3.2-0.6-4.5
		c-1.6-2.8-5.3-3.7-8.1-2.2c-2.8,1.6-3.7,5.3-2.2,8.1C-236.5,417.4-234.6,418.5-232.6,418.5z M-234.4,409.5c0.6-0.4,1.2-0.4,1.8-0.4
		c1.4,0,2.6,0.8,3.2,1.8c0.4,0.8,0.6,1.8,0.4,2.8c-0.2,1-0.8,1.8-1.8,2.2c-1.8,1-4.1,0.4-4.9-1.4
		C-236.7,412.6-236.1,410.5-234.4,409.5z M-201.8,441.2l-5.5-9.7c-0.6-1-0.6-2-0.2-3.2l0.4-0.8c3-6.9,2.4-14.6-1.4-21.1
		c-4.1-7.3-12-11.8-20.7-11.8l0,0c-0.4,0-0.8,0.2-1,0.6c-0.2,0.4-0.2,0.8,0,1.2l2.2,3.9h-10.8c-0.4,0-0.8,0.2-1,0.6l-5.5,9.5
		l-2.2-3.9c-0.2-0.4-0.6-0.6-1-0.6l0,0c-0.4,0-0.8,0.2-1,0.6c-4.3,7.3-4.3,16.6-0.2,23.9c3.7,6.5,10.1,10.7,17.6,11.6l1,0.2
		c1.2,0.2,2,0.8,2.6,1.8l5.7,9.7c0.2,0.4,0.6,0.6,1,0.6h0.2c7.5-2,14.2-5.9,19.7-11.6C-201.6,442.2-201.6,441.6-201.8,441.2z
		 M-225.5,425.1c-2.2,1.2-4.3,1.8-6.1,1.8c-2,0-3.7-0.6-5.1-2h10.5c0.4,0,0.8-0.2,1-0.6l5.3-9.1
		C-218.8,419.3-221.7,422.9-225.5,425.1z M-238.3,402.6h11.6l5.7,10.1l-5.7,10.1h-11.6l-5.7-10.1L-238.3,402.6z M-221.5,451.9
		l-5.1-8.9c-1-1.6-2.6-2.6-4.1-2.8l-0.8-0.2c-6.7-0.8-12.6-4.7-16-10.7c-3.6-6.1-3.7-13.6-0.8-19.9l2.2,3.7l0,0l6.5,11.2
		c0,0,0,0,0,0.2c2,3,4.7,4.7,8.3,4.7c2.4,0,4.9-0.8,7.3-2.2c6.3-3.6,8.5-9.5,5.7-14.8V412l-0.2-0.2l0,0l-3.2-5.5l-3.2-5.3l0,0
		l-2.2-3.7c6.9,0.6,13.4,4.5,17,10.7c3.4,5.9,3.7,12.8,1.2,19.1l-0.4,0.8c-0.8,1.6-0.6,3.6,0.4,5.1l5.1,8.9
		C-209.1,446.5-215,449.9-221.5,451.9z"/>
</g>
<g id="XMLID_111_">
	<text id="XMLID_47_" transform="matrix(1 0 0 1 -716.8441 516.7136)" class="st4 st5 st6">Deposit Paid</text>
</g>
<g id="XMLID_112_">
	<g>
		<text id="XMLID_13_" transform="matrix(1 0 0 1 -496.6681 516.7136)" class="st4 st5 st6">Balance Paid</text>
	</g>
</g>
<g id="XMLID_113_">
	<g>
		<text id="XMLID_14_" transform="matrix(1 0 0 1 -256.4762 516.7136)" class="st4 st5 st6">Building</text>
	</g>
</g>
<g id="XMLID_114_">
	<g>
		<text id="XMLID_15_" transform="matrix(1 0 0 1 -76.3323 516.7136)" class="st4 st5 st6">Quality Assurance</text>
	</g>
</g>
<g id="XMLID_115_">
	<text transform="matrix(1 0 0 1 184.8764 516.7136)" class="st4 st5 st6">Shipping</text>
</g>
<line id="XMLID_35_" class="st7" x1="-609.4" y1="424.9" x2="-505.5" y2="424.9"/>
<line id="XMLID_36_" class="st7" x1="-389.1" y1="424.9" x2="-285" y2="424.9"/>
<line id="XMLID_38_" class="st7" x1="-168.7" y1="424.9" x2="-64.5" y2="424.9"/>
<line id="XMLID_37_" class="st7" x1="52.3" y1="424.9" x2="156.3" y2="424.9"/>
</svg>
