<?xml version="1.0" encoding="utf-8"?>
<!-- Generator: Adobe Illustrator 19.0.0, SVG Export Plug-In . SVG Version: 6.00 Build 0)  -->
<svg version="1.1" id="Layer_1" xmlns="http://www.w3.org/2000/svg" xmlns:xlink="http://www.w3.org/1999/xlink" x="0px" y="0px"
	 viewBox="-260 340.5 90 112.5" style="enable-background:new -260 340.5 90 112.5;" xml:space="preserve">
<style type="text/css">
	.st0{fill:none;stroke:#00AEEF;stroke-width:0.75;stroke-miterlimit:10;}
	.st1{fill:#00AEEF;stroke:#FFFFFF;stroke-width:0.25;stroke-miterlimit:10;}
</style>
<circle class="st0" cx="-217.5" cy="397.5" r="29.5"/>
<path class="st1" d="M-220.4,394.3c0.5,0,1-0.1,1.5-0.4c0.7-0.4,1.2-1,1.4-1.8s0.1-1.6-0.3-2.3c-0.8-1.4-2.7-1.9-4.1-1.1
	c-1.4,0.8-1.9,2.7-1.1,4.1C-222.4,393.7-221.4,394.3-220.4,394.3z M-221.3,389.7c0.3-0.2,0.6-0.2,0.9-0.2c0.7,0,1.3,0.4,1.6,0.9
	c0.2,0.4,0.3,0.9,0.2,1.4s-0.4,0.9-0.9,1.1c-0.9,0.5-2.1,0.2-2.5-0.7C-222.5,391.3-222.2,390.2-221.3,389.7z M-204.8,405.8l-2.8-4.9
	c-0.3-0.5-0.3-1-0.1-1.6l0.2-0.4c1.5-3.5,1.2-7.4-0.7-10.7c-2.1-3.7-6.1-6-10.5-6l0,0c-0.2,0-0.4,0.1-0.5,0.3
	c-0.1,0.2-0.1,0.4,0,0.6l1.1,2h-5.5c-0.2,0-0.4,0.1-0.5,0.3l-2.8,4.8l-1.1-2c-0.1-0.2-0.3-0.3-0.5-0.3l0,0c-0.2,0-0.4,0.1-0.5,0.3
	c-2.2,3.7-2.2,8.4-0.1,12.1c1.9,3.3,5.1,5.4,8.9,5.9l0.5,0.1c0.6,0.1,1,0.4,1.3,0.9l2.9,4.9c0.1,0.2,0.3,0.3,0.5,0.3h0.1
	c3.8-1,7.2-3,10-5.9C-204.7,406.3-204.7,406-204.8,405.8z M-216.8,397.6c-1.1,0.6-2.2,0.9-3.1,0.9c-1,0-1.9-0.3-2.6-1h5.3
	c0.2,0,0.4-0.1,0.5-0.3l2.7-4.6C-213.4,394.7-214.9,396.5-216.8,397.6z M-223.3,386.2h5.9l2.9,5.1l-2.9,5.1h-5.9l-2.9-5.1
	L-223.3,386.2z M-214.8,411.2l-2.6-4.5c-0.5-0.8-1.3-1.3-2.1-1.4l-0.4-0.1c-3.4-0.4-6.4-2.4-8.1-5.4c-1.8-3.1-1.9-6.9-0.4-10.1
	l1.1,1.9l0,0l3.3,5.7c0,0,0,0,0,0.1c1,1.5,2.4,2.4,4.2,2.4c1.2,0,2.5-0.4,3.7-1.1c3.2-1.8,4.3-4.8,2.9-7.5v-0.1l-0.1-0.1l0,0
	l-1.6-2.8l-1.6-2.7l0,0l-1.1-1.9c3.5,0.3,6.8,2.3,8.6,5.4c1.7,3,1.9,6.5,0.6,9.7l-0.2,0.4c-0.4,0.8-0.3,1.8,0.2,2.6l2.6,4.5
	C-208.5,408.5-211.5,410.2-214.8,411.2z"/>
</svg>
